  0
SECTION
  2
HEADER
  9
$ACADVER
  1
AC1014
  9
$HANDSEED
  5
FFFF
  9
$MEASUREMENT
 70
     1
  0
ENDSEC
  0
SECTION
  2
TABLES
  0
TABLE
  2
VPORT
  5
8
330
0
100
AcDbSymbolTable
 70
     4
  0
VPORT
  5
2E
330
8
100
AcDbSymbolTableRecord
100
AcDbViewportTableRecord
  2
*ACTIVE
 70
     0
 10
0.0
 20
0.0
 11
1.0
 21
1.0
 12
210.0
 22
148.5
 13
0.0
 23
0.0
 14
10.0
 24
10.0
 15
10.0
 25
10.0
 16
0.0
 26
0.0
 36
1.0
 17
0.0
 27
0.0
 37
0.0
 40
341.0
 41
1.24
 42
50.0
 43
0.0
 44
0.0
 50
0.0
 51
0.0
 71
     0
 72
   100
 73
     1
 74
     3
 75
     0
 76
     0
 77
     0
 78
     0
  0
ENDTAB
  0
TABLE
  2
LTYPE
  5
5
330
0
100
AcDbSymbolTable
 70
     1
  0
LTYPE
  5
14
330
5
100
AcDbSymbolTableRecord
100
AcDbLinetypeTableRecord
  2
BYBLOCK
 70
     0
  3

 72
    65
 73
     0
 40
0.0
  0
LTYPE
  5
15
330
5
100
AcDbSymbolTableRecord
100
AcDbLinetypeTableRecord
  2
BYLAYER
 70
     0
  3

 72
    65
 73
     0
 40
0.0
  0
LTYPE
  5
16
330
5
100
AcDbSymbolTableRecord
100
AcDbLinetypeTableRecord
  2
CONTINUOUS
 70
     0
  3
Solid line
 72
    65
 73
     0
 40
0.0
  0
ENDTAB
  0
TABLE
  2
LAYER
  5
2
100
AcDbSymbolTable
 70
1
  0
LAYER
  5
50
100
AcDbSymbolTableRecord
100
AcDbLayerTableRecord
  2
0
 70
0
  6
CONTINUOUS
  0
ENDTAB
  0
TABLE
  2
STYLE
  5
3
330
0
100
AcDbSymbolTable
 70
     1
  0
STYLE
  5
11
330
3
100
AcDbSymbolTableRecord
100
AcDbTextStyleTableRecord
  2
STANDARD
 70
     0
 40
0.0
 41
1.0
 50
0.0
 71
     0
 42
2.5
  3
txt
  4

  0
ENDTAB
  0
TABLE
  2
VIEW
  5
6
330
0
100
AcDbSymbolTable
 70
     0
  0
ENDTAB
  0
TABLE
  2
UCS
  5
7
330
0
100
AcDbSymbolTable
 70
     0
  0
ENDTAB
  0
TABLE
  2
APPID
  5
9
330
0
100
AcDbSymbolTable
 70
     2
  0
APPID
  5
12
330
9
100
AcDbSymbolTableRecord
100
AcDbRegAppTableRecord
  2
ACAD
 70
     0
  0
ENDTAB
  0
TABLE
  2
DIMSTYLE
  5
A
330
0
100
AcDbSymbolTable
 70
     1
  0
DIMSTYLE
105
27
330
A
100
AcDbSymbolTableRecord
100
AcDbDimStyleTableRecord
  2
ISO-25
 70
     0
  3

  4

  5

  6

  7

 40
1.0
 41
2.5
 42
0.625
 43
3.75
 44
1.25
 45
0.0
 46
0.0
 47
0.0
 48
0.0
140
2.5
141
2.5
142
0.0
143
0.03937007874016
144
1.0
145
0.0
146
1.0
147
0.625
 71
     0
 72
     0
 73
     0
 74
     0
 75
     0
 76
     0
 77
     1
 78
     8
170
     0
171
     3
172
     1
173
     0
174
     0
175
     0
176
     0
177
     0
178
     0
270
     2
271
     2
272
     2
273
     2
274
     3
340
11
275
     0
280
     0
281
     0
282
     0
283
     0
284
     8
285
     0
286
     0
287
     3
288
     0
  0
ENDTAB
  0
TABLE
  2
BLOCK_RECORD
  5
1
330
0
100
AcDbSymbolTable
 70
     1
  0
BLOCK_RECORD
  5
1F
330
1
100
AcDbSymbolTableRecord
100
AcDbBlockTableRecord
  2
*MODEL_SPACE
  0
BLOCK_RECORD
  5
1B
330
1
100
AcDbSymbolTableRecord
100
AcDbBlockTableRecord
  2
*PAPER_SPACE
  0
ENDTAB
  0
ENDSEC
  0
SECTION
  2
BLOCKS
  0
BLOCK
  5
20
330
1F
100
AcDbEntity
  8
0
100
AcDbBlockBegin
  2
*MODEL_SPACE
 70
     0
 10
0.0
 20
0.0
 30
0.0
  3
*MODEL_SPACE
  1

  0
ENDBLK
  5
21
330
1F
100
AcDbEntity
  8
0
100
AcDbBlockEnd
  0
BLOCK
  5
1C
330
1B
100
AcDbEntity
 67
     1
  8
0
100
AcDbBlockBegin
  2
*PAPER_SPACE
  1

  0
ENDBLK
  5
1D
330
1B
100
AcDbEntity
 67
     1
  8
0
100
AcDbBlockEnd
  0
ENDSEC
  0
SECTION
  2
ENTITIES
  0
LINE
  5
100
100
AcDbEntity
  8
0
 62
7
100
AcDbLine
 10
414.682010
 20
532.626498
 30
0.0
 11
437.682010
 21
532.626498
 31
0.0
  0
LINE
  5
101
100
AcDbEntity
  8
0
 62
7
100
AcDbLine
 10
437.682010
 20
532.626498
 30
0.0
 11
437.682010
 21
519.626498
 31
0.0
  0
LINE
  5
102
100
AcDbEntity
  8
0
 62
7
100
AcDbLine
 10
437.682010
 20
519.626498
 30
0.0
 11
414.682010
 21
519.626498
 31
0.0
  0
LINE
  5
103
100
AcDbEntity
  8
0
 62
7
100
AcDbLine
 10
414.682010
 20
519.626498
 30
0.0
 11
414.682010
 21
532.626498
 31
0.0
  0
SPLINE
  5
104
100
AcDbEntity
  8
0
 62
7
100
AcDbSpline
 70
8
 71
3
 72
8
 73
4
 74
0
 40
0
 40
0
 40
0
 40
0
 40
1
 40
1
 40
1
 40
1
 10
412.032010
 20
528.167701
 30
0.0
 10
411.425317
 20
528.167701
 30
0.0
 10
410.878362
 20
527.802238
 30
0.0
 10
410.646191
 20
527.241726
 30
0.0
  0
SPLINE
  5
105
100
AcDbEntity
  8
0
 62
7
100
AcDbSpline
 70
8
 71
3
 72
8
 73
4
 74
0
 40
0
 40
0
 40
0
 40
0
 40
1
 40
1
 40
1
 40
1
 10
410.646191
 20
527.241726
 30
0.0
 10
410.414019
 20
526.681215
 30
0.0
 10
410.542353
 20
526.036038
 30
0.0
 10
410.971350
 20
525.607041
 30
0.0
  0
SPLINE
  5
106
100
AcDbEntity
  8
0
 62
7
100
AcDbSpline
 70
8
 71
3
 72
8
 73
4
 74
0
 40
0
 40
0
 40
0
 40
0
 40
1
 40
1
 40
1
 40
1
 10
410.971350
 20
525.607041
 30
0.0
 10
411.400347
 20
525.178044
 30
0.0
 10
412.045524
 20
525.049710
 30
0.0
 10
412.606035
 20
525.281882
 30
0.0
  0
SPLINE
  5
107
100
AcDbEntity
  8
0
 62
7
100
AcDbSpline
 70
8
 71
3
 72
8
 73
4
 74
0
 40
0
 40
0
 40
0
 40
0
 40
1
 40
1
 40
1
 40
1
 10
412.606035
 20
525.281882
 30
0.0
 10
413.166547
 20
525.514053
 30
0.0
 10
413.532010
 20
526.061008
 30
0.0
 10
413.532010
 20
526.667701
 30
0.0
  0
SPLINE
  5
108
100
AcDbEntity
  8
0
 62
7
100
AcDbSpline
 70
8
 71
3
 72
8
 73
4
 74
0
 40
0
 40
0
 40
0
 40
0
 40
1
 40
1
 40
1
 40
1
 10
413.532010
 20
526.667701
 30
0.0
 10
413.532010
 20
527.065526
 30
0.0
 10
413.373975
 20
527.447057
 30
0.0
 10
413.092670
 20
527.728361
 30
0.0
  0
SPLINE
  5
109
100
AcDbEntity
  8
0
 62
7
100
AcDbSpline
 70
8
 71
3
 72
8
 73
4
 74
0
 40
0
 40
0
 40
0
 40
0
 40
1
 40
1
 40
1
 40
1
 10
413.092670
 20
527.728361
 30
0.0
 10
412.811366
 20
528.009666
 30
0.0
 10
412.429835
 20
528.167701
 30
0.0
 10
412.032010
 20
528.167701
 30
0.0
  0
LINE
  5
10a
100
AcDbEntity
  8
0
 62
7
100
AcDbLine
 10
412.032010
 20
528.167701
 30
0.0
 11
412.032010
 21
528.167701
 31
0.0
  0
SPLINE
  5
10b
100
AcDbEntity
  8
0
 62
7
100
AcDbSpline
 70
8
 71
3
 72
8
 73
4
 74
0
 40
0
 40
0
 40
0
 40
0
 40
1
 40
1
 40
1
 40
1
 10
440.332000
 20
528.167701
 30
0.0
 10
439.725307
 20
528.167701
 30
0.0
 10
439.178352
 20
527.802238
 30
0.0
 10
438.946181
 20
527.241726
 30
0.0
  0
SPLINE
  5
10c
100
AcDbEntity
  8
0
 62
7
100
AcDbSpline
 70
8
 71
3
 72
8
 73
4
 74
0
 40
0
 40
0
 40
0
 40
0
 40
1
 40
1
 40
1
 40
1
 10
438.946181
 20
527.241726
 30
0.0
 10
438.714009
 20
526.681215
 30
0.0
 10
438.842343
 20
526.036038
 30
0.0
 10
439.271340
 20
525.607041
 30
0.0
  0
SPLINE
  5
10d
100
AcDbEntity
  8
0
 62
7
100
AcDbSpline
 70
8
 71
3
 72
8
 73
4
 74
0
 40
0
 40
0
 40
0
 40
0
 40
1
 40
1
 40
1
 40
1
 10
439.271340
 20
525.607041
 30
0.0
 10
439.700337
 20
525.178044
 30
0.0
 10
440.345514
 20
525.049710
 30
0.0
 10
440.906025
 20
525.281882
 30
0.0
  0
SPLINE
  5
10e
100
AcDbEntity
  8
0
 62
7
100
AcDbSpline
 70
8
 71
3
 72
8
 73
4
 74
0
 40
0
 40
0
 40
0
 40
0
 40
1
 40
1
 40
1
 40
1
 10
440.906025
 20
525.281882
 30
0.0
 10
441.466537
 20
525.514053
 30
0.0
 10
441.832000
 20
526.061008
 30
0.0
 10
441.832000
 20
526.667701
 30
0.0
  0
SPLINE
  5
10f
100
AcDbEntity
  8
0
 62
7
100
AcDbSpline
 70
8
 71
3
 72
8
 73
4
 74
0
 40
0
 40
0
 40
0
 40
0
 40
1
 40
1
 40
1
 40
1
 10
441.832000
 20
526.667701
 30
0.0
 10
441.832000
 20
527.065526
 30
0.0
 10
441.673965
 20
527.447057
 30
0.0
 10
441.392660
 20
527.728361
 30
0.0
  0
SPLINE
  5
110
100
AcDbEntity
  8
0
 62
7
100
AcDbSpline
 70
8
 71
3
 72
8
 73
4
 74
0
 40
0
 40
0
 40
0
 40
0
 40
1
 40
1
 40
1
 40
1
 10
441.392660
 20
527.728361
 30
0.0
 10
441.111356
 20
528.009666
 30
0.0
 10
440.729825
 20
528.167701
 30
0.0
 10
440.332000
 20
528.167701
 30
0.0
  0
LINE
  5
111
100
AcDbEntity
  8
0
 62
7
100
AcDbLine
 10
440.332000
 20
528.167701
 30
0.0
 11
440.332000
 21
528.167701
 31
0.0
  0
LINE
  5
112
100
AcDbEntity
  8
0
 62
7
100
AcDbLine
 10
535.906980
 20
523.426501
 30
0.0
 11
541.906980
 21
523.426501
 31
0.0
  0
LINE
  5
113
100
AcDbEntity
  8
0
 62
7
100
AcDbLine
 10
541.906980
 20
523.426501
 30
0.0
 11
541.906980
 21
517.426501
 31
0.0
  0
LINE
  5
114
100
AcDbEntity
  8
0
 62
7
100
AcDbLine
 10
541.906980
 20
517.426501
 30
0.0
 11
535.906980
 21
517.426501
 31
0.0
  0
LINE
  5
115
100
AcDbEntity
  8
0
 62
7
100
AcDbLine
 10
535.906980
 20
517.426501
 30
0.0
 11
535.906980
 21
523.426501
 31
0.0
  0
LINE
  5
116
100
AcDbEntity
  8
0
 62
7
100
AcDbLine
 10
535.906980
 20
437.827000
 30
0.0
 11
541.906980
 21
437.827000
 31
0.0
  0
LINE
  5
117
100
AcDbEntity
  8
0
 62
7
100
AcDbLine
 10
541.906980
 20
437.827000
 30
0.0
 11
541.906980
 21
431.827000
 31
0.0
  0
LINE
  5
118
100
AcDbEntity
  8
0
 62
7
100
AcDbLine
 10
541.906980
 20
431.827000
 30
0.0
 11
535.906980
 21
431.827000
 31
0.0
  0
LINE
  5
119
100
AcDbEntity
  8
0
 62
7
100
AcDbLine
 10
535.906980
 20
431.827000
 30
0.0
 11
535.906980
 21
437.827000
 31
0.0
  0
LINE
  5
11a
100
AcDbEntity
  8
0
 62
7
100
AcDbLine
 10
310.457000
 20
437.827000
 30
0.0
 11
316.457000
 21
437.827000
 31
0.0
  0
LINE
  5
11b
100
AcDbEntity
  8
0
 62
7
100
AcDbLine
 10
316.457000
 20
437.827000
 30
0.0
 11
316.457000
 21
431.827000
 31
0.0
  0
LINE
  5
11c
100
AcDbEntity
  8
0
 62
7
100
AcDbLine
 10
316.457000
 20
431.827000
 30
0.0
 11
310.457000
 21
431.827000
 31
0.0
  0
LINE
  5
11d
100
AcDbEntity
  8
0
 62
7
100
AcDbLine
 10
310.457000
 20
431.827000
 30
0.0
 11
310.457000
 21
437.827000
 31
0.0
  0
LINE
  5
11e
100
AcDbEntity
  8
0
 62
7
100
AcDbLine
 10
310.457000
 20
523.426501
 30
0.0
 11
316.457000
 21
523.426501
 31
0.0
  0
LINE
  5
11f
100
AcDbEntity
  8
0
 62
7
100
AcDbLine
 10
316.457000
 20
523.426501
 30
0.0
 11
316.457000
 21
517.426501
 31
0.0
  0
LINE
  5
120
100
AcDbEntity
  8
0
 62
7
100
AcDbLine
 10
316.457000
 20
517.426501
 30
0.0
 11
310.457000
 21
517.426501
 31
0.0
  0
LINE
  5
121
100
AcDbEntity
  8
0
 62
7
100
AcDbLine
 10
310.457000
 20
517.426501
 30
0.0
 11
310.457000
 21
523.426501
 31
0.0
  0
LINE
  5
122
100
AcDbEntity
  8
0
 62
7
100
AcDbLine
 10
506.928010
 20
527.376498
 30
0.0
 11
520.828010
 21
527.376498
 31
0.0
  0
LINE
  5
123
100
AcDbEntity
  8
0
 62
7
100
AcDbLine
 10
520.828010
 20
527.376498
 30
0.0
 11
520.828010
 21
513.476498
 31
0.0
  0
LINE
  5
124
100
AcDbEntity
  8
0
 62
7
100
AcDbLine
 10
520.828010
 20
513.476498
 30
0.0
 11
506.928010
 21
513.476498
 31
0.0
  0
LINE
  5
125
100
AcDbEntity
  8
0
 62
7
100
AcDbLine
 10
506.928010
 20
513.476498
 30
0.0
 11
506.928010
 21
527.376498
 31
0.0
  0
SPLINE
  5
126
100
AcDbEntity
  8
0
 62
7
100
AcDbSpline
 70
8
 71
3
 72
8
 73
4
 74
0
 40
0
 40
0
 40
0
 40
0
 40
1
 40
1
 40
1
 40
1
 10
385.584990
 20
518.126498
 30
0.0
 10
384.978297
 20
518.126498
 30
0.0
 10
384.431342
 20
517.761035
 30
0.0
 10
384.199171
 20
517.200523
 30
0.0
  0
SPLINE
  5
127
100
AcDbEntity
  8
0
 62
7
100
AcDbSpline
 70
8
 71
3
 72
8
 73
4
 74
0
 40
0
 40
0
 40
0
 40
0
 40
1
 40
1
 40
1
 40
1
 10
384.199171
 20
517.200523
 30
0.0
 10
383.966999
 20
516.640012
 30
0.0
 10
384.095333
 20
515.994835
 30
0.0
 10
384.524330
 20
515.565838
 30
0.0
  0
SPLINE
  5
128
100
AcDbEntity
  8
0
 62
7
100
AcDbSpline
 70
8
 71
3
 72
8
 73
4
 74
0
 40
0
 40
0
 40
0
 40
0
 40
1
 40
1
 40
1
 40
1
 10
384.524330
 20
515.565838
 30
0.0
 10
384.953327
 20
515.136841
 30
0.0
 10
385.598504
 20
515.008507
 30
0.0
 10
386.159015
 20
515.240679
 30
0.0
  0
SPLINE
  5
129
100
AcDbEntity
  8
0
 62
7
100
AcDbSpline
 70
8
 71
3
 72
8
 73
4
 74
0
 40
0
 40
0
 40
0
 40
0
 40
1
 40
1
 40
1
 40
1
 10
386.159015
 20
515.240679
 30
0.0
 10
386.719527
 20
515.472850
 30
0.0
 10
387.084990
 20
516.019805
 30
0.0
 10
387.084990
 20
516.626498
 30
0.0
  0
SPLINE
  5
12a
100
AcDbEntity
  8
0
 62
7
100
AcDbSpline
 70
8
 71
3
 72
8
 73
4
 74
0
 40
0
 40
0
 40
0
 40
0
 40
1
 40
1
 40
1
 40
1
 10
387.084990
 20
516.626498
 30
0.0
 10
387.084990
 20
517.024323
 30
0.0
 10
386.926955
 20
517.405854
 30
0.0
 10
386.645650
 20
517.687158
 30
0.0
  0
SPLINE
  5
12b
100
AcDbEntity
  8
0
 62
7
100
AcDbSpline
 70
8
 71
3
 72
8
 73
4
 74
0
 40
0
 40
0
 40
0
 40
0
 40
1
 40
1
 40
1
 40
1
 10
386.645650
 20
517.687158
 30
0.0
 10
386.364346
 20
517.968463
 30
0.0
 10
385.982815
 20
518.126498
 30
0.0
 10
385.584990
 20
518.126498
 30
0.0
  0
LINE
  5
12c
100
AcDbEntity
  8
0
 62
7
100
AcDbLine
 10
385.584990
 20
518.126498
 30
0.0
 11
385.584990
 21
518.126498
 31
0.0
  0
LINE
  5
12d
100
AcDbEntity
  8
0
 62
7
100
AcDbLine
 10
333.084990
 20
520.126498
 30
0.0
 11
389.084990
 21
520.126498
 31
0.0
  0
LINE
  5
12e
100
AcDbEntity
  8
0
 62
7
100
AcDbLine
 10
389.084990
 20
520.126498
 30
0.0
 11
389.084990
 21
435.126498
 31
0.0
  0
LINE
  5
12f
100
AcDbEntity
  8
0
 62
7
100
AcDbLine
 10
389.084990
 20
435.126498
 30
0.0
 11
333.084990
 21
435.126498
 31
0.0
  0
LINE
  5
130
100
AcDbEntity
  8
0
 62
7
100
AcDbLine
 10
333.084990
 20
435.126498
 30
0.0
 11
333.084990
 21
520.126498
 31
0.0
  0
SPLINE
  5
131
100
AcDbEntity
  8
0
 62
7
100
AcDbSpline
 70
8
 71
3
 72
8
 73
4
 74
0
 40
0
 40
0
 40
0
 40
0
 40
1
 40
1
 40
1
 40
1
 10
336.584990
 20
518.126498
 30
0.0
 10
335.978297
 20
518.126498
 30
0.0
 10
335.431342
 20
517.761035
 30
0.0
 10
335.199171
 20
517.200523
 30
0.0
  0
SPLINE
  5
132
100
AcDbEntity
  8
0
 62
7
100
AcDbSpline
 70
8
 71
3
 72
8
 73
4
 74
0
 40
0
 40
0
 40
0
 40
0
 40
1
 40
1
 40
1
 40
1
 10
335.199171
 20
517.200523
 30
0.0
 10
334.966999
 20
516.640012
 30
0.0
 10
335.095333
 20
515.994835
 30
0.0
 10
335.524330
 20
515.565838
 30
0.0
  0
SPLINE
  5
133
100
AcDbEntity
  8
0
 62
7
100
AcDbSpline
 70
8
 71
3
 72
8
 73
4
 74
0
 40
0
 40
0
 40
0
 40
0
 40
1
 40
1
 40
1
 40
1
 10
335.524330
 20
515.565838
 30
0.0
 10
335.953327
 20
515.136841
 30
0.0
 10
336.598504
 20
515.008507
 30
0.0
 10
337.159015
 20
515.240679
 30
0.0
  0
SPLINE
  5
134
100
AcDbEntity
  8
0
 62
7
100
AcDbSpline
 70
8
 71
3
 72
8
 73
4
 74
0
 40
0
 40
0
 40
0
 40
0
 40
1
 40
1
 40
1
 40
1
 10
337.159015
 20
515.240679
 30
0.0
 10
337.719527
 20
515.472850
 30
0.0
 10
338.084990
 20
516.019805
 30
0.0
 10
338.084990
 20
516.626498
 30
0.0
  0
SPLINE
  5
135
100
AcDbEntity
  8
0
 62
7
100
AcDbSpline
 70
8
 71
3
 72
8
 73
4
 74
0
 40
0
 40
0
 40
0
 40
0
 40
1
 40
1
 40
1
 40
1
 10
338.084990
 20
516.626498
 30
0.0
 10
338.084990
 20
517.024323
 30
0.0
 10
337.926955
 20
517.405854
 30
0.0
 10
337.645650
 20
517.687158
 30
0.0
  0
SPLINE
  5
136
100
AcDbEntity
  8
0
 62
7
100
AcDbSpline
 70
8
 71
3
 72
8
 73
4
 74
0
 40
0
 40
0
 40
0
 40
0
 40
1
 40
1
 40
1
 40
1
 10
337.645650
 20
517.687158
 30
0.0
 10
337.364346
 20
517.968463
 30
0.0
 10
336.982815
 20
518.126498
 30
0.0
 10
336.584990
 20
518.126498
 30
0.0
  0
LINE
  5
137
100
AcDbEntity
  8
0
 62
7
100
AcDbLine
 10
336.584990
 20
518.126498
 30
0.0
 11
336.584990
 21
518.126498
 31
0.0
  0
SPLINE
  5
138
100
AcDbEntity
  8
0
 62
7
100
AcDbSpline
 70
8
 71
3
 72
8
 73
4
 74
0
 40
0
 40
0
 40
0
 40
0
 40
1
 40
1
 40
1
 40
1
 10
336.584990
 20
460.127000
 30
0.0
 10
335.978297
 20
460.127000
 30
0.0
 10
335.431342
 20
459.761537
 30
0.0
 10
335.199171
 20
459.201025
 30
0.0
  0
SPLINE
  5
139
100
AcDbEntity
  8
0
 62
7
100
AcDbSpline
 70
8
 71
3
 72
8
 73
4
 74
0
 40
0
 40
0
 40
0
 40
0
 40
1
 40
1
 40
1
 40
1
 10
335.199171
 20
459.201025
 30
0.0
 10
334.966999
 20
458.640514
 30
0.0
 10
335.095333
 20
457.995337
 30
0.0
 10
335.524330
 20
457.566340
 30
0.0
  0
SPLINE
  5
13a
100
AcDbEntity
  8
0
 62
7
100
AcDbSpline
 70
8
 71
3
 72
8
 73
4
 74
0
 40
0
 40
0
 40
0
 40
0
 40
1
 40
1
 40
1
 40
1
 10
335.524330
 20
457.566340
 30
0.0
 10
335.953327
 20
457.137343
 30
0.0
 10
336.598504
 20
457.009009
 30
0.0
 10
337.159015
 20
457.241181
 30
0.0
  0
SPLINE
  5
13b
100
AcDbEntity
  8
0
 62
7
100
AcDbSpline
 70
8
 71
3
 72
8
 73
4
 74
0
 40
0
 40
0
 40
0
 40
0
 40
1
 40
1
 40
1
 40
1
 10
337.159015
 20
457.241181
 30
0.0
 10
337.719527
 20
457.473352
 30
0.0
 10
338.084990
 20
458.020307
 30
0.0
 10
338.084990
 20
458.627000
 30
0.0
  0
SPLINE
  5
13c
100
AcDbEntity
  8
0
 62
7
100
AcDbSpline
 70
8
 71
3
 72
8
 73
4
 74
0
 40
0
 40
0
 40
0
 40
0
 40
1
 40
1
 40
1
 40
1
 10
338.084990
 20
458.627000
 30
0.0
 10
338.084990
 20
459.024825
 30
0.0
 10
337.926955
 20
459.406356
 30
0.0
 10
337.645650
 20
459.687660
 30
0.0
  0
SPLINE
  5
13d
100
AcDbEntity
  8
0
 62
7
100
AcDbSpline
 70
8
 71
3
 72
8
 73
4
 74
0
 40
0
 40
0
 40
0
 40
0
 40
1
 40
1
 40
1
 40
1
 10
337.645650
 20
459.687660
 30
0.0
 10
337.364346
 20
459.968965
 30
0.0
 10
336.982815
 20
460.127000
 30
0.0
 10
336.584990
 20
460.127000
 30
0.0
  0
LINE
  5
13e
100
AcDbEntity
  8
0
 62
7
100
AcDbLine
 10
336.584990
 20
460.127000
 30
0.0
 11
336.584990
 21
460.127000
 31
0.0
  0
SPLINE
  5
13f
100
AcDbEntity
  8
0
 62
7
100
AcDbSpline
 70
8
 71
3
 72
8
 73
4
 74
0
 40
0
 40
0
 40
0
 40
0
 40
1
 40
1
 40
1
 40
1
 10
385.584990
 20
460.126000
 30
0.0
 10
384.978297
 20
460.126000
 30
0.0
 10
384.431342
 20
459.760537
 30
0.0
 10
384.199171
 20
459.200025
 30
0.0
  0
SPLINE
  5
140
100
AcDbEntity
  8
0
 62
7
100
AcDbSpline
 70
8
 71
3
 72
8
 73
4
 74
0
 40
0
 40
0
 40
0
 40
0
 40
1
 40
1
 40
1
 40
1
 10
384.199171
 20
459.200025
 30
0.0
 10
383.966999
 20
458.639514
 30
0.0
 10
384.095333
 20
457.994337
 30
0.0
 10
384.524330
 20
457.565340
 30
0.0
  0
SPLINE
  5
141
100
AcDbEntity
  8
0
 62
7
100
AcDbSpline
 70
8
 71
3
 72
8
 73
4
 74
0
 40
0
 40
0
 40
0
 40
0
 40
1
 40
1
 40
1
 40
1
 10
384.524330
 20
457.565340
 30
0.0
 10
384.953327
 20
457.136343
 30
0.0
 10
385.598504
 20
457.008009
 30
0.0
 10
386.159015
 20
457.240181
 30
0.0
  0
SPLINE
  5
142
100
AcDbEntity
  8
0
 62
7
100
AcDbSpline
 70
8
 71
3
 72
8
 73
4
 74
0
 40
0
 40
0
 40
0
 40
0
 40
1
 40
1
 40
1
 40
1
 10
386.159015
 20
457.240181
 30
0.0
 10
386.719527
 20
457.472352
 30
0.0
 10
387.084990
 20
458.019307
 30
0.0
 10
387.084990
 20
458.626000
 30
0.0
  0
SPLINE
  5
143
100
AcDbEntity
  8
0
 62
7
100
AcDbSpline
 70
8
 71
3
 72
8
 73
4
 74
0
 40
0
 40
0
 40
0
 40
0
 40
1
 40
1
 40
1
 40
1
 10
387.084990
 20
458.626000
 30
0.0
 10
387.084990
 20
459.023825
 30
0.0
 10
386.926955
 20
459.405356
 30
0.0
 10
386.645650
 20
459.686660
 30
0.0
  0
SPLINE
  5
144
100
AcDbEntity
  8
0
 62
7
100
AcDbSpline
 70
8
 71
3
 72
8
 73
4
 74
0
 40
0
 40
0
 40
0
 40
0
 40
1
 40
1
 40
1
 40
1
 10
386.645650
 20
459.686660
 30
0.0
 10
386.364346
 20
459.967965
 30
0.0
 10
385.982815
 20
460.126000
 30
0.0
 10
385.584990
 20
460.126000
 30
0.0
  0
LINE
  5
145
100
AcDbEntity
  8
0
 62
7
100
AcDbLine
 10
385.584990
 20
460.126000
 30
0.0
 11
385.584990
 21
460.126000
 31
0.0
  0
LINE
  5
146
100
AcDbEntity
  8
0
 62
7
100
AcDbLine
 10
275.226000
 20
412.293000
 30
0.0
 11
314.585600
 21
412.293000
 31
0.0
  0
SPLINE
  5
147
100
AcDbEntity
  8
0
 62
7
100
AcDbSpline
 70
8
 71
3
 72
8
 73
4
 74
0
 40
0
 40
0
 40
0
 40
0
 40
1
 40
1
 40
1
 40
1
 10
314.585600
 20
412.293000
 30
0.0
 10
314.937900
 20
412.293000
 30
0.0
 10
315.226000
 20
411.843000
 30
0.0
 10
315.226000
 20
411.293000
 30
0.0
  0
LINE
  5
148
100
AcDbEntity
  8
0
 62
7
100
AcDbLine
 10
315.226000
 20
411.293000
 30
0.0
 11
315.226000
 21
372.293000
 31
0.0
  0
LINE
  5
149
100
AcDbEntity
  8
0
 62
7
100
AcDbLine
 10
315.226000
 20
372.293000
 30
0.0
 11
275.226000
 21
372.293000
 31
0.0
  0
LINE
  5
14a
100
AcDbEntity
  8
0
 62
7
100
AcDbLine
 10
275.226000
 20
372.293000
 30
0.0
 11
275.226000
 21
412.293000
 31
0.0
  0
LINE
  5
14b
100
AcDbEntity
  8
0
 62
7
100
AcDbLine
 10
275.226010
 20
392.293000
 30
0.0
 11
285.226010
 21
392.293000
 31
0.0
  0
LINE
  5
14c
100
AcDbEntity
  8
0
 62
7
100
AcDbLine
 10
285.226010
 20
392.293000
 30
0.0
 11
285.226010
 21
372.293000
 31
0.0
  0
LINE
  5
14d
100
AcDbEntity
  8
0
 62
7
100
AcDbLine
 10
285.226010
 20
372.293000
 30
0.0
 11
275.226010
 21
372.293000
 31
0.0
  0
LINE
  5
14e
100
AcDbEntity
  8
0
 62
7
100
AcDbLine
 10
275.226010
 20
372.293000
 30
0.0
 11
275.226010
 21
392.293000
 31
0.0
  0
LINE
  5
14f
100
AcDbEntity
  8
0
 62
7
100
AcDbLine
 10
305.226010
 20
382.293000
 30
0.0
 11
315.226010
 21
382.293000
 31
0.0
  0
LINE
  5
150
100
AcDbEntity
  8
0
 62
7
100
AcDbLine
 10
315.226010
 20
382.293000
 30
0.0
 11
315.226010
 21
372.293000
 31
0.0
  0
LINE
  5
151
100
AcDbEntity
  8
0
 62
7
100
AcDbLine
 10
315.226010
 20
372.293000
 30
0.0
 11
305.226010
 21
372.293000
 31
0.0
  0
LINE
  5
152
100
AcDbEntity
  8
0
 62
7
100
AcDbLine
 10
305.226010
 20
372.293000
 30
0.0
 11
305.226010
 21
382.293000
 31
0.0
  0
LINE
  5
153
100
AcDbEntity
  8
0
 62
7
100
AcDbLine
 10
275.226010
 20
412.293000
 30
0.0
 11
285.226010
 21
412.293000
 31
0.0
  0
LINE
  5
154
100
AcDbEntity
  8
0
 62
7
100
AcDbLine
 10
285.226010
 20
412.293000
 30
0.0
 11
285.226010
 21
402.293000
 31
0.0
  0
LINE
  5
155
100
AcDbEntity
  8
0
 62
7
100
AcDbLine
 10
285.226010
 20
402.293000
 30
0.0
 11
275.226010
 21
402.293000
 31
0.0
  0
LINE
  5
156
100
AcDbEntity
  8
0
 62
7
100
AcDbLine
 10
275.226010
 20
402.293000
 30
0.0
 11
275.226010
 21
412.293000
 31
0.0
  0
SPLINE
  5
157
100
AcDbEntity
  8
0
 62
7
100
AcDbSpline
 70
8
 71
3
 72
8
 73
4
 74
0
 40
0
 40
0
 40
0
 40
0
 40
1
 40
1
 40
1
 40
1
 10
298.726000
 20
376.293000
 30
0.0
 10
298.726000
 20
375.686307
 30
0.0
 10
299.091463
 20
375.139352
 30
0.0
 10
299.651975
 20
374.907180
 30
0.0
  0
SPLINE
  5
158
100
AcDbEntity
  8
0
 62
7
100
AcDbSpline
 70
8
 71
3
 72
8
 73
4
 74
0
 40
0
 40
0
 40
0
 40
0
 40
1
 40
1
 40
1
 40
1
 10
299.651975
 20
374.907180
 30
0.0
 10
300.212486
 20
374.675009
 30
0.0
 10
300.857663
 20
374.803343
 30
0.0
 10
301.286660
 20
375.232340
 30
0.0
  0
SPLINE
  5
159
100
AcDbEntity
  8
0
 62
7
100
AcDbSpline
 70
8
 71
3
 72
8
 73
4
 74
0
 40
0
 40
0
 40
0
 40
0
 40
1
 40
1
 40
1
 40
1
 10
301.286660
 20
375.232340
 30
0.0
 10
301.715657
 20
375.661337
 30
0.0
 10
301.843991
 20
376.306514
 30
0.0
 10
301.611820
 20
376.867025
 30
0.0
  0
SPLINE
  5
15a
100
AcDbEntity
  8
0
 62
7
100
AcDbSpline
 70
8
 71
3
 72
8
 73
4
 74
0
 40
0
 40
0
 40
0
 40
0
 40
1
 40
1
 40
1
 40
1
 10
301.611820
 20
376.867025
 30
0.0
 10
301.379648
 20
377.427537
 30
0.0
 10
300.832693
 20
377.793000
 30
0.0
 10
300.226000
 20
377.793000
 30
0.0
  0
SPLINE
  5
15b
100
AcDbEntity
  8
0
 62
7
100
AcDbSpline
 70
8
 71
3
 72
8
 73
4
 74
0
 40
0
 40
0
 40
0
 40
0
 40
1
 40
1
 40
1
 40
1
 10
300.226000
 20
377.793000
 30
0.0
 10
299.828175
 20
377.793000
 30
0.0
 10
299.446644
 20
377.634965
 30
0.0
 10
299.165340
 20
377.353660
 30
0.0
  0
SPLINE
  5
15c
100
AcDbEntity
  8
0
 62
7
100
AcDbSpline
 70
8
 71
3
 72
8
 73
4
 74
0
 40
0
 40
0
 40
0
 40
0
 40
1
 40
1
 40
1
 40
1
 10
299.165340
 20
377.353660
 30
0.0
 10
298.884035
 20
377.072356
 30
0.0
 10
298.726000
 20
376.690825
 30
0.0
 10
298.726000
 20
376.293000
 30
0.0
  0
LINE
  5
15d
100
AcDbEntity
  8
0
 62
7
100
AcDbLine
 10
298.726000
 20
376.293000
 30
0.0
 11
298.726000
 21
376.293000
 31
0.0
  0
LINE
  5
15e
100
AcDbEntity
  8
0
 62
7
100
AcDbLine
 10
275.226010
 20
382.293000
 30
0.0
 11
295.226010
 21
382.293000
 31
0.0
  0
LINE
  5
15f
100
AcDbEntity
  8
0
 62
7
100
AcDbLine
 10
295.226010
 20
382.293000
 30
0.0
 11
295.226010
 21
372.293000
 31
0.0
  0
LINE
  5
160
100
AcDbEntity
  8
0
 62
7
100
AcDbLine
 10
295.226010
 20
372.293000
 30
0.0
 11
275.226010
 21
372.293000
 31
0.0
  0
LINE
  5
161
100
AcDbEntity
  8
0
 62
7
100
AcDbLine
 10
275.226010
 20
372.293000
 30
0.0
 11
275.226010
 21
382.293000
 31
0.0
  0
LINE
  5
162
100
AcDbEntity
  8
0
 62
7
100
AcDbLine
 10
320.226000
 20
377.293000
 30
0.0
 11
280.226000
 21
417.293000
 31
0.0
  0
LINE
  5
163
100
AcDbEntity
  8
0
 62
7
100
AcDbLine
 10
280.226000
 20
417.293000
 30
0.0
 11
320.226000
 21
417.293000
 31
0.0
  0
LINE
  5
164
100
AcDbEntity
  8
0
 62
7
100
AcDbLine
 10
320.226000
 20
417.293000
 30
0.0
 11
320.226000
 21
377.293000
 31
0.0
  0
SPLINE
  5
165
100
AcDbEntity
  8
0
 62
7
100
AcDbSpline
 70
8
 71
3
 72
8
 73
4
 74
0
 40
0
 40
0
 40
0
 40
0
 40
1
 40
1
 40
1
 40
1
 10
277.726000
 20
397.293000
 30
0.0
 10
277.726000
 20
396.686307
 30
0.0
 10
278.091463
 20
396.139352
 30
0.0
 10
278.651975
 20
395.907180
 30
0.0
  0
SPLINE
  5
166
100
AcDbEntity
  8
0
 62
7
100
AcDbSpline
 70
8
 71
3
 72
8
 73
4
 74
0
 40
0
 40
0
 40
0
 40
0
 40
1
 40
1
 40
1
 40
1
 10
278.651975
 20
395.907180
 30
0.0
 10
279.212486
 20
395.675009
 30
0.0
 10
279.857663
 20
395.803343
 30
0.0
 10
280.286660
 20
396.232340
 30
0.0
  0
SPLINE
  5
167
100
AcDbEntity
  8
0
 62
7
100
AcDbSpline
 70
8
 71
3
 72
8
 73
4
 74
0
 40
0
 40
0
 40
0
 40
0
 40
1
 40
1
 40
1
 40
1
 10
280.286660
 20
396.232340
 30
0.0
 10
280.715657
 20
396.661337
 30
0.0
 10
280.843991
 20
397.306514
 30
0.0
 10
280.611820
 20
397.867025
 30
0.0
  0
SPLINE
  5
168
100
AcDbEntity
  8
0
 62
7
100
AcDbSpline
 70
8
 71
3
 72
8
 73
4
 74
0
 40
0
 40
0
 40
0
 40
0
 40
1
 40
1
 40
1
 40
1
 10
280.611820
 20
397.867025
 30
0.0
 10
280.379648
 20
398.427537
 30
0.0
 10
279.832693
 20
398.793000
 30
0.0
 10
279.226000
 20
398.793000
 30
0.0
  0
SPLINE
  5
169
100
AcDbEntity
  8
0
 62
7
100
AcDbSpline
 70
8
 71
3
 72
8
 73
4
 74
0
 40
0
 40
0
 40
0
 40
0
 40
1
 40
1
 40
1
 40
1
 10
279.226000
 20
398.793000
 30
0.0
 10
278.828175
 20
398.793000
 30
0.0
 10
278.446644
 20
398.634965
 30
0.0
 10
278.165340
 20
398.353660
 30
0.0
  0
SPLINE
  5
16a
100
AcDbEntity
  8
0
 62
7
100
AcDbSpline
 70
8
 71
3
 72
8
 73
4
 74
0
 40
0
 40
0
 40
0
 40
0
 40
1
 40
1
 40
1
 40
1
 10
278.165340
 20
398.353660
 30
0.0
 10
277.884035
 20
398.072356
 30
0.0
 10
277.726000
 20
397.690825
 30
0.0
 10
277.726000
 20
397.293000
 30
0.0
  0
LINE
  5
16b
100
AcDbEntity
  8
0
 62
7
100
AcDbLine
 10
277.726000
 20
397.293000
 30
0.0
 11
277.726000
 21
397.293000
 31
0.0
  0
LINE
  5
16c
100
AcDbEntity
  8
0
 62
7
100
AcDbLine
 10
325.008000
 20
412.293000
 30
0.0
 11
364.367600
 21
412.293000
 31
0.0
  0
SPLINE
  5
16d
100
AcDbEntity
  8
0
 62
7
100
AcDbSpline
 70
8
 71
3
 72
8
 73
4
 74
0
 40
0
 40
0
 40
0
 40
0
 40
1
 40
1
 40
1
 40
1
 10
364.367600
 20
412.293000
 30
0.0
 10
364.719900
 20
412.293000
 30
0.0
 10
365.008000
 20
411.843000
 30
0.0
 10
365.008000
 20
411.293000
 30
0.0
  0
LINE
  5
16e
100
AcDbEntity
  8
0
 62
7
100
AcDbLine
 10
365.008000
 20
411.293000
 30
0.0
 11
365.008000
 21
372.293000
 31
0.0
  0
LINE
  5
16f
100
AcDbEntity
  8
0
 62
7
100
AcDbLine
 10
365.008000
 20
372.293000
 30
0.0
 11
325.008000
 21
372.293000
 31
0.0
  0
LINE
  5
170
100
AcDbEntity
  8
0
 62
7
100
AcDbLine
 10
325.008000
 20
372.293000
 30
0.0
 11
325.008000
 21
412.293000
 31
0.0
  0
LINE
  5
171
100
AcDbEntity
  8
0
 62
7
100
AcDbLine
 10
325.008000
 20
392.293000
 30
0.0
 11
335.008000
 21
392.293000
 31
0.0
  0
LINE
  5
172
100
AcDbEntity
  8
0
 62
7
100
AcDbLine
 10
335.008000
 20
392.293000
 30
0.0
 11
335.008000
 21
372.293000
 31
0.0
  0
LINE
  5
173
100
AcDbEntity
  8
0
 62
7
100
AcDbLine
 10
335.008000
 20
372.293000
 30
0.0
 11
325.008000
 21
372.293000
 31
0.0
  0
LINE
  5
174
100
AcDbEntity
  8
0
 62
7
100
AcDbLine
 10
325.008000
 20
372.293000
 30
0.0
 11
325.008000
 21
392.293000
 31
0.0
  0
LINE
  5
175
100
AcDbEntity
  8
0
 62
7
100
AcDbLine
 10
355.008000
 20
382.293000
 30
0.0
 11
365.008000
 21
382.293000
 31
0.0
  0
LINE
  5
176
100
AcDbEntity
  8
0
 62
7
100
AcDbLine
 10
365.008000
 20
382.293000
 30
0.0
 11
365.008000
 21
372.293000
 31
0.0
  0
LINE
  5
177
100
AcDbEntity
  8
0
 62
7
100
AcDbLine
 10
365.008000
 20
372.293000
 30
0.0
 11
355.008000
 21
372.293000
 31
0.0
  0
LINE
  5
178
100
AcDbEntity
  8
0
 62
7
100
AcDbLine
 10
355.008000
 20
372.293000
 30
0.0
 11
355.008000
 21
382.293000
 31
0.0
  0
LINE
  5
179
100
AcDbEntity
  8
0
 62
7
100
AcDbLine
 10
325.008000
 20
412.293000
 30
0.0
 11
335.008000
 21
412.293000
 31
0.0
  0
LINE
  5
17a
100
AcDbEntity
  8
0
 62
7
100
AcDbLine
 10
335.008000
 20
412.293000
 30
0.0
 11
335.008000
 21
402.293000
 31
0.0
  0
LINE
  5
17b
100
AcDbEntity
  8
0
 62
7
100
AcDbLine
 10
335.008000
 20
402.293000
 30
0.0
 11
325.008000
 21
402.293000
 31
0.0
  0
LINE
  5
17c
100
AcDbEntity
  8
0
 62
7
100
AcDbLine
 10
325.008000
 20
402.293000
 30
0.0
 11
325.008000
 21
412.293000
 31
0.0
  0
SPLINE
  5
17d
100
AcDbEntity
  8
0
 62
7
100
AcDbSpline
 70
8
 71
3
 72
8
 73
4
 74
0
 40
0
 40
0
 40
0
 40
0
 40
1
 40
1
 40
1
 40
1
 10
348.509000
 20
376.293000
 30
0.0
 10
348.509000
 20
375.686307
 30
0.0
 10
348.874463
 20
375.139352
 30
0.0
 10
349.434975
 20
374.907180
 30
0.0
  0
SPLINE
  5
17e
100
AcDbEntity
  8
0
 62
7
100
AcDbSpline
 70
8
 71
3
 72
8
 73
4
 74
0
 40
0
 40
0
 40
0
 40
0
 40
1
 40
1
 40
1
 40
1
 10
349.434975
 20
374.907180
 30
0.0
 10
349.995486
 20
374.675009
 30
0.0
 10
350.640663
 20
374.803343
 30
0.0
 10
351.069660
 20
375.232340
 30
0.0
  0
SPLINE
  5
17f
100
AcDbEntity
  8
0
 62
7
100
AcDbSpline
 70
8
 71
3
 72
8
 73
4
 74
0
 40
0
 40
0
 40
0
 40
0
 40
1
 40
1
 40
1
 40
1
 10
351.069660
 20
375.232340
 30
0.0
 10
351.498657
 20
375.661337
 30
0.0
 10
351.626991
 20
376.306514
 30
0.0
 10
351.394820
 20
376.867025
 30
0.0
  0
SPLINE
  5
180
100
AcDbEntity
  8
0
 62
7
100
AcDbSpline
 70
8
 71
3
 72
8
 73
4
 74
0
 40
0
 40
0
 40
0
 40
0
 40
1
 40
1
 40
1
 40
1
 10
351.394820
 20
376.867025
 30
0.0
 10
351.162648
 20
377.427537
 30
0.0
 10
350.615693
 20
377.793000
 30
0.0
 10
350.009000
 20
377.793000
 30
0.0
  0
SPLINE
  5
181
100
AcDbEntity
  8
0
 62
7
100
AcDbSpline
 70
8
 71
3
 72
8
 73
4
 74
0
 40
0
 40
0
 40
0
 40
0
 40
1
 40
1
 40
1
 40
1
 10
350.009000
 20
377.793000
 30
0.0
 10
349.611175
 20
377.793000
 30
0.0
 10
349.229644
 20
377.634965
 30
0.0
 10
348.948340
 20
377.353660
 30
0.0
  0
SPLINE
  5
182
100
AcDbEntity
  8
0
 62
7
100
AcDbSpline
 70
8
 71
3
 72
8
 73
4
 74
0
 40
0
 40
0
 40
0
 40
0
 40
1
 40
1
 40
1
 40
1
 10
348.948340
 20
377.353660
 30
0.0
 10
348.667035
 20
377.072356
 30
0.0
 10
348.509000
 20
376.690825
 30
0.0
 10
348.509000
 20
376.293000
 30
0.0
  0
LINE
  5
183
100
AcDbEntity
  8
0
 62
7
100
AcDbLine
 10
348.509000
 20
376.293000
 30
0.0
 11
348.509000
 21
376.293000
 31
0.0
  0
LINE
  5
184
100
AcDbEntity
  8
0
 62
7
100
AcDbLine
 10
325.008000
 20
382.293000
 30
0.0
 11
345.008000
 21
382.293000
 31
0.0
  0
LINE
  5
185
100
AcDbEntity
  8
0
 62
7
100
AcDbLine
 10
345.008000
 20
382.293000
 30
0.0
 11
345.008000
 21
372.293000
 31
0.0
  0
LINE
  5
186
100
AcDbEntity
  8
0
 62
7
100
AcDbLine
 10
345.008000
 20
372.293000
 30
0.0
 11
325.008000
 21
372.293000
 31
0.0
  0
LINE
  5
187
100
AcDbEntity
  8
0
 62
7
100
AcDbLine
 10
325.008000
 20
372.293000
 30
0.0
 11
325.008000
 21
382.293000
 31
0.0
  0
LINE
  5
188
100
AcDbEntity
  8
0
 62
7
100
AcDbLine
 10
370.008000
 20
377.293000
 30
0.0
 11
330.008000
 21
417.293000
 31
0.0
  0
LINE
  5
189
100
AcDbEntity
  8
0
 62
7
100
AcDbLine
 10
330.008000
 20
417.293000
 30
0.0
 11
370.008000
 21
417.293000
 31
0.0
  0
LINE
  5
18a
100
AcDbEntity
  8
0
 62
7
100
AcDbLine
 10
370.008000
 20
417.293000
 30
0.0
 11
370.008000
 21
377.293000
 31
0.0
  0
SPLINE
  5
18b
100
AcDbEntity
  8
0
 62
7
100
AcDbSpline
 70
8
 71
3
 72
8
 73
4
 74
0
 40
0
 40
0
 40
0
 40
0
 40
1
 40
1
 40
1
 40
1
 10
327.509000
 20
397.293000
 30
0.0
 10
327.509000
 20
396.686307
 30
0.0
 10
327.874463
 20
396.139352
 30
0.0
 10
328.434975
 20
395.907180
 30
0.0
  0
SPLINE
  5
18c
100
AcDbEntity
  8
0
 62
7
100
AcDbSpline
 70
8
 71
3
 72
8
 73
4
 74
0
 40
0
 40
0
 40
0
 40
0
 40
1
 40
1
 40
1
 40
1
 10
328.434975
 20
395.907180
 30
0.0
 10
328.995486
 20
395.675009
 30
0.0
 10
329.640663
 20
395.803343
 30
0.0
 10
330.069660
 20
396.232340
 30
0.0
  0
SPLINE
  5
18d
100
AcDbEntity
  8
0
 62
7
100
AcDbSpline
 70
8
 71
3
 72
8
 73
4
 74
0
 40
0
 40
0
 40
0
 40
0
 40
1
 40
1
 40
1
 40
1
 10
330.069660
 20
396.232340
 30
0.0
 10
330.498657
 20
396.661337
 30
0.0
 10
330.626991
 20
397.306514
 30
0.0
 10
330.394820
 20
397.867025
 30
0.0
  0
SPLINE
  5
18e
100
AcDbEntity
  8
0
 62
7
100
AcDbSpline
 70
8
 71
3
 72
8
 73
4
 74
0
 40
0
 40
0
 40
0
 40
0
 40
1
 40
1
 40
1
 40
1
 10
330.394820
 20
397.867025
 30
0.0
 10
330.162648
 20
398.427537
 30
0.0
 10
329.615693
 20
398.793000
 30
0.0
 10
329.009000
 20
398.793000
 30
0.0
  0
SPLINE
  5
18f
100
AcDbEntity
  8
0
 62
7
100
AcDbSpline
 70
8
 71
3
 72
8
 73
4
 74
0
 40
0
 40
0
 40
0
 40
0
 40
1
 40
1
 40
1
 40
1
 10
329.009000
 20
398.793000
 30
0.0
 10
328.611175
 20
398.793000
 30
0.0
 10
328.229644
 20
398.634965
 30
0.0
 10
327.948340
 20
398.353660
 30
0.0
  0
SPLINE
  5
190
100
AcDbEntity
  8
0
 62
7
100
AcDbSpline
 70
8
 71
3
 72
8
 73
4
 74
0
 40
0
 40
0
 40
0
 40
0
 40
1
 40
1
 40
1
 40
1
 10
327.948340
 20
398.353660
 30
0.0
 10
327.667035
 20
398.072356
 30
0.0
 10
327.509000
 20
397.690825
 30
0.0
 10
327.509000
 20
397.293000
 30
0.0
  0
LINE
  5
191
100
AcDbEntity
  8
0
 62
7
100
AcDbLine
 10
327.509000
 20
397.293000
 30
0.0
 11
327.509000
 21
397.293000
 31
0.0
  0
LINE
  5
192
100
AcDbEntity
  8
0
 62
7
100
AcDbLine
 10
273.782000
 20
363.912000
 30
0.0
 11
313.141600
 21
363.912000
 31
0.0
  0
SPLINE
  5
193
100
AcDbEntity
  8
0
 62
7
100
AcDbSpline
 70
8
 71
3
 72
8
 73
4
 74
0
 40
0
 40
0
 40
0
 40
0
 40
1
 40
1
 40
1
 40
1
 10
313.141600
 20
363.912000
 30
0.0
 10
313.493900
 20
363.912000
 30
0.0
 10
313.782000
 20
363.462000
 30
0.0
 10
313.782000
 20
362.912000
 30
0.0
  0
LINE
  5
194
100
AcDbEntity
  8
0
 62
7
100
AcDbLine
 10
313.782000
 20
362.912000
 30
0.0
 11
313.782000
 21
323.912000
 31
0.0
  0
LINE
  5
195
100
AcDbEntity
  8
0
 62
7
100
AcDbLine
 10
313.782000
 20
323.912000
 30
0.0
 11
273.782000
 21
323.912000
 31
0.0
  0
LINE
  5
196
100
AcDbEntity
  8
0
 62
7
100
AcDbLine
 10
273.782000
 20
323.912000
 30
0.0
 11
273.782000
 21
363.912000
 31
0.0
  0
LINE
  5
197
100
AcDbEntity
  8
0
 62
7
100
AcDbLine
 10
273.782010
 20
343.912010
 30
0.0
 11
283.782010
 21
343.912010
 31
0.0
  0
LINE
  5
198
100
AcDbEntity
  8
0
 62
7
100
AcDbLine
 10
283.782010
 20
343.912010
 30
0.0
 11
283.782010
 21
323.912010
 31
0.0
  0
LINE
  5
199
100
AcDbEntity
  8
0
 62
7
100
AcDbLine
 10
283.782010
 20
323.912010
 30
0.0
 11
273.782010
 21
323.912010
 31
0.0
  0
LINE
  5
19a
100
AcDbEntity
  8
0
 62
7
100
AcDbLine
 10
273.782010
 20
323.912010
 30
0.0
 11
273.782010
 21
343.912010
 31
0.0
  0
LINE
  5
19b
100
AcDbEntity
  8
0
 62
7
100
AcDbLine
 10
303.782010
 20
333.912010
 30
0.0
 11
313.782010
 21
333.912010
 31
0.0
  0
LINE
  5
19c
100
AcDbEntity
  8
0
 62
7
100
AcDbLine
 10
313.782010
 20
333.912010
 30
0.0
 11
313.782010
 21
323.912010
 31
0.0
  0
LINE
  5
19d
100
AcDbEntity
  8
0
 62
7
100
AcDbLine
 10
313.782010
 20
323.912010
 30
0.0
 11
303.782010
 21
323.912010
 31
0.0
  0
LINE
  5
19e
100
AcDbEntity
  8
0
 62
7
100
AcDbLine
 10
303.782010
 20
323.912010
 30
0.0
 11
303.782010
 21
333.912010
 31
0.0
  0
LINE
  5
19f
100
AcDbEntity
  8
0
 62
7
100
AcDbLine
 10
273.782010
 20
363.912010
 30
0.0
 11
283.782010
 21
363.912010
 31
0.0
  0
LINE
  5
1a0
100
AcDbEntity
  8
0
 62
7
100
AcDbLine
 10
283.782010
 20
363.912010
 30
0.0
 11
283.782010
 21
353.912010
 31
0.0
  0
LINE
  5
1a1
100
AcDbEntity
  8
0
 62
7
100
AcDbLine
 10
283.782010
 20
353.912010
 30
0.0
 11
273.782010
 21
353.912010
 31
0.0
  0
LINE
  5
1a2
100
AcDbEntity
  8
0
 62
7
100
AcDbLine
 10
273.782010
 20
353.912010
 30
0.0
 11
273.782010
 21
363.912010
 31
0.0
  0
SPLINE
  5
1a3
100
AcDbEntity
  8
0
 62
7
100
AcDbSpline
 70
8
 71
3
 72
8
 73
4
 74
0
 40
0
 40
0
 40
0
 40
0
 40
1
 40
1
 40
1
 40
1
 10
297.282000
 20
327.912000
 30
0.0
 10
297.282000
 20
327.305307
 30
0.0
 10
297.647463
 20
326.758352
 30
0.0
 10
298.207975
 20
326.526180
 30
0.0
  0
SPLINE
  5
1a4
100
AcDbEntity
  8
0
 62
7
100
AcDbSpline
 70
8
 71
3
 72
8
 73
4
 74
0
 40
0
 40
0
 40
0
 40
0
 40
1
 40
1
 40
1
 40
1
 10
298.207975
 20
326.526180
 30
0.0
 10
298.768486
 20
326.294009
 30
0.0
 10
299.413663
 20
326.422343
 30
0.0
 10
299.842660
 20
326.851340
 30
0.0
  0
SPLINE
  5
1a5
100
AcDbEntity
  8
0
 62
7
100
AcDbSpline
 70
8
 71
3
 72
8
 73
4
 74
0
 40
0
 40
0
 40
0
 40
0
 40
1
 40
1
 40
1
 40
1
 10
299.842660
 20
326.851340
 30
0.0
 10
300.271657
 20
327.280337
 30
0.0
 10
300.399991
 20
327.925514
 30
0.0
 10
300.167820
 20
328.486025
 30
0.0
  0
SPLINE
  5
1a6
100
AcDbEntity
  8
0
 62
7
100
AcDbSpline
 70
8
 71
3
 72
8
 73
4
 74
0
 40
0
 40
0
 40
0
 40
0
 40
1
 40
1
 40
1
 40
1
 10
300.167820
 20
328.486025
 30
0.0
 10
299.935648
 20
329.046537
 30
0.0
 10
299.388693
 20
329.412000
 30
0.0
 10
298.782000
 20
329.412000
 30
0.0
  0
SPLINE
  5
1a7
100
AcDbEntity
  8
0
 62
7
100
AcDbSpline
 70
8
 71
3
 72
8
 73
4
 74
0
 40
0
 40
0
 40
0
 40
0
 40
1
 40
1
 40
1
 40
1
 10
298.782000
 20
329.412000
 30
0.0
 10
298.384175
 20
329.412000
 30
0.0
 10
298.002644
 20
329.253965
 30
0.0
 10
297.721340
 20
328.972660
 30
0.0
  0
SPLINE
  5
1a8
100
AcDbEntity
  8
0
 62
7
100
AcDbSpline
 70
8
 71
3
 72
8
 73
4
 74
0
 40
0
 40
0
 40
0
 40
0
 40
1
 40
1
 40
1
 40
1
 10
297.721340
 20
328.972660
 30
0.0
 10
297.440035
 20
328.691356
 30
0.0
 10
297.282000
 20
328.309825
 30
0.0
 10
297.282000
 20
327.912000
 30
0.0
  0
LINE
  5
1a9
100
AcDbEntity
  8
0
 62
7
100
AcDbLine
 10
297.282000
 20
327.912000
 30
0.0
 11
297.282000
 21
327.912000
 31
0.0
  0
LINE
  5
1aa
100
AcDbEntity
  8
0
 62
7
100
AcDbLine
 10
273.782010
 20
333.912010
 30
0.0
 11
293.782010
 21
333.912010
 31
0.0
  0
LINE
  5
1ab
100
AcDbEntity
  8
0
 62
7
100
AcDbLine
 10
293.782010
 20
333.912010
 30
0.0
 11
293.782010
 21
323.912010
 31
0.0
  0
LINE
  5
1ac
100
AcDbEntity
  8
0
 62
7
100
AcDbLine
 10
293.782010
 20
323.912010
 30
0.0
 11
273.782010
 21
323.912010
 31
0.0
  0
LINE
  5
1ad
100
AcDbEntity
  8
0
 62
7
100
AcDbLine
 10
273.782010
 20
323.912010
 30
0.0
 11
273.782010
 21
333.912010
 31
0.0
  0
LINE
  5
1ae
100
AcDbEntity
  8
0
 62
7
100
AcDbLine
 10
318.782000
 20
328.912000
 30
0.0
 11
278.782000
 21
368.912000
 31
0.0
  0
LINE
  5
1af
100
AcDbEntity
  8
0
 62
7
100
AcDbLine
 10
278.782000
 20
368.912000
 30
0.0
 11
318.782000
 21
368.912000
 31
0.0
  0
LINE
  5
1b0
100
AcDbEntity
  8
0
 62
7
100
AcDbLine
 10
318.782000
 20
368.912000
 30
0.0
 11
318.782000
 21
328.912000
 31
0.0
  0
SPLINE
  5
1b1
100
AcDbEntity
  8
0
 62
7
100
AcDbSpline
 70
8
 71
3
 72
8
 73
4
 74
0
 40
0
 40
0
 40
0
 40
0
 40
1
 40
1
 40
1
 40
1
 10
276.282000
 20
348.912000
 30
0.0
 10
276.282000
 20
348.305307
 30
0.0
 10
276.647463
 20
347.758352
 30
0.0
 10
277.207975
 20
347.526180
 30
0.0
  0
SPLINE
  5
1b2
100
AcDbEntity
  8
0
 62
7
100
AcDbSpline
 70
8
 71
3
 72
8
 73
4
 74
0
 40
0
 40
0
 40
0
 40
0
 40
1
 40
1
 40
1
 40
1
 10
277.207975
 20
347.526180
 30
0.0
 10
277.768486
 20
347.294009
 30
0.0
 10
278.413663
 20
347.422343
 30
0.0
 10
278.842660
 20
347.851340
 30
0.0
  0
SPLINE
  5
1b3
100
AcDbEntity
  8
0
 62
7
100
AcDbSpline
 70
8
 71
3
 72
8
 73
4
 74
0
 40
0
 40
0
 40
0
 40
0
 40
1
 40
1
 40
1
 40
1
 10
278.842660
 20
347.851340
 30
0.0
 10
279.271657
 20
348.280337
 30
0.0
 10
279.399991
 20
348.925514
 30
0.0
 10
279.167820
 20
349.486025
 30
0.0
  0
SPLINE
  5
1b4
100
AcDbEntity
  8
0
 62
7
100
AcDbSpline
 70
8
 71
3
 72
8
 73
4
 74
0
 40
0
 40
0
 40
0
 40
0
 40
1
 40
1
 40
1
 40
1
 10
279.167820
 20
349.486025
 30
0.0
 10
278.935648
 20
350.046537
 30
0.0
 10
278.388693
 20
350.412000
 30
0.0
 10
277.782000
 20
350.412000
 30
0.0
  0
SPLINE
  5
1b5
100
AcDbEntity
  8
0
 62
7
100
AcDbSpline
 70
8
 71
3
 72
8
 73
4
 74
0
 40
0
 40
0
 40
0
 40
0
 40
1
 40
1
 40
1
 40
1
 10
277.782000
 20
350.412000
 30
0.0
 10
277.384175
 20
350.412000
 30
0.0
 10
277.002644
 20
350.253965
 30
0.0
 10
276.721340
 20
349.972660
 30
0.0
  0
SPLINE
  5
1b6
100
AcDbEntity
  8
0
 62
7
100
AcDbSpline
 70
8
 71
3
 72
8
 73
4
 74
0
 40
0
 40
0
 40
0
 40
0
 40
1
 40
1
 40
1
 40
1
 10
276.721340
 20
349.972660
 30
0.0
 10
276.440035
 20
349.691356
 30
0.0
 10
276.282000
 20
349.309825
 30
0.0
 10
276.282000
 20
348.912000
 30
0.0
  0
LINE
  5
1b7
100
AcDbEntity
  8
0
 62
7
100
AcDbLine
 10
276.282000
 20
348.912000
 30
0.0
 11
276.282000
 21
348.912000
 31
0.0
  0
LINE
  5
1b8
100
AcDbEntity
  8
0
 62
7
100
AcDbLine
 10
323.564000
 20
363.912000
 30
0.0
 11
362.923600
 21
363.912000
 31
0.0
  0
SPLINE
  5
1b9
100
AcDbEntity
  8
0
 62
7
100
AcDbSpline
 70
8
 71
3
 72
8
 73
4
 74
0
 40
0
 40
0
 40
0
 40
0
 40
1
 40
1
 40
1
 40
1
 10
362.923600
 20
363.912000
 30
0.0
 10
363.275900
 20
363.912000
 30
0.0
 10
363.564000
 20
363.462000
 30
0.0
 10
363.564000
 20
362.912000
 30
0.0
  0
LINE
  5
1ba
100
AcDbEntity
  8
0
 62
7
100
AcDbLine
 10
363.564000
 20
362.912000
 30
0.0
 11
363.564000
 21
323.912000
 31
0.0
  0
LINE
  5
1bb
100
AcDbEntity
  8
0
 62
7
100
AcDbLine
 10
363.564000
 20
323.912000
 30
0.0
 11
323.564000
 21
323.912000
 31
0.0
  0
LINE
  5
1bc
100
AcDbEntity
  8
0
 62
7
100
AcDbLine
 10
323.564000
 20
323.912000
 30
0.0
 11
323.564000
 21
363.912000
 31
0.0
  0
LINE
  5
1bd
100
AcDbEntity
  8
0
 62
7
100
AcDbLine
 10
323.564000
 20
343.912010
 30
0.0
 11
333.564000
 21
343.912010
 31
0.0
  0
LINE
  5
1be
100
AcDbEntity
  8
0
 62
7
100
AcDbLine
 10
333.564000
 20
343.912010
 30
0.0
 11
333.564000
 21
323.912010
 31
0.0
  0
LINE
  5
1bf
100
AcDbEntity
  8
0
 62
7
100
AcDbLine
 10
333.564000
 20
323.912010
 30
0.0
 11
323.564000
 21
323.912010
 31
0.0
  0
LINE
  5
1c0
100
AcDbEntity
  8
0
 62
7
100
AcDbLine
 10
323.564000
 20
323.912010
 30
0.0
 11
323.564000
 21
343.912010
 31
0.0
  0
LINE
  5
1c1
100
AcDbEntity
  8
0
 62
7
100
AcDbLine
 10
353.564000
 20
333.912010
 30
0.0
 11
363.564000
 21
333.912010
 31
0.0
  0
LINE
  5
1c2
100
AcDbEntity
  8
0
 62
7
100
AcDbLine
 10
363.564000
 20
333.912010
 30
0.0
 11
363.564000
 21
323.912010
 31
0.0
  0
LINE
  5
1c3
100
AcDbEntity
  8
0
 62
7
100
AcDbLine
 10
363.564000
 20
323.912010
 30
0.0
 11
353.564000
 21
323.912010
 31
0.0
  0
LINE
  5
1c4
100
AcDbEntity
  8
0
 62
7
100
AcDbLine
 10
353.564000
 20
323.912010
 30
0.0
 11
353.564000
 21
333.912010
 31
0.0
  0
LINE
  5
1c5
100
AcDbEntity
  8
0
 62
7
100
AcDbLine
 10
323.564000
 20
363.912010
 30
0.0
 11
333.564000
 21
363.912010
 31
0.0
  0
LINE
  5
1c6
100
AcDbEntity
  8
0
 62
7
100
AcDbLine
 10
333.564000
 20
363.912010
 30
0.0
 11
333.564000
 21
353.912010
 31
0.0
  0
LINE
  5
1c7
100
AcDbEntity
  8
0
 62
7
100
AcDbLine
 10
333.564000
 20
353.912010
 30
0.0
 11
323.564000
 21
353.912010
 31
0.0
  0
LINE
  5
1c8
100
AcDbEntity
  8
0
 62
7
100
AcDbLine
 10
323.564000
 20
353.912010
 30
0.0
 11
323.564000
 21
363.912010
 31
0.0
  0
SPLINE
  5
1c9
100
AcDbEntity
  8
0
 62
7
100
AcDbSpline
 70
8
 71
3
 72
8
 73
4
 74
0
 40
0
 40
0
 40
0
 40
0
 40
1
 40
1
 40
1
 40
1
 10
347.064000
 20
327.912000
 30
0.0
 10
347.064000
 20
327.305307
 30
0.0
 10
347.429463
 20
326.758352
 30
0.0
 10
347.989975
 20
326.526180
 30
0.0
  0
SPLINE
  5
1ca
100
AcDbEntity
  8
0
 62
7
100
AcDbSpline
 70
8
 71
3
 72
8
 73
4
 74
0
 40
0
 40
0
 40
0
 40
0
 40
1
 40
1
 40
1
 40
1
 10
347.989975
 20
326.526180
 30
0.0
 10
348.550486
 20
326.294009
 30
0.0
 10
349.195663
 20
326.422343
 30
0.0
 10
349.624660
 20
326.851340
 30
0.0
  0
SPLINE
  5
1cb
100
AcDbEntity
  8
0
 62
7
100
AcDbSpline
 70
8
 71
3
 72
8
 73
4
 74
0
 40
0
 40
0
 40
0
 40
0
 40
1
 40
1
 40
1
 40
1
 10
349.624660
 20
326.851340
 30
0.0
 10
350.053657
 20
327.280337
 30
0.0
 10
350.181991
 20
327.925514
 30
0.0
 10
349.949820
 20
328.486025
 30
0.0
  0
SPLINE
  5
1cc
100
AcDbEntity
  8
0
 62
7
100
AcDbSpline
 70
8
 71
3
 72
8
 73
4
 74
0
 40
0
 40
0
 40
0
 40
0
 40
1
 40
1
 40
1
 40
1
 10
349.949820
 20
328.486025
 30
0.0
 10
349.717648
 20
329.046537
 30
0.0
 10
349.170693
 20
329.412000
 30
0.0
 10
348.564000
 20
329.412000
 30
0.0
  0
SPLINE
  5
1cd
100
AcDbEntity
  8
0
 62
7
100
AcDbSpline
 70
8
 71
3
 72
8
 73
4
 74
0
 40
0
 40
0
 40
0
 40
0
 40
1
 40
1
 40
1
 40
1
 10
348.564000
 20
329.412000
 30
0.0
 10
348.166175
 20
329.412000
 30
0.0
 10
347.784644
 20
329.253965
 30
0.0
 10
347.503340
 20
328.972660
 30
0.0
  0
SPLINE
  5
1ce
100
AcDbEntity
  8
0
 62
7
100
AcDbSpline
 70
8
 71
3
 72
8
 73
4
 74
0
 40
0
 40
0
 40
0
 40
0
 40
1
 40
1
 40
1
 40
1
 10
347.503340
 20
328.972660
 30
0.0
 10
347.222035
 20
328.691356
 30
0.0
 10
347.064000
 20
328.309825
 30
0.0
 10
347.064000
 20
327.912000
 30
0.0
  0
LINE
  5
1cf
100
AcDbEntity
  8
0
 62
7
100
AcDbLine
 10
347.064000
 20
327.912000
 30
0.0
 11
347.064000
 21
327.912000
 31
0.0
  0
LINE
  5
1d0
100
AcDbEntity
  8
0
 62
7
100
AcDbLine
 10
323.564000
 20
333.912010
 30
0.0
 11
343.564000
 21
333.912010
 31
0.0
  0
LINE
  5
1d1
100
AcDbEntity
  8
0
 62
7
100
AcDbLine
 10
343.564000
 20
333.912010
 30
0.0
 11
343.564000
 21
323.912010
 31
0.0
  0
LINE
  5
1d2
100
AcDbEntity
  8
0
 62
7
100
AcDbLine
 10
343.564000
 20
323.912010
 30
0.0
 11
323.564000
 21
323.912010
 31
0.0
  0
LINE
  5
1d3
100
AcDbEntity
  8
0
 62
7
100
AcDbLine
 10
323.564000
 20
323.912010
 30
0.0
 11
323.564000
 21
333.912010
 31
0.0
  0
LINE
  5
1d4
100
AcDbEntity
  8
0
 62
7
100
AcDbLine
 10
368.564000
 20
328.912000
 30
0.0
 11
328.564000
 21
368.912000
 31
0.0
  0
LINE
  5
1d5
100
AcDbEntity
  8
0
 62
7
100
AcDbLine
 10
328.564000
 20
368.912000
 30
0.0
 11
368.564000
 21
368.912000
 31
0.0
  0
LINE
  5
1d6
100
AcDbEntity
  8
0
 62
7
100
AcDbLine
 10
368.564000
 20
368.912000
 30
0.0
 11
368.564000
 21
328.912000
 31
0.0
  0
SPLINE
  5
1d7
100
AcDbEntity
  8
0
 62
7
100
AcDbSpline
 70
8
 71
3
 72
8
 73
4
 74
0
 40
0
 40
0
 40
0
 40
0
 40
1
 40
1
 40
1
 40
1
 10
326.064000
 20
348.912000
 30
0.0
 10
326.064000
 20
348.305307
 30
0.0
 10
326.429463
 20
347.758352
 30
0.0
 10
326.989975
 20
347.526180
 30
0.0
  0
SPLINE
  5
1d8
100
AcDbEntity
  8
0
 62
7
100
AcDbSpline
 70
8
 71
3
 72
8
 73
4
 74
0
 40
0
 40
0
 40
0
 40
0
 40
1
 40
1
 40
1
 40
1
 10
326.989975
 20
347.526180
 30
0.0
 10
327.550486
 20
347.294009
 30
0.0
 10
328.195663
 20
347.422343
 30
0.0
 10
328.624660
 20
347.851340
 30
0.0
  0
SPLINE
  5
1d9
100
AcDbEntity
  8
0
 62
7
100
AcDbSpline
 70
8
 71
3
 72
8
 73
4
 74
0
 40
0
 40
0
 40
0
 40
0
 40
1
 40
1
 40
1
 40
1
 10
328.624660
 20
347.851340
 30
0.0
 10
329.053657
 20
348.280337
 30
0.0
 10
329.181991
 20
348.925514
 30
0.0
 10
328.949820
 20
349.486025
 30
0.0
  0
SPLINE
  5
1da
100
AcDbEntity
  8
0
 62
7
100
AcDbSpline
 70
8
 71
3
 72
8
 73
4
 74
0
 40
0
 40
0
 40
0
 40
0
 40
1
 40
1
 40
1
 40
1
 10
328.949820
 20
349.486025
 30
0.0
 10
328.717648
 20
350.046537
 30
0.0
 10
328.170693
 20
350.412000
 30
0.0
 10
327.564000
 20
350.412000
 30
0.0
  0
SPLINE
  5
1db
100
AcDbEntity
  8
0
 62
7
100
AcDbSpline
 70
8
 71
3
 72
8
 73
4
 74
0
 40
0
 40
0
 40
0
 40
0
 40
1
 40
1
 40
1
 40
1
 10
327.564000
 20
350.412000
 30
0.0
 10
327.166175
 20
350.412000
 30
0.0
 10
326.784644
 20
350.253965
 30
0.0
 10
326.503340
 20
349.972660
 30
0.0
  0
SPLINE
  5
1dc
100
AcDbEntity
  8
0
 62
7
100
AcDbSpline
 70
8
 71
3
 72
8
 73
4
 74
0
 40
0
 40
0
 40
0
 40
0
 40
1
 40
1
 40
1
 40
1
 10
326.503340
 20
349.972660
 30
0.0
 10
326.222035
 20
349.691356
 30
0.0
 10
326.064000
 20
349.309825
 30
0.0
 10
326.064000
 20
348.912000
 30
0.0
  0
LINE
  5
1dd
100
AcDbEntity
  8
0
 62
7
100
AcDbLine
 10
326.064000
 20
348.912000
 30
0.0
 11
326.064000
 21
348.912000
 31
0.0
  0
LINE
  5
1de
100
AcDbEntity
  8
0
 62
7
100
AcDbLine
 10
276.140610
 20
317.481010
 30
0.0
 11
381.423410
 21
317.481010
 31
0.0
  0
SPLINE
  5
1df
100
AcDbEntity
  8
0
 62
7
100
AcDbSpline
 70
8
 71
3
 72
8
 73
4
 74
0
 40
0
 40
0
 40
0
 40
0
 40
1
 40
1
 40
1
 40
1
 10
381.423410
 20
317.481010
 30
0.0
 10
382.048950
 20
317.481010
 30
0.0
 10
382.648869
 20
317.232515
 30
0.0
 10
383.091192
 20
316.790192
 30
0.0
  0
SPLINE
  5
1e0
100
AcDbEntity
  8
0
 62
7
100
AcDbSpline
 70
8
 71
3
 72
8
 73
4
 74
0
 40
0
 40
0
 40
0
 40
0
 40
1
 40
1
 40
1
 40
1
 10
383.091192
 20
316.790192
 30
0.0
 10
383.533515
 20
316.347869
 30
0.0
 10
383.782010
 20
315.747950
 30
0.0
 10
383.782010
 20
315.122410
 30
0.0
  0
LINE
  5
1e1
100
AcDbEntity
  8
0
 62
7
100
AcDbLine
 10
383.782010
 20
315.122410
 30
0.0
 11
383.782010
 21
279.839610
 31
0.0
  0
SPLINE
  5
1e2
100
AcDbEntity
  8
0
 62
7
100
AcDbSpline
 70
8
 71
3
 72
8
 73
4
 74
0
 40
0
 40
0
 40
0
 40
0
 40
1
 40
1
 40
1
 40
1
 10
383.782010
 20
279.839610
 30
0.0
 10
383.782010
 20
279.214070
 30
0.0
 10
383.533515
 20
278.614151
 30
0.0
 10
383.091192
 20
278.171828
 30
0.0
  0
SPLINE
  5
1e3
100
AcDbEntity
  8
0
 62
7
100
AcDbSpline
 70
8
 71
3
 72
8
 73
4
 74
0
 40
0
 40
0
 40
0
 40
0
 40
1
 40
1
 40
1
 40
1
 10
383.091192
 20
278.171828
 30
0.0
 10
382.648869
 20
277.729505
 30
0.0
 10
382.048950
 20
277.481010
 30
0.0
 10
381.423410
 20
277.481010
 30
0.0
  0
LINE
  5
1e4
100
AcDbEntity
  8
0
 62
7
100
AcDbLine
 10
381.423410
 20
277.481010
 30
0.0
 11
276.140610
 21
277.481010
 31
0.0
  0
SPLINE
  5
1e5
100
AcDbEntity
  8
0
 62
7
100
AcDbSpline
 70
8
 71
3
 72
8
 73
4
 74
0
 40
0
 40
0
 40
0
 40
0
 40
1
 40
1
 40
1
 40
1
 10
276.140610
 20
277.481010
 30
0.0
 10
275.515070
 20
277.481010
 30
0.0
 10
274.915151
 20
277.729505
 30
0.0
 10
274.472828
 20
278.171828
 30
0.0
  0
SPLINE
  5
1e6
100
AcDbEntity
  8
0
 62
7
100
AcDbSpline
 70
8
 71
3
 72
8
 73
4
 74
0
 40
0
 40
0
 40
0
 40
0
 40
1
 40
1
 40
1
 40
1
 10
274.472828
 20
278.171828
 30
0.0
 10
274.030505
 20
278.614151
 30
0.0
 10
273.782010
 20
279.214070
 30
0.0
 10
273.782010
 20
279.839610
 30
0.0
  0
LINE
  5
1e7
100
AcDbEntity
  8
0
 62
7
100
AcDbLine
 10
273.782010
 20
279.839610
 30
0.0
 11
273.782010
 21
315.122410
 31
0.0
  0
SPLINE
  5
1e8
100
AcDbEntity
  8
0
 62
7
100
AcDbSpline
 70
8
 71
3
 72
8
 73
4
 74
0
 40
0
 40
0
 40
0
 40
0
 40
1
 40
1
 40
1
 40
1
 10
273.782010
 20
315.122410
 30
0.0
 10
273.782010
 20
315.747950
 30
0.0
 10
274.030505
 20
316.347869
 30
0.0
 10
274.472828
 20
316.790192
 30
0.0
  0
SPLINE
  5
1e9
100
AcDbEntity
  8
0
 62
7
100
AcDbSpline
 70
8
 71
3
 72
8
 73
4
 74
0
 40
0
 40
0
 40
0
 40
0
 40
1
 40
1
 40
1
 40
1
 10
274.472828
 20
316.790192
 30
0.0
 10
274.915151
 20
317.232515
 30
0.0
 10
275.515070
 20
317.481010
 30
0.0
 10
276.140610
 20
317.481010
 30
0.0
  0
LINE
  5
1ea
100
AcDbEntity
  8
0
 62
7
100
AcDbLine
 10
276.140610
 20
317.481010
 30
0.0
 11
276.140610
 21
317.481010
 31
0.0
  0
LINE
  5
1eb
100
AcDbEntity
  8
0
 62
7
100
AcDbLine
 10
273.782010
 20
287.481010
 30
0.0
 11
313.782010
 21
287.481010
 31
0.0
  0
LINE
  5
1ec
100
AcDbEntity
  8
0
 62
7
100
AcDbLine
 10
313.782010
 20
287.481010
 30
0.0
 11
313.782010
 21
277.481010
 31
0.0
  0
LINE
  5
1ed
100
AcDbEntity
  8
0
 62
7
100
AcDbLine
 10
313.782010
 20
277.481010
 30
0.0
 11
273.782010
 21
277.481010
 31
0.0
  0
LINE
  5
1ee
100
AcDbEntity
  8
0
 62
7
100
AcDbLine
 10
273.782010
 20
277.481010
 30
0.0
 11
273.782010
 21
287.481010
 31
0.0
  0
SPLINE
  5
1ef
100
AcDbEntity
  8
0
 62
7
100
AcDbSpline
 70
8
 71
3
 72
8
 73
4
 74
0
 40
0
 40
0
 40
0
 40
0
 40
1
 40
1
 40
1
 40
1
 10
320.281010
 20
282.981010
 30
0.0
 10
319.674317
 20
282.981010
 30
0.0
 10
319.127362
 20
282.615547
 30
0.0
 10
318.895191
 20
282.055035
 30
0.0
  0
SPLINE
  5
1f0
100
AcDbEntity
  8
0
 62
7
100
AcDbSpline
 70
8
 71
3
 72
8
 73
4
 74
0
 40
0
 40
0
 40
0
 40
0
 40
1
 40
1
 40
1
 40
1
 10
318.895191
 20
282.055035
 30
0.0
 10
318.663019
 20
281.494524
 30
0.0
 10
318.791353
 20
280.849347
 30
0.0
 10
319.220350
 20
280.420350
 30
0.0
  0
SPLINE
  5
1f1
100
AcDbEntity
  8
0
 62
7
100
AcDbSpline
 70
8
 71
3
 72
8
 73
4
 74
0
 40
0
 40
0
 40
0
 40
0
 40
1
 40
1
 40
1
 40
1
 10
319.220350
 20
280.420350
 30
0.0
 10
319.649347
 20
279.991353
 30
0.0
 10
320.294524
 20
279.863019
 30
0.0
 10
320.855035
 20
280.095191
 30
0.0
  0
SPLINE
  5
1f2
100
AcDbEntity
  8
0
 62
7
100
AcDbSpline
 70
8
 71
3
 72
8
 73
4
 74
0
 40
0
 40
0
 40
0
 40
0
 40
1
 40
1
 40
1
 40
1
 10
320.855035
 20
280.095191
 30
0.0
 10
321.415547
 20
280.327362
 30
0.0
 10
321.781010
 20
280.874317
 30
0.0
 10
321.781010
 20
281.481010
 30
0.0
  0
SPLINE
  5
1f3
100
AcDbEntity
  8
0
 62
7
100
AcDbSpline
 70
8
 71
3
 72
8
 73
4
 74
0
 40
0
 40
0
 40
0
 40
0
 40
1
 40
1
 40
1
 40
1
 10
321.781010
 20
281.481010
 30
0.0
 10
321.781010
 20
281.878835
 30
0.0
 10
321.622975
 20
282.260366
 30
0.0
 10
321.341670
 20
282.541670
 30
0.0
  0
SPLINE
  5
1f4
100
AcDbEntity
  8
0
 62
7
100
AcDbSpline
 70
8
 71
3
 72
8
 73
4
 74
0
 40
0
 40
0
 40
0
 40
0
 40
1
 40
1
 40
1
 40
1
 10
321.341670
 20
282.541670
 30
0.0
 10
321.060366
 20
282.822975
 30
0.0
 10
320.678835
 20
282.981010
 30
0.0
 10
320.281010
 20
282.981010
 30
0.0
  0
LINE
  5
1f5
100
AcDbEntity
  8
0
 62
7
100
AcDbLine
 10
320.281010
 20
282.981010
 30
0.0
 11
320.281010
 21
282.981010
 31
0.0
  0
LINE
  5
1f6
100
AcDbEntity
  8
0
 62
7
100
AcDbLine
 10
343.782010
 20
287.481010
 30
0.0
 11
383.782010
 21
287.481010
 31
0.0
  0
LINE
  5
1f7
100
AcDbEntity
  8
0
 62
7
100
AcDbLine
 10
383.782010
 20
287.481010
 30
0.0
 11
383.782010
 21
277.481010
 31
0.0
  0
LINE
  5
1f8
100
AcDbEntity
  8
0
 62
7
100
AcDbLine
 10
383.782010
 20
277.481010
 30
0.0
 11
343.782010
 21
277.481010
 31
0.0
  0
LINE
  5
1f9
100
AcDbEntity
  8
0
 62
7
100
AcDbLine
 10
343.782010
 20
277.481010
 30
0.0
 11
343.782010
 21
287.481010
 31
0.0
  0
SPLINE
  5
1fa
100
AcDbEntity
  8
0
 62
7
100
AcDbSpline
 70
8
 71
3
 72
8
 73
4
 74
0
 40
0
 40
0
 40
0
 40
0
 40
1
 40
1
 40
1
 40
1
 10
337.281010
 20
282.981010
 30
0.0
 10
336.674317
 20
282.981010
 30
0.0
 10
336.127362
 20
282.615547
 30
0.0
 10
335.895191
 20
282.055035
 30
0.0
  0
SPLINE
  5
1fb
100
AcDbEntity
  8
0
 62
7
100
AcDbSpline
 70
8
 71
3
 72
8
 73
4
 74
0
 40
0
 40
0
 40
0
 40
0
 40
1
 40
1
 40
1
 40
1
 10
335.895191
 20
282.055035
 30
0.0
 10
335.663019
 20
281.494524
 30
0.0
 10
335.791353
 20
280.849347
 30
0.0
 10
336.220350
 20
280.420350
 30
0.0
  0
SPLINE
  5
1fc
100
AcDbEntity
  8
0
 62
7
100
AcDbSpline
 70
8
 71
3
 72
8
 73
4
 74
0
 40
0
 40
0
 40
0
 40
0
 40
1
 40
1
 40
1
 40
1
 10
336.220350
 20
280.420350
 30
0.0
 10
336.649347
 20
279.991353
 30
0.0
 10
337.294524
 20
279.863019
 30
0.0
 10
337.855035
 20
280.095191
 30
0.0
  0
SPLINE
  5
1fd
100
AcDbEntity
  8
0
 62
7
100
AcDbSpline
 70
8
 71
3
 72
8
 73
4
 74
0
 40
0
 40
0
 40
0
 40
0
 40
1
 40
1
 40
1
 40
1
 10
337.855035
 20
280.095191
 30
0.0
 10
338.415547
 20
280.327362
 30
0.0
 10
338.781010
 20
280.874317
 30
0.0
 10
338.781010
 20
281.481010
 30
0.0
  0
SPLINE
  5
1fe
100
AcDbEntity
  8
0
 62
7
100
AcDbSpline
 70
8
 71
3
 72
8
 73
4
 74
0
 40
0
 40
0
 40
0
 40
0
 40
1
 40
1
 40
1
 40
1
 10
338.781010
 20
281.481010
 30
0.0
 10
338.781010
 20
281.878835
 30
0.0
 10
338.622975
 20
282.260366
 30
0.0
 10
338.341670
 20
282.541670
 30
0.0
  0
SPLINE
  5
1ff
100
AcDbEntity
  8
0
 62
7
100
AcDbSpline
 70
8
 71
3
 72
8
 73
4
 74
0
 40
0
 40
0
 40
0
 40
0
 40
1
 40
1
 40
1
 40
1
 10
338.341670
 20
282.541670
 30
0.0
 10
338.060366
 20
282.822975
 30
0.0
 10
337.678835
 20
282.981010
 30
0.0
 10
337.281010
 20
282.981010
 30
0.0
  0
LINE
  5
200
100
AcDbEntity
  8
0
 62
7
100
AcDbLine
 10
337.281010
 20
282.981010
 30
0.0
 11
337.281010
 21
282.981010
 31
0.0
  0
SPLINE
  5
201
100
AcDbEntity
  8
0
 62
7
100
AcDbSpline
 70
8
 71
3
 72
8
 73
4
 74
0
 40
0
 40
0
 40
0
 40
0
 40
1
 40
1
 40
1
 40
1
 10
281.281010
 20
299.981010
 30
0.0
 10
280.269854
 20
299.981010
 30
0.0
 10
279.358264
 20
299.371905
 30
0.0
 10
278.971311
 20
298.437719
 30
0.0
  0
SPLINE
  5
202
100
AcDbEntity
  8
0
 62
7
100
AcDbSpline
 70
8
 71
3
 72
8
 73
4
 74
0
 40
0
 40
0
 40
0
 40
0
 40
1
 40
1
 40
1
 40
1
 10
278.971311
 20
298.437719
 30
0.0
 10
278.584359
 20
297.503533
 30
0.0
 10
278.798248
 20
296.428238
 30
0.0
 10
279.513243
 20
295.713243
 30
0.0
  0
SPLINE
  5
203
100
AcDbEntity
  8
0
 62
7
100
AcDbSpline
 70
8
 71
3
 72
8
 73
4
 74
0
 40
0
 40
0
 40
0
 40
0
 40
1
 40
1
 40
1
 40
1
 10
279.513243
 20
295.713243
 30
0.0
 10
280.228238
 20
294.998248
 30
0.0
 10
281.303533
 20
294.784359
 30
0.0
 10
282.237719
 20
295.171311
 30
0.0
  0
SPLINE
  5
204
100
AcDbEntity
  8
0
 62
7
100
AcDbSpline
 70
8
 71
3
 72
8
 73
4
 74
0
 40
0
 40
0
 40
0
 40
0
 40
1
 40
1
 40
1
 40
1
 10
282.237719
 20
295.171311
 30
0.0
 10
283.171905
 20
295.558264
 30
0.0
 10
283.781010
 20
296.469854
 30
0.0
 10
283.781010
 20
297.481010
 30
0.0
  0
SPLINE
  5
205
100
AcDbEntity
  8
0
 62
7
100
AcDbSpline
 70
8
 71
3
 72
8
 73
4
 74
0
 40
0
 40
0
 40
0
 40
0
 40
1
 40
1
 40
1
 40
1
 10
283.781010
 20
297.481010
 30
0.0
 10
283.781010
 20
298.144051
 30
0.0
 10
283.517618
 20
298.779936
 30
0.0
 10
283.048777
 20
299.248777
 30
0.0
  0
SPLINE
  5
206
100
AcDbEntity
  8
0
 62
7
100
AcDbSpline
 70
8
 71
3
 72
8
 73
4
 74
0
 40
0
 40
0
 40
0
 40
0
 40
1
 40
1
 40
1
 40
1
 10
283.048777
 20
299.248777
 30
0.0
 10
282.579936
 20
299.717618
 30
0.0
 10
281.944051
 20
299.981010
 30
0.0
 10
281.281010
 20
299.981010
 30
0.0
  0
LINE
  5
207
100
AcDbEntity
  8
0
 62
7
100
AcDbLine
 10
281.281010
 20
299.981010
 30
0.0
 11
281.281010
 21
299.981010
 31
0.0
  0
SPLINE
  5
208
100
AcDbEntity
  8
0
 62
7
100
AcDbSpline
 70
8
 71
3
 72
8
 73
4
 74
0
 40
0
 40
0
 40
0
 40
0
 40
1
 40
1
 40
1
 40
1
 10
281.281010
 20
309.981010
 30
0.0
 10
280.269854
 20
309.981010
 30
0.0
 10
279.358264
 20
309.371905
 30
0.0
 10
278.971311
 20
308.437719
 30
0.0
  0
SPLINE
  5
209
100
AcDbEntity
  8
0
 62
7
100
AcDbSpline
 70
8
 71
3
 72
8
 73
4
 74
0
 40
0
 40
0
 40
0
 40
0
 40
1
 40
1
 40
1
 40
1
 10
278.971311
 20
308.437719
 30
0.0
 10
278.584359
 20
307.503533
 30
0.0
 10
278.798248
 20
306.428238
 30
0.0
 10
279.513243
 20
305.713243
 30
0.0
  0
SPLINE
  5
20a
100
AcDbEntity
  8
0
 62
7
100
AcDbSpline
 70
8
 71
3
 72
8
 73
4
 74
0
 40
0
 40
0
 40
0
 40
0
 40
1
 40
1
 40
1
 40
1
 10
279.513243
 20
305.713243
 30
0.0
 10
280.228238
 20
304.998248
 30
0.0
 10
281.303533
 20
304.784359
 30
0.0
 10
282.237719
 20
305.171311
 30
0.0
  0
SPLINE
  5
20b
100
AcDbEntity
  8
0
 62
7
100
AcDbSpline
 70
8
 71
3
 72
8
 73
4
 74
0
 40
0
 40
0
 40
0
 40
0
 40
1
 40
1
 40
1
 40
1
 10
282.237719
 20
305.171311
 30
0.0
 10
283.171905
 20
305.558264
 30
0.0
 10
283.781010
 20
306.469854
 30
0.0
 10
283.781010
 20
307.481010
 30
0.0
  0
SPLINE
  5
20c
100
AcDbEntity
  8
0
 62
7
100
AcDbSpline
 70
8
 71
3
 72
8
 73
4
 74
0
 40
0
 40
0
 40
0
 40
0
 40
1
 40
1
 40
1
 40
1
 10
283.781010
 20
307.481010
 30
0.0
 10
283.781010
 20
308.144051
 30
0.0
 10
283.517618
 20
308.779936
 30
0.0
 10
283.048777
 20
309.248777
 30
0.0
  0
SPLINE
  5
20d
100
AcDbEntity
  8
0
 62
7
100
AcDbSpline
 70
8
 71
3
 72
8
 73
4
 74
0
 40
0
 40
0
 40
0
 40
0
 40
1
 40
1
 40
1
 40
1
 10
283.048777
 20
309.248777
 30
0.0
 10
282.579936
 20
309.717618
 30
0.0
 10
281.944051
 20
309.981010
 30
0.0
 10
281.281010
 20
309.981010
 30
0.0
  0
LINE
  5
20e
100
AcDbEntity
  8
0
 62
7
100
AcDbLine
 10
281.281010
 20
309.981010
 30
0.0
 11
281.281010
 21
309.981010
 31
0.0
  0
SPLINE
  5
20f
100
AcDbEntity
  8
0
 62
7
100
AcDbSpline
 70
8
 71
3
 72
8
 73
4
 74
0
 40
0
 40
0
 40
0
 40
0
 40
1
 40
1
 40
1
 40
1
 10
376.281010
 20
299.981010
 30
0.0
 10
375.269854
 20
299.981010
 30
0.0
 10
374.358264
 20
299.371905
 30
0.0
 10
373.971311
 20
298.437719
 30
0.0
  0
SPLINE
  5
210
100
AcDbEntity
  8
0
 62
7
100
AcDbSpline
 70
8
 71
3
 72
8
 73
4
 74
0
 40
0
 40
0
 40
0
 40
0
 40
1
 40
1
 40
1
 40
1
 10
373.971311
 20
298.437719
 30
0.0
 10
373.584359
 20
297.503533
 30
0.0
 10
373.798248
 20
296.428238
 30
0.0
 10
374.513243
 20
295.713243
 30
0.0
  0
SPLINE
  5
211
100
AcDbEntity
  8
0
 62
7
100
AcDbSpline
 70
8
 71
3
 72
8
 73
4
 74
0
 40
0
 40
0
 40
0
 40
0
 40
1
 40
1
 40
1
 40
1
 10
374.513243
 20
295.713243
 30
0.0
 10
375.228238
 20
294.998248
 30
0.0
 10
376.303533
 20
294.784359
 30
0.0
 10
377.237719
 20
295.171311
 30
0.0
  0
SPLINE
  5
212
100
AcDbEntity
  8
0
 62
7
100
AcDbSpline
 70
8
 71
3
 72
8
 73
4
 74
0
 40
0
 40
0
 40
0
 40
0
 40
1
 40
1
 40
1
 40
1
 10
377.237719
 20
295.171311
 30
0.0
 10
378.171905
 20
295.558264
 30
0.0
 10
378.781010
 20
296.469854
 30
0.0
 10
378.781010
 20
297.481010
 30
0.0
  0
SPLINE
  5
213
100
AcDbEntity
  8
0
 62
7
100
AcDbSpline
 70
8
 71
3
 72
8
 73
4
 74
0
 40
0
 40
0
 40
0
 40
0
 40
1
 40
1
 40
1
 40
1
 10
378.781010
 20
297.481010
 30
0.0
 10
378.781010
 20
298.144051
 30
0.0
 10
378.517618
 20
298.779936
 30
0.0
 10
378.048777
 20
299.248777
 30
0.0
  0
SPLINE
  5
214
100
AcDbEntity
  8
0
 62
7
100
AcDbSpline
 70
8
 71
3
 72
8
 73
4
 74
0
 40
0
 40
0
 40
0
 40
0
 40
1
 40
1
 40
1
 40
1
 10
378.048777
 20
299.248777
 30
0.0
 10
377.579936
 20
299.717618
 30
0.0
 10
376.944051
 20
299.981010
 30
0.0
 10
376.281010
 20
299.981010
 30
0.0
  0
LINE
  5
215
100
AcDbEntity
  8
0
 62
7
100
AcDbLine
 10
376.281010
 20
299.981010
 30
0.0
 11
376.281010
 21
299.981010
 31
0.0
  0
SPLINE
  5
216
100
AcDbEntity
  8
0
 62
7
100
AcDbSpline
 70
8
 71
3
 72
8
 73
4
 74
0
 40
0
 40
0
 40
0
 40
0
 40
1
 40
1
 40
1
 40
1
 10
376.281010
 20
309.981010
 30
0.0
 10
375.269854
 20
309.981010
 30
0.0
 10
374.358264
 20
309.371905
 30
0.0
 10
373.971311
 20
308.437719
 30
0.0
  0
SPLINE
  5
217
100
AcDbEntity
  8
0
 62
7
100
AcDbSpline
 70
8
 71
3
 72
8
 73
4
 74
0
 40
0
 40
0
 40
0
 40
0
 40
1
 40
1
 40
1
 40
1
 10
373.971311
 20
308.437719
 30
0.0
 10
373.584359
 20
307.503533
 30
0.0
 10
373.798248
 20
306.428238
 30
0.0
 10
374.513243
 20
305.713243
 30
0.0
  0
SPLINE
  5
218
100
AcDbEntity
  8
0
 62
7
100
AcDbSpline
 70
8
 71
3
 72
8
 73
4
 74
0
 40
0
 40
0
 40
0
 40
0
 40
1
 40
1
 40
1
 40
1
 10
374.513243
 20
305.713243
 30
0.0
 10
375.228238
 20
304.998248
 30
0.0
 10
376.303533
 20
304.784359
 30
0.0
 10
377.237719
 20
305.171311
 30
0.0
  0
SPLINE
  5
219
100
AcDbEntity
  8
0
 62
7
100
AcDbSpline
 70
8
 71
3
 72
8
 73
4
 74
0
 40
0
 40
0
 40
0
 40
0
 40
1
 40
1
 40
1
 40
1
 10
377.237719
 20
305.171311
 30
0.0
 10
378.171905
 20
305.558264
 30
0.0
 10
378.781010
 20
306.469854
 30
0.0
 10
378.781010
 20
307.481010
 30
0.0
  0
SPLINE
  5
21a
100
AcDbEntity
  8
0
 62
7
100
AcDbSpline
 70
8
 71
3
 72
8
 73
4
 74
0
 40
0
 40
0
 40
0
 40
0
 40
1
 40
1
 40
1
 40
1
 10
378.781010
 20
307.481010
 30
0.0
 10
378.781010
 20
308.144051
 30
0.0
 10
378.517618
 20
308.779936
 30
0.0
 10
378.048777
 20
309.248777
 30
0.0
  0
SPLINE
  5
21b
100
AcDbEntity
  8
0
 62
7
100
AcDbSpline
 70
8
 71
3
 72
8
 73
4
 74
0
 40
0
 40
0
 40
0
 40
0
 40
1
 40
1
 40
1
 40
1
 10
378.048777
 20
309.248777
 30
0.0
 10
377.579936
 20
309.717618
 30
0.0
 10
376.944051
 20
309.981010
 30
0.0
 10
376.281010
 20
309.981010
 30
0.0
  0
LINE
  5
21c
100
AcDbEntity
  8
0
 62
7
100
AcDbLine
 10
376.281010
 20
309.981010
 30
0.0
 11
376.281010
 21
309.981010
 31
0.0
  0
LINE
  5
21d
100
AcDbEntity
  8
0
 62
7
100
AcDbLine
 10
295.781010
 20
307.481010
 30
0.0
 11
298.781010
 21
307.481010
 31
0.0
  0
LINE
  5
21e
100
AcDbEntity
  8
0
 62
7
100
AcDbLine
 10
298.781010
 20
307.481010
 30
0.0
 11
298.781010
 21
297.481010
 31
0.0
  0
LINE
  5
21f
100
AcDbEntity
  8
0
 62
7
100
AcDbLine
 10
298.781010
 20
297.481010
 30
0.0
 11
295.781010
 21
297.481010
 31
0.0
  0
LINE
  5
220
100
AcDbEntity
  8
0
 62
7
100
AcDbLine
 10
295.781010
 20
297.481010
 30
0.0
 11
295.781010
 21
307.481010
 31
0.0
  0
LINE
  5
221
100
AcDbEntity
  8
0
 62
7
100
AcDbLine
 10
358.781010
 20
307.481010
 30
0.0
 11
361.781010
 21
307.481010
 31
0.0
  0
LINE
  5
222
100
AcDbEntity
  8
0
 62
7
100
AcDbLine
 10
361.781010
 20
307.481010
 30
0.0
 11
361.781010
 21
297.481010
 31
0.0
  0
LINE
  5
223
100
AcDbEntity
  8
0
 62
7
100
AcDbLine
 10
361.781010
 20
297.481010
 30
0.0
 11
358.781010
 21
297.481010
 31
0.0
  0
LINE
  5
224
100
AcDbEntity
  8
0
 62
7
100
AcDbLine
 10
358.781010
 20
297.481010
 30
0.0
 11
358.781010
 21
307.481010
 31
0.0
  0
LINE
  5
225
100
AcDbEntity
  8
0
 62
7
100
AcDbLine
 10
595.894170
 20
492.626498
 30
0.0
 11
598.894170
 21
492.626498
 31
0.0
  0
LINE
  5
226
100
AcDbEntity
  8
0
 62
7
100
AcDbLine
 10
598.894170
 20
492.626498
 30
0.0
 11
598.894170
 21
462.626498
 31
0.0
  0
LINE
  5
227
100
AcDbEntity
  8
0
 62
7
100
AcDbLine
 10
598.894170
 20
462.626498
 30
0.0
 11
595.894170
 21
462.626498
 31
0.0
  0
LINE
  5
228
100
AcDbEntity
  8
0
 62
7
100
AcDbLine
 10
595.894170
 20
462.626498
 30
0.0
 11
595.894170
 21
492.626498
 31
0.0
  0
LINE
  5
229
100
AcDbEntity
  8
0
 62
7
100
AcDbLine
 10
575.894170
 20
447.625990
 30
0.0
 11
585.894170
 21
447.625990
 31
0.0
  0
LINE
  5
22a
100
AcDbEntity
  8
0
 62
7
100
AcDbLine
 10
585.894170
 20
447.625990
 30
0.0
 11
585.894170
 21
444.625990
 31
0.0
  0
LINE
  5
22b
100
AcDbEntity
  8
0
 62
7
100
AcDbLine
 10
585.894170
 20
444.625990
 30
0.0
 11
575.894170
 21
444.625990
 31
0.0
  0
LINE
  5
22c
100
AcDbEntity
  8
0
 62
7
100
AcDbLine
 10
575.894170
 20
444.625990
 30
0.0
 11
575.894170
 21
447.625990
 31
0.0
  0
LINE
  5
22d
100
AcDbEntity
  8
0
 62
7
100
AcDbLine
 10
575.894170
 20
510.626498
 30
0.0
 11
585.894170
 21
510.626498
 31
0.0
  0
LINE
  5
22e
100
AcDbEntity
  8
0
 62
7
100
AcDbLine
 10
585.894170
 20
510.626498
 30
0.0
 11
585.894170
 21
507.626498
 31
0.0
  0
LINE
  5
22f
100
AcDbEntity
  8
0
 62
7
100
AcDbLine
 10
585.894170
 20
507.626498
 30
0.0
 11
575.894170
 21
507.626498
 31
0.0
  0
LINE
  5
230
100
AcDbEntity
  8
0
 62
7
100
AcDbLine
 10
575.894170
 20
507.626498
 30
0.0
 11
575.894170
 21
510.626498
 31
0.0
  0
LINE
  5
231
100
AcDbEntity
  8
0
 62
7
100
AcDbLine
 10
253.470210
 20
492.626498
 30
0.0
 11
256.470210
 21
492.626498
 31
0.0
  0
LINE
  5
232
100
AcDbEntity
  8
0
 62
7
100
AcDbLine
 10
256.470210
 20
492.626498
 30
0.0
 11
256.470210
 21
462.626498
 31
0.0
  0
LINE
  5
233
100
AcDbEntity
  8
0
 62
7
100
AcDbLine
 10
256.470210
 20
462.626498
 30
0.0
 11
253.470210
 21
462.626498
 31
0.0
  0
LINE
  5
234
100
AcDbEntity
  8
0
 62
7
100
AcDbLine
 10
253.470210
 20
462.626498
 30
0.0
 11
253.470210
 21
492.626498
 31
0.0
  0
LINE
  5
235
100
AcDbEntity
  8
0
 62
7
100
AcDbLine
 10
266.470210
 20
510.626498
 30
0.0
 11
276.470210
 21
510.626498
 31
0.0
  0
LINE
  5
236
100
AcDbEntity
  8
0
 62
7
100
AcDbLine
 10
276.470210
 20
510.626498
 30
0.0
 11
276.470210
 21
507.626498
 31
0.0
  0
LINE
  5
237
100
AcDbEntity
  8
0
 62
7
100
AcDbLine
 10
276.470210
 20
507.626498
 30
0.0
 11
266.470210
 21
507.626498
 31
0.0
  0
LINE
  5
238
100
AcDbEntity
  8
0
 62
7
100
AcDbLine
 10
266.470210
 20
507.626498
 30
0.0
 11
266.470210
 21
510.626498
 31
0.0
  0
LINE
  5
239
100
AcDbEntity
  8
0
 62
7
100
AcDbLine
 10
266.470210
 20
447.625990
 30
0.0
 11
276.470210
 21
447.625990
 31
0.0
  0
LINE
  5
23a
100
AcDbEntity
  8
0
 62
7
100
AcDbLine
 10
276.470210
 20
447.625990
 30
0.0
 11
276.470210
 21
444.625990
 31
0.0
  0
LINE
  5
23b
100
AcDbEntity
  8
0
 62
7
100
AcDbLine
 10
276.470210
 20
444.625990
 30
0.0
 11
266.470210
 21
444.625990
 31
0.0
  0
LINE
  5
23c
100
AcDbEntity
  8
0
 62
7
100
AcDbLine
 10
266.470210
 20
444.625990
 30
0.0
 11
266.470210
 21
447.625990
 31
0.0
  0
LINE
  5
23d
100
AcDbEntity
  8
0
 62
7
100
AcDbLine
 10
276.140610
 20
274.389000
 30
0.0
 11
381.423410
 21
274.389000
 31
0.0
  0
SPLINE
  5
23e
100
AcDbEntity
  8
0
 62
7
100
AcDbSpline
 70
8
 71
3
 72
8
 73
4
 74
0
 40
0
 40
0
 40
0
 40
0
 40
1
 40
1
 40
1
 40
1
 10
381.423410
 20
274.389000
 30
0.0
 10
382.048950
 20
274.389000
 30
0.0
 10
382.648869
 20
274.140505
 30
0.0
 10
383.091192
 20
273.698182
 30
0.0
  0
SPLINE
  5
23f
100
AcDbEntity
  8
0
 62
7
100
AcDbSpline
 70
8
 71
3
 72
8
 73
4
 74
0
 40
0
 40
0
 40
0
 40
0
 40
1
 40
1
 40
1
 40
1
 10
383.091192
 20
273.698182
 30
0.0
 10
383.533515
 20
273.255859
 30
0.0
 10
383.782010
 20
272.655940
 30
0.0
 10
383.782010
 20
272.030400
 30
0.0
  0
LINE
  5
240
100
AcDbEntity
  8
0
 62
7
100
AcDbLine
 10
383.782010
 20
272.030400
 30
0.0
 11
383.782010
 21
226.747600
 31
0.0
  0
SPLINE
  5
241
100
AcDbEntity
  8
0
 62
7
100
AcDbSpline
 70
8
 71
3
 72
8
 73
4
 74
0
 40
0
 40
0
 40
0
 40
0
 40
1
 40
1
 40
1
 40
1
 10
383.782010
 20
226.747600
 30
0.0
 10
383.782010
 20
226.122060
 30
0.0
 10
383.533515
 20
225.522141
 30
0.0
 10
383.091192
 20
225.079818
 30
0.0
  0
SPLINE
  5
242
100
AcDbEntity
  8
0
 62
7
100
AcDbSpline
 70
8
 71
3
 72
8
 73
4
 74
0
 40
0
 40
0
 40
0
 40
0
 40
1
 40
1
 40
1
 40
1
 10
383.091192
 20
225.079818
 30
0.0
 10
382.648869
 20
224.637495
 30
0.0
 10
382.048950
 20
224.389000
 30
0.0
 10
381.423410
 20
224.389000
 30
0.0
  0
LINE
  5
243
100
AcDbEntity
  8
0
 62
7
100
AcDbLine
 10
381.423410
 20
224.389000
 30
0.0
 11
276.140610
 21
224.389000
 31
0.0
  0
SPLINE
  5
244
100
AcDbEntity
  8
0
 62
7
100
AcDbSpline
 70
8
 71
3
 72
8
 73
4
 74
0
 40
0
 40
0
 40
0
 40
0
 40
1
 40
1
 40
1
 40
1
 10
276.140610
 20
224.389000
 30
0.0
 10
275.515070
 20
224.389000
 30
0.0
 10
274.915151
 20
224.637495
 30
0.0
 10
274.472828
 20
225.079818
 30
0.0
  0
SPLINE
  5
245
100
AcDbEntity
  8
0
 62
7
100
AcDbSpline
 70
8
 71
3
 72
8
 73
4
 74
0
 40
0
 40
0
 40
0
 40
0
 40
1
 40
1
 40
1
 40
1
 10
274.472828
 20
225.079818
 30
0.0
 10
274.030505
 20
225.522141
 30
0.0
 10
273.782010
 20
226.122060
 30
0.0
 10
273.782010
 20
226.747600
 30
0.0
  0
LINE
  5
246
100
AcDbEntity
  8
0
 62
7
100
AcDbLine
 10
273.782010
 20
226.747600
 30
0.0
 11
273.782010
 21
272.030400
 31
0.0
  0
SPLINE
  5
247
100
AcDbEntity
  8
0
 62
7
100
AcDbSpline
 70
8
 71
3
 72
8
 73
4
 74
0
 40
0
 40
0
 40
0
 40
0
 40
1
 40
1
 40
1
 40
1
 10
273.782010
 20
272.030400
 30
0.0
 10
273.782010
 20
272.655940
 30
0.0
 10
274.030505
 20
273.255859
 30
0.0
 10
274.472828
 20
273.698182
 30
0.0
  0
SPLINE
  5
248
100
AcDbEntity
  8
0
 62
7
100
AcDbSpline
 70
8
 71
3
 72
8
 73
4
 74
0
 40
0
 40
0
 40
0
 40
0
 40
1
 40
1
 40
1
 40
1
 10
274.472828
 20
273.698182
 30
0.0
 10
274.915151
 20
274.140505
 30
0.0
 10
275.515070
 20
274.389000
 30
0.0
 10
276.140610
 20
274.389000
 30
0.0
  0
LINE
  5
249
100
AcDbEntity
  8
0
 62
7
100
AcDbLine
 10
276.140610
 20
274.389000
 30
0.0
 11
276.140610
 21
274.389000
 31
0.0
  0
LINE
  5
24a
100
AcDbEntity
  8
0
 62
7
100
AcDbLine
 10
273.782010
 20
234.389000
 30
0.0
 11
313.782010
 21
234.389000
 31
0.0
  0
LINE
  5
24b
100
AcDbEntity
  8
0
 62
7
100
AcDbLine
 10
313.782010
 20
234.389000
 30
0.0
 11
313.782010
 21
224.389000
 31
0.0
  0
LINE
  5
24c
100
AcDbEntity
  8
0
 62
7
100
AcDbLine
 10
313.782010
 20
224.389000
 30
0.0
 11
273.782010
 21
224.389000
 31
0.0
  0
LINE
  5
24d
100
AcDbEntity
  8
0
 62
7
100
AcDbLine
 10
273.782010
 20
224.389000
 30
0.0
 11
273.782010
 21
234.389000
 31
0.0
  0
SPLINE
  5
24e
100
AcDbEntity
  8
0
 62
7
100
AcDbSpline
 70
8
 71
3
 72
8
 73
4
 74
0
 40
0
 40
0
 40
0
 40
0
 40
1
 40
1
 40
1
 40
1
 10
320.281010
 20
229.890000
 30
0.0
 10
319.674317
 20
229.890000
 30
0.0
 10
319.127362
 20
229.524537
 30
0.0
 10
318.895191
 20
228.964025
 30
0.0
  0
SPLINE
  5
24f
100
AcDbEntity
  8
0
 62
7
100
AcDbSpline
 70
8
 71
3
 72
8
 73
4
 74
0
 40
0
 40
0
 40
0
 40
0
 40
1
 40
1
 40
1
 40
1
 10
318.895191
 20
228.964025
 30
0.0
 10
318.663019
 20
228.403514
 30
0.0
 10
318.791353
 20
227.758337
 30
0.0
 10
319.220350
 20
227.329340
 30
0.0
  0
SPLINE
  5
250
100
AcDbEntity
  8
0
 62
7
100
AcDbSpline
 70
8
 71
3
 72
8
 73
4
 74
0
 40
0
 40
0
 40
0
 40
0
 40
1
 40
1
 40
1
 40
1
 10
319.220350
 20
227.329340
 30
0.0
 10
319.649347
 20
226.900343
 30
0.0
 10
320.294524
 20
226.772009
 30
0.0
 10
320.855035
 20
227.004181
 30
0.0
  0
SPLINE
  5
251
100
AcDbEntity
  8
0
 62
7
100
AcDbSpline
 70
8
 71
3
 72
8
 73
4
 74
0
 40
0
 40
0
 40
0
 40
0
 40
1
 40
1
 40
1
 40
1
 10
320.855035
 20
227.004181
 30
0.0
 10
321.415547
 20
227.236352
 30
0.0
 10
321.781010
 20
227.783307
 30
0.0
 10
321.781010
 20
228.390000
 30
0.0
  0
SPLINE
  5
252
100
AcDbEntity
  8
0
 62
7
100
AcDbSpline
 70
8
 71
3
 72
8
 73
4
 74
0
 40
0
 40
0
 40
0
 40
0
 40
1
 40
1
 40
1
 40
1
 10
321.781010
 20
228.390000
 30
0.0
 10
321.781010
 20
228.787825
 30
0.0
 10
321.622975
 20
229.169356
 30
0.0
 10
321.341670
 20
229.450660
 30
0.0
  0
SPLINE
  5
253
100
AcDbEntity
  8
0
 62
7
100
AcDbSpline
 70
8
 71
3
 72
8
 73
4
 74
0
 40
0
 40
0
 40
0
 40
0
 40
1
 40
1
 40
1
 40
1
 10
321.341670
 20
229.450660
 30
0.0
 10
321.060366
 20
229.731965
 30
0.0
 10
320.678835
 20
229.890000
 30
0.0
 10
320.281010
 20
229.890000
 30
0.0
  0
LINE
  5
254
100
AcDbEntity
  8
0
 62
7
100
AcDbLine
 10
320.281010
 20
229.890000
 30
0.0
 11
320.281010
 21
229.890000
 31
0.0
  0
LINE
  5
255
100
AcDbEntity
  8
0
 62
7
100
AcDbLine
 10
343.782010
 20
234.389000
 30
0.0
 11
383.782010
 21
234.389000
 31
0.0
  0
LINE
  5
256
100
AcDbEntity
  8
0
 62
7
100
AcDbLine
 10
383.782010
 20
234.389000
 30
0.0
 11
383.782010
 21
224.389000
 31
0.0
  0
LINE
  5
257
100
AcDbEntity
  8
0
 62
7
100
AcDbLine
 10
383.782010
 20
224.389000
 30
0.0
 11
343.782010
 21
224.389000
 31
0.0
  0
LINE
  5
258
100
AcDbEntity
  8
0
 62
7
100
AcDbLine
 10
343.782010
 20
224.389000
 30
0.0
 11
343.782010
 21
234.389000
 31
0.0
  0
SPLINE
  5
259
100
AcDbEntity
  8
0
 62
7
100
AcDbSpline
 70
8
 71
3
 72
8
 73
4
 74
0
 40
0
 40
0
 40
0
 40
0
 40
1
 40
1
 40
1
 40
1
 10
337.281010
 20
229.890000
 30
0.0
 10
336.674317
 20
229.890000
 30
0.0
 10
336.127362
 20
229.524537
 30
0.0
 10
335.895191
 20
228.964025
 30
0.0
  0
SPLINE
  5
25a
100
AcDbEntity
  8
0
 62
7
100
AcDbSpline
 70
8
 71
3
 72
8
 73
4
 74
0
 40
0
 40
0
 40
0
 40
0
 40
1
 40
1
 40
1
 40
1
 10
335.895191
 20
228.964025
 30
0.0
 10
335.663019
 20
228.403514
 30
0.0
 10
335.791353
 20
227.758337
 30
0.0
 10
336.220350
 20
227.329340
 30
0.0
  0
SPLINE
  5
25b
100
AcDbEntity
  8
0
 62
7
100
AcDbSpline
 70
8
 71
3
 72
8
 73
4
 74
0
 40
0
 40
0
 40
0
 40
0
 40
1
 40
1
 40
1
 40
1
 10
336.220350
 20
227.329340
 30
0.0
 10
336.649347
 20
226.900343
 30
0.0
 10
337.294524
 20
226.772009
 30
0.0
 10
337.855035
 20
227.004181
 30
0.0
  0
SPLINE
  5
25c
100
AcDbEntity
  8
0
 62
7
100
AcDbSpline
 70
8
 71
3
 72
8
 73
4
 74
0
 40
0
 40
0
 40
0
 40
0
 40
1
 40
1
 40
1
 40
1
 10
337.855035
 20
227.004181
 30
0.0
 10
338.415547
 20
227.236352
 30
0.0
 10
338.781010
 20
227.783307
 30
0.0
 10
338.781010
 20
228.390000
 30
0.0
  0
SPLINE
  5
25d
100
AcDbEntity
  8
0
 62
7
100
AcDbSpline
 70
8
 71
3
 72
8
 73
4
 74
0
 40
0
 40
0
 40
0
 40
0
 40
1
 40
1
 40
1
 40
1
 10
338.781010
 20
228.390000
 30
0.0
 10
338.781010
 20
228.787825
 30
0.0
 10
338.622975
 20
229.169356
 30
0.0
 10
338.341670
 20
229.450660
 30
0.0
  0
SPLINE
  5
25e
100
AcDbEntity
  8
0
 62
7
100
AcDbSpline
 70
8
 71
3
 72
8
 73
4
 74
0
 40
0
 40
0
 40
0
 40
0
 40
1
 40
1
 40
1
 40
1
 10
338.341670
 20
229.450660
 30
0.0
 10
338.060366
 20
229.731965
 30
0.0
 10
337.678835
 20
229.890000
 30
0.0
 10
337.281010
 20
229.890000
 30
0.0
  0
LINE
  5
25f
100
AcDbEntity
  8
0
 62
7
100
AcDbLine
 10
337.281010
 20
229.890000
 30
0.0
 11
337.281010
 21
229.890000
 31
0.0
  0
SPLINE
  5
260
100
AcDbEntity
  8
0
 62
7
100
AcDbSpline
 70
8
 71
3
 72
8
 73
4
 74
0
 40
0
 40
0
 40
0
 40
0
 40
1
 40
1
 40
1
 40
1
 10
283.781010
 20
251.889000
 30
0.0
 10
282.769854
 20
251.889000
 30
0.0
 10
281.858264
 20
251.279895
 30
0.0
 10
281.471311
 20
250.345709
 30
0.0
  0
SPLINE
  5
261
100
AcDbEntity
  8
0
 62
7
100
AcDbSpline
 70
8
 71
3
 72
8
 73
4
 74
0
 40
0
 40
0
 40
0
 40
0
 40
1
 40
1
 40
1
 40
1
 10
281.471311
 20
250.345709
 30
0.0
 10
281.084359
 20
249.411523
 30
0.0
 10
281.298248
 20
248.336228
 30
0.0
 10
282.013243
 20
247.621233
 30
0.0
  0
SPLINE
  5
262
100
AcDbEntity
  8
0
 62
7
100
AcDbSpline
 70
8
 71
3
 72
8
 73
4
 74
0
 40
0
 40
0
 40
0
 40
0
 40
1
 40
1
 40
1
 40
1
 10
282.013243
 20
247.621233
 30
0.0
 10
282.728238
 20
246.906238
 30
0.0
 10
283.803533
 20
246.692349
 30
0.0
 10
284.737719
 20
247.079301
 30
0.0
  0
SPLINE
  5
263
100
AcDbEntity
  8
0
 62
7
100
AcDbSpline
 70
8
 71
3
 72
8
 73
4
 74
0
 40
0
 40
0
 40
0
 40
0
 40
1
 40
1
 40
1
 40
1
 10
284.737719
 20
247.079301
 30
0.0
 10
285.671905
 20
247.466254
 30
0.0
 10
286.281010
 20
248.377844
 30
0.0
 10
286.281010
 20
249.389000
 30
0.0
  0
SPLINE
  5
264
100
AcDbEntity
  8
0
 62
7
100
AcDbSpline
 70
8
 71
3
 72
8
 73
4
 74
0
 40
0
 40
0
 40
0
 40
0
 40
1
 40
1
 40
1
 40
1
 10
286.281010
 20
249.389000
 30
0.0
 10
286.281010
 20
250.052041
 30
0.0
 10
286.017618
 20
250.687926
 30
0.0
 10
285.548777
 20
251.156767
 30
0.0
  0
SPLINE
  5
265
100
AcDbEntity
  8
0
 62
7
100
AcDbSpline
 70
8
 71
3
 72
8
 73
4
 74
0
 40
0
 40
0
 40
0
 40
0
 40
1
 40
1
 40
1
 40
1
 10
285.548777
 20
251.156767
 30
0.0
 10
285.079936
 20
251.625608
 30
0.0
 10
284.444051
 20
251.889000
 30
0.0
 10
283.781010
 20
251.889000
 30
0.0
  0
LINE
  5
266
100
AcDbEntity
  8
0
 62
7
100
AcDbLine
 10
283.781010
 20
251.889000
 30
0.0
 11
283.781010
 21
251.889000
 31
0.0
  0
SPLINE
  5
267
100
AcDbEntity
  8
0
 62
7
100
AcDbSpline
 70
8
 71
3
 72
8
 73
4
 74
0
 40
0
 40
0
 40
0
 40
0
 40
1
 40
1
 40
1
 40
1
 10
283.781010
 20
264.390000
 30
0.0
 10
281.758699
 20
264.390000
 30
0.0
 10
279.935517
 20
263.171789
 30
0.0
 10
279.161612
 20
261.303417
 30
0.0
  0
SPLINE
  5
268
100
AcDbEntity
  8
0
 62
7
100
AcDbSpline
 70
8
 71
3
 72
8
 73
4
 74
0
 40
0
 40
0
 40
0
 40
0
 40
1
 40
1
 40
1
 40
1
 10
279.161612
 20
261.303417
 30
0.0
 10
278.387707
 20
259.435045
 30
0.0
 10
278.815486
 20
257.284456
 30
0.0
 10
280.245476
 20
255.854466
 30
0.0
  0
SPLINE
  5
269
100
AcDbEntity
  8
0
 62
7
100
AcDbSpline
 70
8
 71
3
 72
8
 73
4
 74
0
 40
0
 40
0
 40
0
 40
0
 40
1
 40
1
 40
1
 40
1
 10
280.245476
 20
255.854466
 30
0.0
 10
281.675466
 20
254.424476
 30
0.0
 10
283.826055
 20
253.996697
 30
0.0
 10
285.694427
 20
254.770602
 30
0.0
  0
SPLINE
  5
26a
100
AcDbEntity
  8
0
 62
7
100
AcDbSpline
 70
8
 71
3
 72
8
 73
4
 74
0
 40
0
 40
0
 40
0
 40
0
 40
1
 40
1
 40
1
 40
1
 10
285.694427
 20
254.770602
 30
0.0
 10
287.562799
 20
255.544507
 30
0.0
 10
288.781010
 20
257.367689
 30
0.0
 10
288.781010
 20
259.390000
 30
0.0
  0
SPLINE
  5
26b
100
AcDbEntity
  8
0
 62
7
100
AcDbSpline
 70
8
 71
3
 72
8
 73
4
 74
0
 40
0
 40
0
 40
0
 40
0
 40
1
 40
1
 40
1
 40
1
 10
288.781010
 20
259.390000
 30
0.0
 10
288.781010
 20
260.716082
 30
0.0
 10
288.254226
 20
261.987852
 30
0.0
 10
287.316544
 20
262.925534
 30
0.0
  0
SPLINE
  5
26c
100
AcDbEntity
  8
0
 62
7
100
AcDbSpline
 70
8
 71
3
 72
8
 73
4
 74
0
 40
0
 40
0
 40
0
 40
0
 40
1
 40
1
 40
1
 40
1
 10
287.316544
 20
262.925534
 30
0.0
 10
286.378862
 20
263.863216
 30
0.0
 10
285.107092
 20
264.390000
 30
0.0
 10
283.781010
 20
264.390000
 30
0.0
  0
LINE
  5
26d
100
AcDbEntity
  8
0
 62
7
100
AcDbLine
 10
283.781010
 20
264.390000
 30
0.0
 11
283.781010
 21
264.390000
 31
0.0
  0
LINE
  5
26e
100
AcDbEntity
  8
0
 62
7
100
AcDbLine
 10
295.781010
 20
254.390000
 30
0.0
 11
298.781010
 21
254.390000
 31
0.0
  0
LINE
  5
26f
100
AcDbEntity
  8
0
 62
7
100
AcDbLine
 10
298.781010
 20
254.390000
 30
0.0
 11
298.781010
 21
244.390000
 31
0.0
  0
LINE
  5
270
100
AcDbEntity
  8
0
 62
7
100
AcDbLine
 10
298.781010
 20
244.390000
 30
0.0
 11
295.781010
 21
244.390000
 31
0.0
  0
LINE
  5
271
100
AcDbEntity
  8
0
 62
7
100
AcDbLine
 10
295.781010
 20
244.390000
 30
0.0
 11
295.781010
 21
254.390000
 31
0.0
  0
LINE
  5
272
100
AcDbEntity
  8
0
 62
7
100
AcDbLine
 10
358.781010
 20
254.390000
 30
0.0
 11
361.781010
 21
254.390000
 31
0.0
  0
LINE
  5
273
100
AcDbEntity
  8
0
 62
7
100
AcDbLine
 10
361.781010
 20
254.390000
 30
0.0
 11
361.781010
 21
244.390000
 31
0.0
  0
LINE
  5
274
100
AcDbEntity
  8
0
 62
7
100
AcDbLine
 10
361.781010
 20
244.390000
 30
0.0
 11
358.781010
 21
244.390000
 31
0.0
  0
LINE
  5
275
100
AcDbEntity
  8
0
 62
7
100
AcDbLine
 10
358.781010
 20
244.390000
 30
0.0
 11
358.781010
 21
254.390000
 31
0.0
  0
SPLINE
  5
276
100
AcDbEntity
  8
0
 62
7
100
AcDbSpline
 70
8
 71
3
 72
8
 73
4
 74
0
 40
0
 40
0
 40
0
 40
0
 40
1
 40
1
 40
1
 40
1
 10
373.781010
 20
251.889000
 30
0.0
 10
372.769854
 20
251.889000
 30
0.0
 10
371.858264
 20
251.279895
 30
0.0
 10
371.471311
 20
250.345709
 30
0.0
  0
SPLINE
  5
277
100
AcDbEntity
  8
0
 62
7
100
AcDbSpline
 70
8
 71
3
 72
8
 73
4
 74
0
 40
0
 40
0
 40
0
 40
0
 40
1
 40
1
 40
1
 40
1
 10
371.471311
 20
250.345709
 30
0.0
 10
371.084359
 20
249.411523
 30
0.0
 10
371.298248
 20
248.336228
 30
0.0
 10
372.013243
 20
247.621233
 30
0.0
  0
SPLINE
  5
278
100
AcDbEntity
  8
0
 62
7
100
AcDbSpline
 70
8
 71
3
 72
8
 73
4
 74
0
 40
0
 40
0
 40
0
 40
0
 40
1
 40
1
 40
1
 40
1
 10
372.013243
 20
247.621233
 30
0.0
 10
372.728238
 20
246.906238
 30
0.0
 10
373.803533
 20
246.692349
 30
0.0
 10
374.737719
 20
247.079301
 30
0.0
  0
SPLINE
  5
279
100
AcDbEntity
  8
0
 62
7
100
AcDbSpline
 70
8
 71
3
 72
8
 73
4
 74
0
 40
0
 40
0
 40
0
 40
0
 40
1
 40
1
 40
1
 40
1
 10
374.737719
 20
247.079301
 30
0.0
 10
375.671905
 20
247.466254
 30
0.0
 10
376.281010
 20
248.377844
 30
0.0
 10
376.281010
 20
249.389000
 30
0.0
  0
SPLINE
  5
27a
100
AcDbEntity
  8
0
 62
7
100
AcDbSpline
 70
8
 71
3
 72
8
 73
4
 74
0
 40
0
 40
0
 40
0
 40
0
 40
1
 40
1
 40
1
 40
1
 10
376.281010
 20
249.389000
 30
0.0
 10
376.281010
 20
250.052041
 30
0.0
 10
376.017618
 20
250.687926
 30
0.0
 10
375.548777
 20
251.156767
 30
0.0
  0
SPLINE
  5
27b
100
AcDbEntity
  8
0
 62
7
100
AcDbSpline
 70
8
 71
3
 72
8
 73
4
 74
0
 40
0
 40
0
 40
0
 40
0
 40
1
 40
1
 40
1
 40
1
 10
375.548777
 20
251.156767
 30
0.0
 10
375.079936
 20
251.625608
 30
0.0
 10
374.444051
 20
251.889000
 30
0.0
 10
373.781010
 20
251.889000
 30
0.0
  0
LINE
  5
27c
100
AcDbEntity
  8
0
 62
7
100
AcDbLine
 10
373.781010
 20
251.889000
 30
0.0
 11
373.781010
 21
251.889000
 31
0.0
  0
SPLINE
  5
27d
100
AcDbEntity
  8
0
 62
7
100
AcDbSpline
 70
8
 71
3
 72
8
 73
4
 74
0
 40
0
 40
0
 40
0
 40
0
 40
1
 40
1
 40
1
 40
1
 10
373.781010
 20
264.390000
 30
0.0
 10
371.758699
 20
264.390000
 30
0.0
 10
369.935517
 20
263.171789
 30
0.0
 10
369.161612
 20
261.303417
 30
0.0
  0
SPLINE
  5
27e
100
AcDbEntity
  8
0
 62
7
100
AcDbSpline
 70
8
 71
3
 72
8
 73
4
 74
0
 40
0
 40
0
 40
0
 40
0
 40
1
 40
1
 40
1
 40
1
 10
369.161612
 20
261.303417
 30
0.0
 10
368.387707
 20
259.435045
 30
0.0
 10
368.815486
 20
257.284456
 30
0.0
 10
370.245476
 20
255.854466
 30
0.0
  0
SPLINE
  5
27f
100
AcDbEntity
  8
0
 62
7
100
AcDbSpline
 70
8
 71
3
 72
8
 73
4
 74
0
 40
0
 40
0
 40
0
 40
0
 40
1
 40
1
 40
1
 40
1
 10
370.245476
 20
255.854466
 30
0.0
 10
371.675466
 20
254.424476
 30
0.0
 10
373.826055
 20
253.996697
 30
0.0
 10
375.694427
 20
254.770602
 30
0.0
  0
SPLINE
  5
280
100
AcDbEntity
  8
0
 62
7
100
AcDbSpline
 70
8
 71
3
 72
8
 73
4
 74
0
 40
0
 40
0
 40
0
 40
0
 40
1
 40
1
 40
1
 40
1
 10
375.694427
 20
254.770602
 30
0.0
 10
377.562799
 20
255.544507
 30
0.0
 10
378.781010
 20
257.367689
 30
0.0
 10
378.781010
 20
259.390000
 30
0.0
  0
SPLINE
  5
281
100
AcDbEntity
  8
0
 62
7
100
AcDbSpline
 70
8
 71
3
 72
8
 73
4
 74
0
 40
0
 40
0
 40
0
 40
0
 40
1
 40
1
 40
1
 40
1
 10
378.781010
 20
259.390000
 30
0.0
 10
378.781010
 20
260.716082
 30
0.0
 10
378.254226
 20
261.987852
 30
0.0
 10
377.316544
 20
262.925534
 30
0.0
  0
SPLINE
  5
282
100
AcDbEntity
  8
0
 62
7
100
AcDbSpline
 70
8
 71
3
 72
8
 73
4
 74
0
 40
0
 40
0
 40
0
 40
0
 40
1
 40
1
 40
1
 40
1
 10
377.316544
 20
262.925534
 30
0.0
 10
376.378862
 20
263.863216
 30
0.0
 10
375.107092
 20
264.390000
 30
0.0
 10
373.781010
 20
264.390000
 30
0.0
  0
LINE
  5
283
100
AcDbEntity
  8
0
 62
7
100
AcDbLine
 10
373.781010
 20
264.390000
 30
0.0
 11
373.781010
 21
264.390000
 31
0.0
  0
LINE
  5
284
100
AcDbEntity
  8
0
 62
7
100
AcDbLine
 10
319.105910
 20
237.390000
 30
0.0
 11
338.458110
 21
237.390000
 31
0.0
  0
SPLINE
  5
285
100
AcDbEntity
  8
0
 62
7
100
AcDbSpline
 70
8
 71
3
 72
8
 73
4
 74
0
 40
0
 40
0
 40
0
 40
0
 40
1
 40
1
 40
1
 40
1
 10
338.458110
 20
237.390000
 30
0.0
 10
338.544014
 20
237.390000
 30
0.0
 10
338.626399
 20
237.355875
 30
0.0
 10
338.687142
 20
237.295132
 30
0.0
  0
SPLINE
  5
286
100
AcDbEntity
  8
0
 62
7
100
AcDbSpline
 70
8
 71
3
 72
8
 73
4
 74
0
 40
0
 40
0
 40
0
 40
0
 40
1
 40
1
 40
1
 40
1
 10
338.687142
 20
237.295132
 30
0.0
 10
338.747885
 20
237.234389
 30
0.0
 10
338.782010
 20
237.152004
 30
0.0
 10
338.782010
 20
237.066100
 30
0.0
  0
LINE
  5
287
100
AcDbEntity
  8
0
 62
7
100
AcDbLine
 10
338.782010
 20
237.066100
 30
0.0
 11
338.782010
 21
234.713900
 31
0.0
  0
SPLINE
  5
288
100
AcDbEntity
  8
0
 62
7
100
AcDbSpline
 70
8
 71
3
 72
8
 73
4
 74
0
 40
0
 40
0
 40
0
 40
0
 40
1
 40
1
 40
1
 40
1
 10
338.782010
 20
234.713900
 30
0.0
 10
338.782010
 20
234.627996
 30
0.0
 10
338.747885
 20
234.545611
 30
0.0
 10
338.687142
 20
234.484868
 30
0.0
  0
SPLINE
  5
289
100
AcDbEntity
  8
0
 62
7
100
AcDbSpline
 70
8
 71
3
 72
8
 73
4
 74
0
 40
0
 40
0
 40
0
 40
0
 40
1
 40
1
 40
1
 40
1
 10
338.687142
 20
234.484868
 30
0.0
 10
338.626399
 20
234.424125
 30
0.0
 10
338.544014
 20
234.390000
 30
0.0
 10
338.458110
 20
234.390000
 30
0.0
  0
LINE
  5
28a
100
AcDbEntity
  8
0
 62
7
100
AcDbLine
 10
338.458110
 20
234.390000
 30
0.0
 11
319.105910
 21
234.390000
 31
0.0
  0
SPLINE
  5
28b
100
AcDbEntity
  8
0
 62
7
100
AcDbSpline
 70
8
 71
3
 72
8
 73
4
 74
0
 40
0
 40
0
 40
0
 40
0
 40
1
 40
1
 40
1
 40
1
 10
319.105910
 20
234.390000
 30
0.0
 10
318.927025
 20
234.390000
 30
0.0
 10
318.782010
 20
234.535015
 30
0.0
 10
318.782010
 20
234.713900
 30
0.0
  0
LINE
  5
28c
100
AcDbEntity
  8
0
 62
7
100
AcDbLine
 10
318.782010
 20
234.713900
 30
0.0
 11
318.782010
 21
237.066100
 31
0.0
  0
SPLINE
  5
28d
100
AcDbEntity
  8
0
 62
7
100
AcDbSpline
 70
8
 71
3
 72
8
 73
4
 74
0
 40
0
 40
0
 40
0
 40
0
 40
1
 40
1
 40
1
 40
1
 10
318.782010
 20
237.066100
 30
0.0
 10
318.782010
 20
237.244985
 30
0.0
 10
318.927025
 20
237.390000
 30
0.0
 10
319.105910
 20
237.390000
 30
0.0
  0
LINE
  5
28e
100
AcDbEntity
  8
0
 62
7
100
AcDbLine
 10
319.105910
 20
237.390000
 30
0.0
 11
319.105910
 21
237.390000
 31
0.0
  0
LINE
  5
28f
100
AcDbEntity
  8
0
 62
7
100
AcDbLine
 10
302.281010
 20
247.266006
 30
0.0
 11
302.281010
 21
266.513925
 31
0.0
  0
SPLINE
  5
290
100
AcDbEntity
  8
0
 62
7
100
AcDbSpline
 70
8
 71
3
 72
8
 73
4
 74
0
 40
0
 40
0
 40
0
 40
0
 40
1
 40
1
 40
1
 40
1
 10
302.281010
 20
266.513925
 30
0.0
 10
302.281010
 20
266.721587
 30
0.0
 10
302.348169
 20
266.889931
 30
0.0
 10
302.431015
 20
266.889931
 30
0.0
  0
LINE
  5
291
100
AcDbEntity
  8
0
 62
7
100
AcDbLine
 10
302.431015
 20
266.889931
 30
0.0
 11
305.131004
 21
266.889931
 31
0.0
  0
SPLINE
  5
292
100
AcDbEntity
  8
0
 62
7
100
AcDbSpline
 70
8
 71
3
 72
8
 73
4
 74
0
 40
0
 40
0
 40
0
 40
0
 40
1
 40
1
 40
1
 40
1
 10
305.131004
 20
266.889931
 30
0.0
 10
305.213849
 20
266.889931
 30
0.0
 10
305.281009
 20
266.721587
 30
0.0
 10
305.281009
 20
266.513925
 30
0.0
  0
LINE
  5
293
100
AcDbEntity
  8
0
 62
7
100
AcDbLine
 10
305.281009
 20
266.513925
 30
0.0
 11
305.281009
 21
247.266006
 31
0.0
  0
SPLINE
  5
294
100
AcDbEntity
  8
0
 62
7
100
AcDbSpline
 70
8
 71
3
 72
8
 73
4
 74
0
 40
0
 40
0
 40
0
 40
0
 40
1
 40
1
 40
1
 40
1
 10
305.281009
 20
247.266006
 30
0.0
 10
305.281009
 20
247.058344
 30
0.0
 10
305.213849
 20
246.890000
 30
0.0
 10
305.131004
 20
246.890000
 30
0.0
  0
LINE
  5
295
100
AcDbEntity
  8
0
 62
7
100
AcDbLine
 10
305.131004
 20
246.890000
 30
0.0
 11
302.431015
 21
246.890000
 31
0.0
  0
SPLINE
  5
296
100
AcDbEntity
  8
0
 62
7
100
AcDbSpline
 70
8
 71
3
 72
8
 73
4
 74
0
 40
0
 40
0
 40
0
 40
0
 40
1
 40
1
 40
1
 40
1
 10
302.431015
 20
246.890000
 30
0.0
 10
302.348169
 20
246.890000
 30
0.0
 10
302.281010
 20
247.058344
 30
0.0
 10
302.281010
 20
247.266006
 30
0.0
  0
LINE
  5
297
100
AcDbEntity
  8
0
 62
7
100
AcDbLine
 10
302.281010
 20
247.266006
 30
0.0
 11
302.281010
 21
247.266006
 31
0.0
  0
LINE
  5
298
100
AcDbEntity
  8
0
 62
7
100
AcDbLine
 10
352.281010
 20
247.266006
 30
0.0
 11
352.281010
 21
266.513925
 31
0.0
  0
SPLINE
  5
299
100
AcDbEntity
  8
0
 62
7
100
AcDbSpline
 70
8
 71
3
 72
8
 73
4
 74
0
 40
0
 40
0
 40
0
 40
0
 40
1
 40
1
 40
1
 40
1
 10
352.281010
 20
266.513925
 30
0.0
 10
352.281010
 20
266.721587
 30
0.0
 10
352.348169
 20
266.889931
 30
0.0
 10
352.431015
 20
266.889931
 30
0.0
  0
LINE
  5
29a
100
AcDbEntity
  8
0
 62
7
100
AcDbLine
 10
352.431015
 20
266.889931
 30
0.0
 11
355.131004
 21
266.889931
 31
0.0
  0
SPLINE
  5
29b
100
AcDbEntity
  8
0
 62
7
100
AcDbSpline
 70
8
 71
3
 72
8
 73
4
 74
0
 40
0
 40
0
 40
0
 40
0
 40
1
 40
1
 40
1
 40
1
 10
355.131004
 20
266.889931
 30
0.0
 10
355.213849
 20
266.889931
 30
0.0
 10
355.281009
 20
266.721587
 30
0.0
 10
355.281009
 20
266.513925
 30
0.0
  0
LINE
  5
29c
100
AcDbEntity
  8
0
 62
7
100
AcDbLine
 10
355.281009
 20
266.513925
 30
0.0
 11
355.281009
 21
247.266006
 31
0.0
  0
SPLINE
  5
29d
100
AcDbEntity
  8
0
 62
7
100
AcDbSpline
 70
8
 71
3
 72
8
 73
4
 74
0
 40
0
 40
0
 40
0
 40
0
 40
1
 40
1
 40
1
 40
1
 10
355.281009
 20
247.266006
 30
0.0
 10
355.281009
 20
247.058344
 30
0.0
 10
355.213849
 20
246.890000
 30
0.0
 10
355.131004
 20
246.890000
 30
0.0
  0
LINE
  5
29e
100
AcDbEntity
  8
0
 62
7
100
AcDbLine
 10
355.131004
 20
246.890000
 30
0.0
 11
352.431015
 21
246.890000
 31
0.0
  0
SPLINE
  5
29f
100
AcDbEntity
  8
0
 62
7
100
AcDbSpline
 70
8
 71
3
 72
8
 73
4
 74
0
 40
0
 40
0
 40
0
 40
0
 40
1
 40
1
 40
1
 40
1
 10
352.431015
 20
246.890000
 30
0.0
 10
352.348169
 20
246.890000
 30
0.0
 10
352.281010
 20
247.058344
 30
0.0
 10
352.281010
 20
247.266006
 30
0.0
  0
LINE
  5
2a0
100
AcDbEntity
  8
0
 62
7
100
AcDbLine
 10
352.281010
 20
247.266006
 30
0.0
 11
352.281010
 21
247.266006
 31
0.0
  0
LINE
  5
2a1
100
AcDbEntity
  8
0
 62
7
100
AcDbLine
 10
340.713000
 20
270.323000
 30
0.0
 11
340.713000
 21
245.323011
 31
0.0
  0
LINE
  5
2a2
100
AcDbEntity
  8
0
 62
7
100
AcDbLine
 10
340.713000
 20
245.323011
 30
0.0
 11
316.851005
 21
245.323011
 31
0.0
  0
LINE
  5
2a3
100
AcDbEntity
  8
0
 62
7
100
AcDbLine
 10
316.851005
 20
245.323011
 30
0.0
 11
316.851005
 21
270.323000
 31
0.0
  0
LINE
  5
2a4
100
AcDbEntity
  8
0
 62
7
100
AcDbLine
 10
316.851005
 20
270.323000
 30
0.0
 11
340.713000
 21
270.323000
 31
0.0
  0
SPLINE
  5
2a5
100
AcDbEntity
  8
0
 62
7
100
AcDbSpline
 70
8
 71
3
 72
8
 73
4
 74
0
 40
0
 40
0
 40
0
 40
0
 40
1
 40
1
 40
1
 40
1
 10
319.950999
 20
247.323000
 30
0.0
 10
319.950999
 20
247.767908
 30
0.0
 10
319.682993
 20
248.169007
 30
0.0
 10
319.271951
 20
248.339266
 30
0.0
  0
SPLINE
  5
2a6
100
AcDbEntity
  8
0
 62
7
100
AcDbSpline
 70
8
 71
3
 72
8
 73
4
 74
0
 40
0
 40
0
 40
0
 40
0
 40
1
 40
1
 40
1
 40
1
 10
319.271951
 20
248.339266
 30
0.0
 10
318.860910
 20
248.509525
 30
0.0
 10
318.387781
 20
248.415414
 30
0.0
 10
318.073183
 20
248.100817
 30
0.0
  0
SPLINE
  5
2a7
100
AcDbEntity
  8
0
 62
7
100
AcDbSpline
 70
8
 71
3
 72
8
 73
4
 74
0
 40
0
 40
0
 40
0
 40
0
 40
1
 40
1
 40
1
 40
1
 10
318.073183
 20
248.100817
 30
0.0
 10
317.758586
 20
247.786219
 30
0.0
 10
317.664475
 20
247.313090
 30
0.0
 10
317.834734
 20
246.902049
 30
0.0
  0
SPLINE
  5
2a8
100
AcDbEntity
  8
0
 62
7
100
AcDbSpline
 70
8
 71
3
 72
8
 73
4
 74
0
 40
0
 40
0
 40
0
 40
0
 40
1
 40
1
 40
1
 40
1
 10
317.834734
 20
246.902049
 30
0.0
 10
318.004993
 20
246.491007
 30
0.0
 10
318.406092
 20
246.223001
 30
0.0
 10
318.851000
 20
246.223001
 30
0.0
  0
SPLINE
  5
2a9
100
AcDbEntity
  8
0
 62
7
100
AcDbSpline
 70
8
 71
3
 72
8
 73
4
 74
0
 40
0
 40
0
 40
0
 40
0
 40
1
 40
1
 40
1
 40
1
 10
318.851000
 20
246.223001
 30
0.0
 10
319.142738
 20
246.223001
 30
0.0
 10
319.422527
 20
246.338894
 30
0.0
 10
319.628817
 20
246.545183
 30
0.0
  0
SPLINE
  5
2aa
100
AcDbEntity
  8
0
 62
7
100
AcDbSpline
 70
8
 71
3
 72
8
 73
4
 74
0
 40
0
 40
0
 40
0
 40
0
 40
1
 40
1
 40
1
 40
1
 10
319.628817
 20
246.545183
 30
0.0
 10
319.835106
 20
246.751473
 30
0.0
 10
319.950999
 20
247.031262
 30
0.0
 10
319.950999
 20
247.323000
 30
0.0
  0
LINE
  5
2ab
100
AcDbEntity
  8
0
 62
7
100
AcDbLine
 10
319.950999
 20
247.323000
 30
0.0
 11
319.950999
 21
247.323000
 31
0.0
  0
SPLINE
  5
2ac
100
AcDbEntity
  8
0
 62
7
100
AcDbSpline
 70
8
 71
3
 72
8
 73
4
 74
0
 40
0
 40
0
 40
0
 40
0
 40
1
 40
1
 40
1
 40
1
 10
332.450999
 20
247.323000
 30
0.0
 10
332.450999
 20
247.767908
 30
0.0
 10
332.182993
 20
248.169007
 30
0.0
 10
331.771951
 20
248.339266
 30
0.0
  0
SPLINE
  5
2ad
100
AcDbEntity
  8
0
 62
7
100
AcDbSpline
 70
8
 71
3
 72
8
 73
4
 74
0
 40
0
 40
0
 40
0
 40
0
 40
1
 40
1
 40
1
 40
1
 10
331.771951
 20
248.339266
 30
0.0
 10
331.360910
 20
248.509525
 30
0.0
 10
330.887781
 20
248.415414
 30
0.0
 10
330.573183
 20
248.100817
 30
0.0
  0
SPLINE
  5
2ae
100
AcDbEntity
  8
0
 62
7
100
AcDbSpline
 70
8
 71
3
 72
8
 73
4
 74
0
 40
0
 40
0
 40
0
 40
0
 40
1
 40
1
 40
1
 40
1
 10
330.573183
 20
248.100817
 30
0.0
 10
330.258586
 20
247.786219
 30
0.0
 10
330.164475
 20
247.313090
 30
0.0
 10
330.334734
 20
246.902049
 30
0.0
  0
SPLINE
  5
2af
100
AcDbEntity
  8
0
 62
7
100
AcDbSpline
 70
8
 71
3
 72
8
 73
4
 74
0
 40
0
 40
0
 40
0
 40
0
 40
1
 40
1
 40
1
 40
1
 10
330.334734
 20
246.902049
 30
0.0
 10
330.504993
 20
246.491007
 30
0.0
 10
330.906092
 20
246.223001
 30
0.0
 10
331.351000
 20
246.223001
 30
0.0
  0
SPLINE
  5
2b0
100
AcDbEntity
  8
0
 62
7
100
AcDbSpline
 70
8
 71
3
 72
8
 73
4
 74
0
 40
0
 40
0
 40
0
 40
0
 40
1
 40
1
 40
1
 40
1
 10
331.351000
 20
246.223001
 30
0.0
 10
331.642738
 20
246.223001
 30
0.0
 10
331.922527
 20
246.338894
 30
0.0
 10
332.128817
 20
246.545183
 30
0.0
  0
SPLINE
  5
2b1
100
AcDbEntity
  8
0
 62
7
100
AcDbSpline
 70
8
 71
3
 72
8
 73
4
 74
0
 40
0
 40
0
 40
0
 40
0
 40
1
 40
1
 40
1
 40
1
 10
332.128817
 20
246.545183
 30
0.0
 10
332.335106
 20
246.751473
 30
0.0
 10
332.450999
 20
247.031262
 30
0.0
 10
332.450999
 20
247.323000
 30
0.0
  0
LINE
  5
2b2
100
AcDbEntity
  8
0
 62
7
100
AcDbLine
 10
332.450999
 20
247.323000
 30
0.0
 11
332.450999
 21
247.323000
 31
0.0
  0
SPLINE
  5
2b3
100
AcDbEntity
  8
0
 62
7
100
AcDbSpline
 70
8
 71
3
 72
8
 73
4
 74
0
 40
0
 40
0
 40
0
 40
0
 40
1
 40
1
 40
1
 40
1
 10
332.450999
 20
268.323000
 30
0.0
 10
332.450999
 20
268.767908
 30
0.0
 10
332.182993
 20
269.169007
 30
0.0
 10
331.771951
 20
269.339266
 30
0.0
  0
SPLINE
  5
2b4
100
AcDbEntity
  8
0
 62
7
100
AcDbSpline
 70
8
 71
3
 72
8
 73
4
 74
0
 40
0
 40
0
 40
0
 40
0
 40
1
 40
1
 40
1
 40
1
 10
331.771951
 20
269.339266
 30
0.0
 10
331.360910
 20
269.509525
 30
0.0
 10
330.887781
 20
269.415414
 30
0.0
 10
330.573183
 20
269.100817
 30
0.0
  0
SPLINE
  5
2b5
100
AcDbEntity
  8
0
 62
7
100
AcDbSpline
 70
8
 71
3
 72
8
 73
4
 74
0
 40
0
 40
0
 40
0
 40
0
 40
1
 40
1
 40
1
 40
1
 10
330.573183
 20
269.100817
 30
0.0
 10
330.258586
 20
268.786219
 30
0.0
 10
330.164475
 20
268.313090
 30
0.0
 10
330.334734
 20
267.902049
 30
0.0
  0
SPLINE
  5
2b6
100
AcDbEntity
  8
0
 62
7
100
AcDbSpline
 70
8
 71
3
 72
8
 73
4
 74
0
 40
0
 40
0
 40
0
 40
0
 40
1
 40
1
 40
1
 40
1
 10
330.334734
 20
267.902049
 30
0.0
 10
330.504993
 20
267.491007
 30
0.0
 10
330.906092
 20
267.223001
 30
0.0
 10
331.351000
 20
267.223001
 30
0.0
  0
SPLINE
  5
2b7
100
AcDbEntity
  8
0
 62
7
100
AcDbSpline
 70
8
 71
3
 72
8
 73
4
 74
0
 40
0
 40
0
 40
0
 40
0
 40
1
 40
1
 40
1
 40
1
 10
331.351000
 20
267.223001
 30
0.0
 10
331.642738
 20
267.223001
 30
0.0
 10
331.922527
 20
267.338894
 30
0.0
 10
332.128817
 20
267.545183
 30
0.0
  0
SPLINE
  5
2b8
100
AcDbEntity
  8
0
 62
7
100
AcDbSpline
 70
8
 71
3
 72
8
 73
4
 74
0
 40
0
 40
0
 40
0
 40
0
 40
1
 40
1
 40
1
 40
1
 10
332.128817
 20
267.545183
 30
0.0
 10
332.335106
 20
267.751473
 30
0.0
 10
332.450999
 20
268.031262
 30
0.0
 10
332.450999
 20
268.323000
 30
0.0
  0
LINE
  5
2b9
100
AcDbEntity
  8
0
 62
7
100
AcDbLine
 10
332.450999
 20
268.323000
 30
0.0
 11
332.450999
 21
268.323000
 31
0.0
  0
SPLINE
  5
2ba
100
AcDbEntity
  8
0
 62
7
100
AcDbSpline
 70
8
 71
3
 72
8
 73
4
 74
0
 40
0
 40
0
 40
0
 40
0
 40
1
 40
1
 40
1
 40
1
 10
319.950999
 20
268.323000
 30
0.0
 10
319.950999
 20
268.767908
 30
0.0
 10
319.682993
 20
269.169007
 30
0.0
 10
319.271951
 20
269.339266
 30
0.0
  0
SPLINE
  5
2bb
100
AcDbEntity
  8
0
 62
7
100
AcDbSpline
 70
8
 71
3
 72
8
 73
4
 74
0
 40
0
 40
0
 40
0
 40
0
 40
1
 40
1
 40
1
 40
1
 10
319.271951
 20
269.339266
 30
0.0
 10
318.860910
 20
269.509525
 30
0.0
 10
318.387781
 20
269.415414
 30
0.0
 10
318.073183
 20
269.100817
 30
0.0
  0
SPLINE
  5
2bc
100
AcDbEntity
  8
0
 62
7
100
AcDbSpline
 70
8
 71
3
 72
8
 73
4
 74
0
 40
0
 40
0
 40
0
 40
0
 40
1
 40
1
 40
1
 40
1
 10
318.073183
 20
269.100817
 30
0.0
 10
317.758586
 20
268.786219
 30
0.0
 10
317.664475
 20
268.313090
 30
0.0
 10
317.834734
 20
267.902049
 30
0.0
  0
SPLINE
  5
2bd
100
AcDbEntity
  8
0
 62
7
100
AcDbSpline
 70
8
 71
3
 72
8
 73
4
 74
0
 40
0
 40
0
 40
0
 40
0
 40
1
 40
1
 40
1
 40
1
 10
317.834734
 20
267.902049
 30
0.0
 10
318.004993
 20
267.491007
 30
0.0
 10
318.406092
 20
267.223001
 30
0.0
 10
318.851000
 20
267.223001
 30
0.0
  0
SPLINE
  5
2be
100
AcDbEntity
  8
0
 62
7
100
AcDbSpline
 70
8
 71
3
 72
8
 73
4
 74
0
 40
0
 40
0
 40
0
 40
0
 40
1
 40
1
 40
1
 40
1
 10
318.851000
 20
267.223001
 30
0.0
 10
319.142738
 20
267.223001
 30
0.0
 10
319.422527
 20
267.338894
 30
0.0
 10
319.628817
 20
267.545183
 30
0.0
  0
SPLINE
  5
2bf
100
AcDbEntity
  8
0
 62
7
100
AcDbSpline
 70
8
 71
3
 72
8
 73
4
 74
0
 40
0
 40
0
 40
0
 40
0
 40
1
 40
1
 40
1
 40
1
 10
319.628817
 20
267.545183
 30
0.0
 10
319.835106
 20
267.751473
 30
0.0
 10
319.950999
 20
268.031262
 30
0.0
 10
319.950999
 20
268.323000
 30
0.0
  0
LINE
  5
2c0
100
AcDbEntity
  8
0
 62
7
100
AcDbLine
 10
319.950999
 20
268.323000
 30
0.0
 11
319.950999
 21
268.323000
 31
0.0
  0
LINE
  5
2c1
100
AcDbEntity
  8
0
 62
7
100
AcDbLine
 10
316.282010
 20
273.166000
 30
0.0
 11
341.282010
 21
273.166000
 31
0.0
  0
LINE
  5
2c2
100
AcDbEntity
  8
0
 62
7
100
AcDbLine
 10
341.282010
 20
273.166000
 30
0.0
 11
341.282010
 21
249.304000
 31
0.0
  0
LINE
  5
2c3
100
AcDbEntity
  8
0
 62
7
100
AcDbLine
 10
341.282010
 20
249.304000
 30
0.0
 11
316.282010
 21
249.304000
 31
0.0
  0
LINE
  5
2c4
100
AcDbEntity
  8
0
 62
7
100
AcDbLine
 10
316.282010
 20
249.304000
 30
0.0
 11
316.282010
 21
273.166000
 31
0.0
  0
SPLINE
  5
2c5
100
AcDbEntity
  8
0
 62
7
100
AcDbSpline
 70
8
 71
3
 72
8
 73
4
 74
0
 40
0
 40
0
 40
0
 40
0
 40
1
 40
1
 40
1
 40
1
 10
339.282010
 20
252.405010
 30
0.0
 10
338.837102
 20
252.405010
 30
0.0
 10
338.436002
 20
252.137004
 30
0.0
 10
338.265743
 20
251.725962
 30
0.0
  0
SPLINE
  5
2c6
100
AcDbEntity
  8
0
 62
7
100
AcDbSpline
 70
8
 71
3
 72
8
 73
4
 74
0
 40
0
 40
0
 40
0
 40
0
 40
1
 40
1
 40
1
 40
1
 10
338.265743
 20
251.725962
 30
0.0
 10
338.095483
 20
251.314920
 30
0.0
 10
338.189595
 20
250.841790
 30
0.0
 10
338.504193
 20
250.527193
 30
0.0
  0
SPLINE
  5
2c7
100
AcDbEntity
  8
0
 62
7
100
AcDbSpline
 70
8
 71
3
 72
8
 73
4
 74
0
 40
0
 40
0
 40
0
 40
0
 40
1
 40
1
 40
1
 40
1
 10
338.504193
 20
250.527193
 30
0.0
 10
338.818790
 20
250.212595
 30
0.0
 10
339.291920
 20
250.118483
 30
0.0
 10
339.702962
 20
250.288743
 30
0.0
  0
SPLINE
  5
2c8
100
AcDbEntity
  8
0
 62
7
100
AcDbSpline
 70
8
 71
3
 72
8
 73
4
 74
0
 40
0
 40
0
 40
0
 40
0
 40
1
 40
1
 40
1
 40
1
 10
339.702962
 20
250.288743
 30
0.0
 10
340.114004
 20
250.459002
 30
0.0
 10
340.382010
 20
250.860102
 30
0.0
 10
340.382010
 20
251.305010
 30
0.0
  0
SPLINE
  5
2c9
100
AcDbEntity
  8
0
 62
7
100
AcDbSpline
 70
8
 71
3
 72
8
 73
4
 74
0
 40
0
 40
0
 40
0
 40
0
 40
1
 40
1
 40
1
 40
1
 10
340.382010
 20
251.305010
 30
0.0
 10
340.382010
 20
251.596748
 30
0.0
 10
340.266117
 20
251.876537
 30
0.0
 10
340.059827
 20
252.082827
 30
0.0
  0
SPLINE
  5
2ca
100
AcDbEntity
  8
0
 62
7
100
AcDbSpline
 70
8
 71
3
 72
8
 73
4
 74
0
 40
0
 40
0
 40
0
 40
0
 40
1
 40
1
 40
1
 40
1
 10
340.059827
 20
252.082827
 30
0.0
 10
339.853537
 20
252.289117
 30
0.0
 10
339.573748
 20
252.405010
 30
0.0
 10
339.282010
 20
252.405010
 30
0.0
  0
LINE
  5
2cb
100
AcDbEntity
  8
0
 62
7
100
AcDbLine
 10
339.282010
 20
252.405010
 30
0.0
 11
339.282010
 21
252.405010
 31
0.0
  0
SPLINE
  5
2cc
100
AcDbEntity
  8
0
 62
7
100
AcDbSpline
 70
8
 71
3
 72
8
 73
4
 74
0
 40
0
 40
0
 40
0
 40
0
 40
1
 40
1
 40
1
 40
1
 10
339.282010
 20
264.905010
 30
0.0
 10
338.837102
 20
264.905010
 30
0.0
 10
338.436002
 20
264.637004
 30
0.0
 10
338.265743
 20
264.225962
 30
0.0
  0
SPLINE
  5
2cd
100
AcDbEntity
  8
0
 62
7
100
AcDbSpline
 70
8
 71
3
 72
8
 73
4
 74
0
 40
0
 40
0
 40
0
 40
0
 40
1
 40
1
 40
1
 40
1
 10
338.265743
 20
264.225962
 30
0.0
 10
338.095483
 20
263.814920
 30
0.0
 10
338.189595
 20
263.341790
 30
0.0
 10
338.504193
 20
263.027193
 30
0.0
  0
SPLINE
  5
2ce
100
AcDbEntity
  8
0
 62
7
100
AcDbSpline
 70
8
 71
3
 72
8
 73
4
 74
0
 40
0
 40
0
 40
0
 40
0
 40
1
 40
1
 40
1
 40
1
 10
338.504193
 20
263.027193
 30
0.0
 10
338.818790
 20
262.712595
 30
0.0
 10
339.291920
 20
262.618483
 30
0.0
 10
339.702962
 20
262.788743
 30
0.0
  0
SPLINE
  5
2cf
100
AcDbEntity
  8
0
 62
7
100
AcDbSpline
 70
8
 71
3
 72
8
 73
4
 74
0
 40
0
 40
0
 40
0
 40
0
 40
1
 40
1
 40
1
 40
1
 10
339.702962
 20
262.788743
 30
0.0
 10
340.114004
 20
262.959002
 30
0.0
 10
340.382010
 20
263.360102
 30
0.0
 10
340.382010
 20
263.805010
 30
0.0
  0
SPLINE
  5
2d0
100
AcDbEntity
  8
0
 62
7
100
AcDbSpline
 70
8
 71
3
 72
8
 73
4
 74
0
 40
0
 40
0
 40
0
 40
0
 40
1
 40
1
 40
1
 40
1
 10
340.382010
 20
263.805010
 30
0.0
 10
340.382010
 20
264.096748
 30
0.0
 10
340.266117
 20
264.376537
 30
0.0
 10
340.059827
 20
264.582827
 30
0.0
  0
SPLINE
  5
2d1
100
AcDbEntity
  8
0
 62
7
100
AcDbSpline
 70
8
 71
3
 72
8
 73
4
 74
0
 40
0
 40
0
 40
0
 40
0
 40
1
 40
1
 40
1
 40
1
 10
340.059827
 20
264.582827
 30
0.0
 10
339.853537
 20
264.789117
 30
0.0
 10
339.573748
 20
264.905010
 30
0.0
 10
339.282010
 20
264.905010
 30
0.0
  0
LINE
  5
2d2
100
AcDbEntity
  8
0
 62
7
100
AcDbLine
 10
339.282010
 20
264.905010
 30
0.0
 11
339.282010
 21
264.905010
 31
0.0
  0
SPLINE
  5
2d3
100
AcDbEntity
  8
0
 62
7
100
AcDbSpline
 70
8
 71
3
 72
8
 73
4
 74
0
 40
0
 40
0
 40
0
 40
0
 40
1
 40
1
 40
1
 40
1
 10
318.282010
 20
264.905010
 30
0.0
 10
317.837102
 20
264.905010
 30
0.0
 10
317.436002
 20
264.637004
 30
0.0
 10
317.265743
 20
264.225962
 30
0.0
  0
SPLINE
  5
2d4
100
AcDbEntity
  8
0
 62
7
100
AcDbSpline
 70
8
 71
3
 72
8
 73
4
 74
0
 40
0
 40
0
 40
0
 40
0
 40
1
 40
1
 40
1
 40
1
 10
317.265743
 20
264.225962
 30
0.0
 10
317.095483
 20
263.814920
 30
0.0
 10
317.189595
 20
263.341790
 30
0.0
 10
317.504193
 20
263.027193
 30
0.0
  0
SPLINE
  5
2d5
100
AcDbEntity
  8
0
 62
7
100
AcDbSpline
 70
8
 71
3
 72
8
 73
4
 74
0
 40
0
 40
0
 40
0
 40
0
 40
1
 40
1
 40
1
 40
1
 10
317.504193
 20
263.027193
 30
0.0
 10
317.818790
 20
262.712595
 30
0.0
 10
318.291920
 20
262.618483
 30
0.0
 10
318.702962
 20
262.788743
 30
0.0
  0
SPLINE
  5
2d6
100
AcDbEntity
  8
0
 62
7
100
AcDbSpline
 70
8
 71
3
 72
8
 73
4
 74
0
 40
0
 40
0
 40
0
 40
0
 40
1
 40
1
 40
1
 40
1
 10
318.702962
 20
262.788743
 30
0.0
 10
319.114004
 20
262.959002
 30
0.0
 10
319.382010
 20
263.360102
 30
0.0
 10
319.382010
 20
263.805010
 30
0.0
  0
SPLINE
  5
2d7
100
AcDbEntity
  8
0
 62
7
100
AcDbSpline
 70
8
 71
3
 72
8
 73
4
 74
0
 40
0
 40
0
 40
0
 40
0
 40
1
 40
1
 40
1
 40
1
 10
319.382010
 20
263.805010
 30
0.0
 10
319.382010
 20
264.096748
 30
0.0
 10
319.266117
 20
264.376537
 30
0.0
 10
319.059827
 20
264.582827
 30
0.0
  0
SPLINE
  5
2d8
100
AcDbEntity
  8
0
 62
7
100
AcDbSpline
 70
8
 71
3
 72
8
 73
4
 74
0
 40
0
 40
0
 40
0
 40
0
 40
1
 40
1
 40
1
 40
1
 10
319.059827
 20
264.582827
 30
0.0
 10
318.853537
 20
264.789117
 30
0.0
 10
318.573748
 20
264.905010
 30
0.0
 10
318.282010
 20
264.905010
 30
0.0
  0
LINE
  5
2d9
100
AcDbEntity
  8
0
 62
7
100
AcDbLine
 10
318.282010
 20
264.905010
 30
0.0
 11
318.282010
 21
264.905010
 31
0.0
  0
SPLINE
  5
2da
100
AcDbEntity
  8
0
 62
7
100
AcDbSpline
 70
8
 71
3
 72
8
 73
4
 74
0
 40
0
 40
0
 40
0
 40
0
 40
1
 40
1
 40
1
 40
1
 10
318.282010
 20
252.405010
 30
0.0
 10
317.837102
 20
252.405010
 30
0.0
 10
317.436002
 20
252.137004
 30
0.0
 10
317.265743
 20
251.725962
 30
0.0
  0
SPLINE
  5
2db
100
AcDbEntity
  8
0
 62
7
100
AcDbSpline
 70
8
 71
3
 72
8
 73
4
 74
0
 40
0
 40
0
 40
0
 40
0
 40
1
 40
1
 40
1
 40
1
 10
317.265743
 20
251.725962
 30
0.0
 10
317.095483
 20
251.314920
 30
0.0
 10
317.189595
 20
250.841790
 30
0.0
 10
317.504193
 20
250.527193
 30
0.0
  0
SPLINE
  5
2dc
100
AcDbEntity
  8
0
 62
7
100
AcDbSpline
 70
8
 71
3
 72
8
 73
4
 74
0
 40
0
 40
0
 40
0
 40
0
 40
1
 40
1
 40
1
 40
1
 10
317.504193
 20
250.527193
 30
0.0
 10
317.818790
 20
250.212595
 30
0.0
 10
318.291920
 20
250.118483
 30
0.0
 10
318.702962
 20
250.288743
 30
0.0
  0
SPLINE
  5
2dd
100
AcDbEntity
  8
0
 62
7
100
AcDbSpline
 70
8
 71
3
 72
8
 73
4
 74
0
 40
0
 40
0
 40
0
 40
0
 40
1
 40
1
 40
1
 40
1
 10
318.702962
 20
250.288743
 30
0.0
 10
319.114004
 20
250.459002
 30
0.0
 10
319.382010
 20
250.860102
 30
0.0
 10
319.382010
 20
251.305010
 30
0.0
  0
SPLINE
  5
2de
100
AcDbEntity
  8
0
 62
7
100
AcDbSpline
 70
8
 71
3
 72
8
 73
4
 74
0
 40
0
 40
0
 40
0
 40
0
 40
1
 40
1
 40
1
 40
1
 10
319.382010
 20
251.305010
 30
0.0
 10
319.382010
 20
251.596748
 30
0.0
 10
319.266117
 20
251.876537
 30
0.0
 10
319.059827
 20
252.082827
 30
0.0
  0
SPLINE
  5
2df
100
AcDbEntity
  8
0
 62
7
100
AcDbSpline
 70
8
 71
3
 72
8
 73
4
 74
0
 40
0
 40
0
 40
0
 40
0
 40
1
 40
1
 40
1
 40
1
 10
319.059827
 20
252.082827
 30
0.0
 10
318.853537
 20
252.289117
 30
0.0
 10
318.573748
 20
252.405010
 30
0.0
 10
318.282010
 20
252.405010
 30
0.0
  0
LINE
  5
2e0
100
AcDbEntity
  8
0
 62
7
100
AcDbLine
 10
318.282010
 20
252.405010
 30
0.0
 11
318.282010
 21
252.405010
 31
0.0
  0
SPLINE
  5
2e1
100
AcDbEntity
  8
0
 62
7
100
AcDbSpline
 70
8
 71
3
 72
8
 73
4
 74
0
 40
0
 40
0
 40
0
 40
0
 40
1
 40
1
 40
1
 40
1
 10
412.296690
 20
501.626804
 30
0.0
 10
411.689997
 20
501.626804
 30
0.0
 10
411.143042
 20
501.261341
 30
0.0
 10
410.910871
 20
500.700829
 30
0.0
  0
SPLINE
  5
2e2
100
AcDbEntity
  8
0
 62
7
100
AcDbSpline
 70
8
 71
3
 72
8
 73
4
 74
0
 40
0
 40
0
 40
0
 40
0
 40
1
 40
1
 40
1
 40
1
 10
410.910871
 20
500.700829
 30
0.0
 10
410.678699
 20
500.140318
 30
0.0
 10
410.807033
 20
499.495141
 30
0.0
 10
411.236030
 20
499.066144
 30
0.0
  0
SPLINE
  5
2e3
100
AcDbEntity
  8
0
 62
7
100
AcDbSpline
 70
8
 71
3
 72
8
 73
4
 74
0
 40
0
 40
0
 40
0
 40
0
 40
1
 40
1
 40
1
 40
1
 10
411.236030
 20
499.066144
 30
0.0
 10
411.665027
 20
498.637147
 30
0.0
 10
412.310204
 20
498.508813
 30
0.0
 10
412.870715
 20
498.740985
 30
0.0
  0
SPLINE
  5
2e4
100
AcDbEntity
  8
0
 62
7
100
AcDbSpline
 70
8
 71
3
 72
8
 73
4
 74
0
 40
0
 40
0
 40
0
 40
0
 40
1
 40
1
 40
1
 40
1
 10
412.870715
 20
498.740985
 30
0.0
 10
413.431227
 20
498.973156
 30
0.0
 10
413.796690
 20
499.520111
 30
0.0
 10
413.796690
 20
500.126804
 30
0.0
  0
SPLINE
  5
2e5
100
AcDbEntity
  8
0
 62
7
100
AcDbSpline
 70
8
 71
3
 72
8
 73
4
 74
0
 40
0
 40
0
 40
0
 40
0
 40
1
 40
1
 40
1
 40
1
 10
413.796690
 20
500.126804
 30
0.0
 10
413.796690
 20
500.524629
 30
0.0
 10
413.638655
 20
500.906160
 30
0.0
 10
413.357350
 20
501.187464
 30
0.0
  0
SPLINE
  5
2e6
100
AcDbEntity
  8
0
 62
7
100
AcDbSpline
 70
8
 71
3
 72
8
 73
4
 74
0
 40
0
 40
0
 40
0
 40
0
 40
1
 40
1
 40
1
 40
1
 10
413.357350
 20
501.187464
 30
0.0
 10
413.076046
 20
501.468769
 30
0.0
 10
412.694515
 20
501.626804
 30
0.0
 10
412.296690
 20
501.626804
 30
0.0
  0
LINE
  5
2e7
100
AcDbEntity
  8
0
 62
7
100
AcDbLine
 10
412.296690
 20
501.626804
 30
0.0
 11
412.296690
 21
501.626804
 31
0.0
  0
SPLINE
  5
2e8
100
AcDbEntity
  8
0
 62
7
100
AcDbSpline
 70
8
 71
3
 72
8
 73
4
 74
0
 40
0
 40
0
 40
0
 40
0
 40
1
 40
1
 40
1
 40
1
 10
583.296690
 20
501.626804
 30
0.0
 10
582.689997
 20
501.626804
 30
0.0
 10
582.143042
 20
501.261341
 30
0.0
 10
581.910871
 20
500.700829
 30
0.0
  0
SPLINE
  5
2e9
100
AcDbEntity
  8
0
 62
7
100
AcDbSpline
 70
8
 71
3
 72
8
 73
4
 74
0
 40
0
 40
0
 40
0
 40
0
 40
1
 40
1
 40
1
 40
1
 10
581.910871
 20
500.700829
 30
0.0
 10
581.678699
 20
500.140318
 30
0.0
 10
581.807033
 20
499.495141
 30
0.0
 10
582.236030
 20
499.066144
 30
0.0
  0
SPLINE
  5
2ea
100
AcDbEntity
  8
0
 62
7
100
AcDbSpline
 70
8
 71
3
 72
8
 73
4
 74
0
 40
0
 40
0
 40
0
 40
0
 40
1
 40
1
 40
1
 40
1
 10
582.236030
 20
499.066144
 30
0.0
 10
582.665027
 20
498.637147
 30
0.0
 10
583.310204
 20
498.508813
 30
0.0
 10
583.870715
 20
498.740985
 30
0.0
  0
SPLINE
  5
2eb
100
AcDbEntity
  8
0
 62
7
100
AcDbSpline
 70
8
 71
3
 72
8
 73
4
 74
0
 40
0
 40
0
 40
0
 40
0
 40
1
 40
1
 40
1
 40
1
 10
583.870715
 20
498.740985
 30
0.0
 10
584.431227
 20
498.973156
 30
0.0
 10
584.796690
 20
499.520111
 30
0.0
 10
584.796690
 20
500.126804
 30
0.0
  0
SPLINE
  5
2ec
100
AcDbEntity
  8
0
 62
7
100
AcDbSpline
 70
8
 71
3
 72
8
 73
4
 74
0
 40
0
 40
0
 40
0
 40
0
 40
1
 40
1
 40
1
 40
1
 10
584.796690
 20
500.126804
 30
0.0
 10
584.796690
 20
500.524629
 30
0.0
 10
584.638655
 20
500.906160
 30
0.0
 10
584.357350
 20
501.187464
 30
0.0
  0
SPLINE
  5
2ed
100
AcDbEntity
  8
0
 62
7
100
AcDbSpline
 70
8
 71
3
 72
8
 73
4
 74
0
 40
0
 40
0
 40
0
 40
0
 40
1
 40
1
 40
1
 40
1
 10
584.357350
 20
501.187464
 30
0.0
 10
584.076046
 20
501.468769
 30
0.0
 10
583.694515
 20
501.626804
 30
0.0
 10
583.296690
 20
501.626804
 30
0.0
  0
LINE
  5
2ee
100
AcDbEntity
  8
0
 62
7
100
AcDbLine
 10
583.296690
 20
501.626804
 30
0.0
 11
583.296690
 21
501.626804
 31
0.0
  0
SPLINE
  5
2ef
100
AcDbEntity
  8
0
 62
7
100
AcDbSpline
 70
8
 71
3
 72
8
 73
4
 74
0
 40
0
 40
0
 40
0
 40
0
 40
1
 40
1
 40
1
 40
1
 10
583.296690
 20
456.627000
 30
0.0
 10
582.689997
 20
456.627000
 30
0.0
 10
582.143042
 20
456.261537
 30
0.0
 10
581.910871
 20
455.701025
 30
0.0
  0
SPLINE
  5
2f0
100
AcDbEntity
  8
0
 62
7
100
AcDbSpline
 70
8
 71
3
 72
8
 73
4
 74
0
 40
0
 40
0
 40
0
 40
0
 40
1
 40
1
 40
1
 40
1
 10
581.910871
 20
455.701025
 30
0.0
 10
581.678699
 20
455.140514
 30
0.0
 10
581.807033
 20
454.495337
 30
0.0
 10
582.236030
 20
454.066340
 30
0.0
  0
SPLINE
  5
2f1
100
AcDbEntity
  8
0
 62
7
100
AcDbSpline
 70
8
 71
3
 72
8
 73
4
 74
0
 40
0
 40
0
 40
0
 40
0
 40
1
 40
1
 40
1
 40
1
 10
582.236030
 20
454.066340
 30
0.0
 10
582.665027
 20
453.637343
 30
0.0
 10
583.310204
 20
453.509009
 30
0.0
 10
583.870715
 20
453.741181
 30
0.0
  0
SPLINE
  5
2f2
100
AcDbEntity
  8
0
 62
7
100
AcDbSpline
 70
8
 71
3
 72
8
 73
4
 74
0
 40
0
 40
0
 40
0
 40
0
 40
1
 40
1
 40
1
 40
1
 10
583.870715
 20
453.741181
 30
0.0
 10
584.431227
 20
453.973352
 30
0.0
 10
584.796690
 20
454.520307
 30
0.0
 10
584.796690
 20
455.127000
 30
0.0
  0
SPLINE
  5
2f3
100
AcDbEntity
  8
0
 62
7
100
AcDbSpline
 70
8
 71
3
 72
8
 73
4
 74
0
 40
0
 40
0
 40
0
 40
0
 40
1
 40
1
 40
1
 40
1
 10
584.796690
 20
455.127000
 30
0.0
 10
584.796690
 20
455.524825
 30
0.0
 10
584.638655
 20
455.906356
 30
0.0
 10
584.357350
 20
456.187660
 30
0.0
  0
SPLINE
  5
2f4
100
AcDbEntity
  8
0
 62
7
100
AcDbSpline
 70
8
 71
3
 72
8
 73
4
 74
0
 40
0
 40
0
 40
0
 40
0
 40
1
 40
1
 40
1
 40
1
 10
584.357350
 20
456.187660
 30
0.0
 10
584.076046
 20
456.468965
 30
0.0
 10
583.694515
 20
456.627000
 30
0.0
 10
583.296690
 20
456.627000
 30
0.0
  0
LINE
  5
2f5
100
AcDbEntity
  8
0
 62
7
100
AcDbLine
 10
583.296690
 20
456.627000
 30
0.0
 11
583.296690
 21
456.627000
 31
0.0
  0
SPLINE
  5
2f6
100
AcDbEntity
  8
0
 62
7
100
AcDbSpline
 70
8
 71
3
 72
8
 73
4
 74
0
 40
0
 40
0
 40
0
 40
0
 40
1
 40
1
 40
1
 40
1
 10
412.296690
 20
456.627000
 30
0.0
 10
411.689997
 20
456.627000
 30
0.0
 10
411.143042
 20
456.261537
 30
0.0
 10
410.910871
 20
455.701025
 30
0.0
  0
SPLINE
  5
2f7
100
AcDbEntity
  8
0
 62
7
100
AcDbSpline
 70
8
 71
3
 72
8
 73
4
 74
0
 40
0
 40
0
 40
0
 40
0
 40
1
 40
1
 40
1
 40
1
 10
410.910871
 20
455.701025
 30
0.0
 10
410.678699
 20
455.140514
 30
0.0
 10
410.807033
 20
454.495337
 30
0.0
 10
411.236030
 20
454.066340
 30
0.0
  0
SPLINE
  5
2f8
100
AcDbEntity
  8
0
 62
7
100
AcDbSpline
 70
8
 71
3
 72
8
 73
4
 74
0
 40
0
 40
0
 40
0
 40
0
 40
1
 40
1
 40
1
 40
1
 10
411.236030
 20
454.066340
 30
0.0
 10
411.665027
 20
453.637343
 30
0.0
 10
412.310204
 20
453.509009
 30
0.0
 10
412.870715
 20
453.741181
 30
0.0
  0
SPLINE
  5
2f9
100
AcDbEntity
  8
0
 62
7
100
AcDbSpline
 70
8
 71
3
 72
8
 73
4
 74
0
 40
0
 40
0
 40
0
 40
0
 40
1
 40
1
 40
1
 40
1
 10
412.870715
 20
453.741181
 30
0.0
 10
413.431227
 20
453.973352
 30
0.0
 10
413.796690
 20
454.520307
 30
0.0
 10
413.796690
 20
455.127000
 30
0.0
  0
SPLINE
  5
2fa
100
AcDbEntity
  8
0
 62
7
100
AcDbSpline
 70
8
 71
3
 72
8
 73
4
 74
0
 40
0
 40
0
 40
0
 40
0
 40
1
 40
1
 40
1
 40
1
 10
413.796690
 20
455.127000
 30
0.0
 10
413.796690
 20
455.524825
 30
0.0
 10
413.638655
 20
455.906356
 30
0.0
 10
413.357350
 20
456.187660
 30
0.0
  0
SPLINE
  5
2fb
100
AcDbEntity
  8
0
 62
7
100
AcDbSpline
 70
8
 71
3
 72
8
 73
4
 74
0
 40
0
 40
0
 40
0
 40
0
 40
1
 40
1
 40
1
 40
1
 10
413.357350
 20
456.187660
 30
0.0
 10
413.076046
 20
456.468965
 30
0.0
 10
412.694515
 20
456.627000
 30
0.0
 10
412.296690
 20
456.627000
 30
0.0
  0
LINE
  5
2fc
100
AcDbEntity
  8
0
 62
7
100
AcDbLine
 10
412.296690
 20
456.627000
 30
0.0
 11
412.296690
 21
456.627000
 31
0.0
  0
LINE
  5
2fd
100
AcDbEntity
  8
0
 62
7
100
AcDbLine
 10
379.853500
 20
416.433000
 30
0.0
 11
549.956500
 21
416.433000
 31
0.0
  0
SPLINE
  5
2fe
100
AcDbEntity
  8
0
 62
7
100
AcDbSpline
 70
8
 71
3
 72
8
 73
4
 74
0
 40
0
 40
0
 40
0
 40
0
 40
1
 40
1
 40
1
 40
1
 10
549.956500
 20
416.433000
 30
0.0
 10
551.268924
 20
416.433000
 30
0.0
 10
552.527594
 20
415.911642
 30
0.0
 10
553.455618
 20
414.983618
 30
0.0
  0
SPLINE
  5
2ff
100
AcDbEntity
  8
0
 62
7
100
AcDbSpline
 70
8
 71
3
 72
8
 73
4
 74
0
 40
0
 40
0
 40
0
 40
0
 40
1
 40
1
 40
1
 40
1
 10
553.455618
 20
414.983618
 30
0.0
 10
554.383642
 20
414.055594
 30
0.0
 10
554.905000
 20
412.796924
 30
0.0
 10
554.905000
 20
411.484500
 30
0.0
  0
LINE
  5
300
100
AcDbEntity
  8
0
 62
7
100
AcDbLine
 10
554.905000
 20
411.484500
 30
0.0
 11
554.905000
 21
367.381500
 31
0.0
  0
SPLINE
  5
301
100
AcDbEntity
  8
0
 62
7
100
AcDbSpline
 70
8
 71
3
 72
8
 73
4
 74
0
 40
0
 40
0
 40
0
 40
0
 40
1
 40
1
 40
1
 40
1
 10
554.905000
 20
367.381500
 30
0.0
 10
554.905000
 20
366.069076
 30
0.0
 10
554.383642
 20
364.810406
 30
0.0
 10
553.455618
 20
363.882382
 30
0.0
  0
SPLINE
  5
302
100
AcDbEntity
  8
0
 62
7
100
AcDbSpline
 70
8
 71
3
 72
8
 73
4
 74
0
 40
0
 40
0
 40
0
 40
0
 40
1
 40
1
 40
1
 40
1
 10
553.455618
 20
363.882382
 30
0.0
 10
552.527594
 20
362.954358
 30
0.0
 10
551.268924
 20
362.433000
 30
0.0
 10
549.956500
 20
362.433000
 30
0.0
  0
LINE
  5
303
100
AcDbEntity
  8
0
 62
7
100
AcDbLine
 10
549.956500
 20
362.433000
 30
0.0
 11
379.853500
 21
362.433000
 31
0.0
  0
SPLINE
  5
304
100
AcDbEntity
  8
0
 62
7
100
AcDbSpline
 70
8
 71
3
 72
8
 73
4
 74
0
 40
0
 40
0
 40
0
 40
0
 40
1
 40
1
 40
1
 40
1
 10
379.853500
 20
362.433000
 30
0.0
 10
378.541076
 20
362.433000
 30
0.0
 10
377.282406
 20
362.954358
 30
0.0
 10
376.354382
 20
363.882382
 30
0.0
  0
SPLINE
  5
305
100
AcDbEntity
  8
0
 62
7
100
AcDbSpline
 70
8
 71
3
 72
8
 73
4
 74
0
 40
0
 40
0
 40
0
 40
0
 40
1
 40
1
 40
1
 40
1
 10
376.354382
 20
363.882382
 30
0.0
 10
375.426358
 20
364.810406
 30
0.0
 10
374.905000
 20
366.069076
 30
0.0
 10
374.905000
 20
367.381500
 30
0.0
  0
LINE
  5
306
100
AcDbEntity
  8
0
 62
7
100
AcDbLine
 10
374.905000
 20
367.381500
 30
0.0
 11
374.905000
 21
411.484500
 31
0.0
  0
SPLINE
  5
307
100
AcDbEntity
  8
0
 62
7
100
AcDbSpline
 70
8
 71
3
 72
8
 73
4
 74
0
 40
0
 40
0
 40
0
 40
0
 40
1
 40
1
 40
1
 40
1
 10
374.905000
 20
411.484500
 30
0.0
 10
374.905000
 20
412.796924
 30
0.0
 10
375.426358
 20
414.055594
 30
0.0
 10
376.354382
 20
414.983618
 30
0.0
  0
SPLINE
  5
308
100
AcDbEntity
  8
0
 62
7
100
AcDbSpline
 70
8
 71
3
 72
8
 73
4
 74
0
 40
0
 40
0
 40
0
 40
0
 40
1
 40
1
 40
1
 40
1
 10
376.354382
 20
414.983618
 30
0.0
 10
377.282406
 20
415.911642
 30
0.0
 10
378.541076
 20
416.433000
 30
0.0
 10
379.853500
 20
416.433000
 30
0.0
  0
LINE
  5
309
100
AcDbEntity
  8
0
 62
7
100
AcDbLine
 10
379.853500
 20
416.433000
 30
0.0
 11
379.853500
 21
416.433000
 31
0.0
  0
SPLINE
  5
30a
100
AcDbEntity
  8
0
 62
7
100
AcDbSpline
 70
8
 71
3
 72
8
 73
4
 74
0
 40
0
 40
0
 40
0
 40
0
 40
1
 40
1
 40
1
 40
1
 10
379.406010
 20
413.433990
 30
0.0
 10
378.799317
 20
413.433990
 30
0.0
 10
378.252362
 20
413.068527
 30
0.0
 10
378.020191
 20
412.508015
 30
0.0
  0
SPLINE
  5
30b
100
AcDbEntity
  8
0
 62
7
100
AcDbSpline
 70
8
 71
3
 72
8
 73
4
 74
0
 40
0
 40
0
 40
0
 40
0
 40
1
 40
1
 40
1
 40
1
 10
378.020191
 20
412.508015
 30
0.0
 10
377.788019
 20
411.947504
 30
0.0
 10
377.916353
 20
411.302327
 30
0.0
 10
378.345350
 20
410.873330
 30
0.0
  0
SPLINE
  5
30c
100
AcDbEntity
  8
0
 62
7
100
AcDbSpline
 70
8
 71
3
 72
8
 73
4
 74
0
 40
0
 40
0
 40
0
 40
0
 40
1
 40
1
 40
1
 40
1
 10
378.345350
 20
410.873330
 30
0.0
 10
378.774347
 20
410.444333
 30
0.0
 10
379.419524
 20
410.315999
 30
0.0
 10
379.980035
 20
410.548171
 30
0.0
  0
SPLINE
  5
30d
100
AcDbEntity
  8
0
 62
7
100
AcDbSpline
 70
8
 71
3
 72
8
 73
4
 74
0
 40
0
 40
0
 40
0
 40
0
 40
1
 40
1
 40
1
 40
1
 10
379.980035
 20
410.548171
 30
0.0
 10
380.540547
 20
410.780342
 30
0.0
 10
380.906010
 20
411.327297
 30
0.0
 10
380.906010
 20
411.933990
 30
0.0
  0
SPLINE
  5
30e
100
AcDbEntity
  8
0
 62
7
100
AcDbSpline
 70
8
 71
3
 72
8
 73
4
 74
0
 40
0
 40
0
 40
0
 40
0
 40
1
 40
1
 40
1
 40
1
 10
380.906010
 20
411.933990
 30
0.0
 10
380.906010
 20
412.331815
 30
0.0
 10
380.747975
 20
412.713346
 30
0.0
 10
380.466670
 20
412.994650
 30
0.0
  0
SPLINE
  5
30f
100
AcDbEntity
  8
0
 62
7
100
AcDbSpline
 70
8
 71
3
 72
8
 73
4
 74
0
 40
0
 40
0
 40
0
 40
0
 40
1
 40
1
 40
1
 40
1
 10
380.466670
 20
412.994650
 30
0.0
 10
380.185366
 20
413.275955
 30
0.0
 10
379.803835
 20
413.433990
 30
0.0
 10
379.406010
 20
413.433990
 30
0.0
  0
LINE
  5
310
100
AcDbEntity
  8
0
 62
7
100
AcDbLine
 10
379.406010
 20
413.433990
 30
0.0
 11
379.406010
 21
413.433990
 31
0.0
  0
SPLINE
  5
311
100
AcDbEntity
  8
0
 62
7
100
AcDbSpline
 70
8
 71
3
 72
8
 73
4
 74
0
 40
0
 40
0
 40
0
 40
0
 40
1
 40
1
 40
1
 40
1
 10
550.406010
 20
413.433990
 30
0.0
 10
549.799317
 20
413.433990
 30
0.0
 10
549.252362
 20
413.068527
 30
0.0
 10
549.020191
 20
412.508015
 30
0.0
  0
SPLINE
  5
312
100
AcDbEntity
  8
0
 62
7
100
AcDbSpline
 70
8
 71
3
 72
8
 73
4
 74
0
 40
0
 40
0
 40
0
 40
0
 40
1
 40
1
 40
1
 40
1
 10
549.020191
 20
412.508015
 30
0.0
 10
548.788019
 20
411.947504
 30
0.0
 10
548.916353
 20
411.302327
 30
0.0
 10
549.345350
 20
410.873330
 30
0.0
  0
SPLINE
  5
313
100
AcDbEntity
  8
0
 62
7
100
AcDbSpline
 70
8
 71
3
 72
8
 73
4
 74
0
 40
0
 40
0
 40
0
 40
0
 40
1
 40
1
 40
1
 40
1
 10
549.345350
 20
410.873330
 30
0.0
 10
549.774347
 20
410.444333
 30
0.0
 10
550.419524
 20
410.315999
 30
0.0
 10
550.980035
 20
410.548171
 30
0.0
  0
SPLINE
  5
314
100
AcDbEntity
  8
0
 62
7
100
AcDbSpline
 70
8
 71
3
 72
8
 73
4
 74
0
 40
0
 40
0
 40
0
 40
0
 40
1
 40
1
 40
1
 40
1
 10
550.980035
 20
410.548171
 30
0.0
 10
551.540547
 20
410.780342
 30
0.0
 10
551.906010
 20
411.327297
 30
0.0
 10
551.906010
 20
411.933990
 30
0.0
  0
SPLINE
  5
315
100
AcDbEntity
  8
0
 62
7
100
AcDbSpline
 70
8
 71
3
 72
8
 73
4
 74
0
 40
0
 40
0
 40
0
 40
0
 40
1
 40
1
 40
1
 40
1
 10
551.906010
 20
411.933990
 30
0.0
 10
551.906010
 20
412.331815
 30
0.0
 10
551.747975
 20
412.713346
 30
0.0
 10
551.466670
 20
412.994650
 30
0.0
  0
SPLINE
  5
316
100
AcDbEntity
  8
0
 62
7
100
AcDbSpline
 70
8
 71
3
 72
8
 73
4
 74
0
 40
0
 40
0
 40
0
 40
0
 40
1
 40
1
 40
1
 40
1
 10
551.466670
 20
412.994650
 30
0.0
 10
551.185366
 20
413.275955
 30
0.0
 10
550.803835
 20
413.433990
 30
0.0
 10
550.406010
 20
413.433990
 30
0.0
  0
LINE
  5
317
100
AcDbEntity
  8
0
 62
7
100
AcDbLine
 10
550.406010
 20
413.433990
 30
0.0
 11
550.406010
 21
413.433990
 31
0.0
  0
SPLINE
  5
318
100
AcDbEntity
  8
0
 62
7
100
AcDbSpline
 70
8
 71
3
 72
8
 73
4
 74
0
 40
0
 40
0
 40
0
 40
0
 40
1
 40
1
 40
1
 40
1
 10
550.406010
 20
368.433990
 30
0.0
 10
549.799317
 20
368.433990
 30
0.0
 10
549.252362
 20
368.068527
 30
0.0
 10
549.020191
 20
367.508015
 30
0.0
  0
SPLINE
  5
319
100
AcDbEntity
  8
0
 62
7
100
AcDbSpline
 70
8
 71
3
 72
8
 73
4
 74
0
 40
0
 40
0
 40
0
 40
0
 40
1
 40
1
 40
1
 40
1
 10
549.020191
 20
367.508015
 30
0.0
 10
548.788019
 20
366.947504
 30
0.0
 10
548.916353
 20
366.302327
 30
0.0
 10
549.345350
 20
365.873330
 30
0.0
  0
SPLINE
  5
31a
100
AcDbEntity
  8
0
 62
7
100
AcDbSpline
 70
8
 71
3
 72
8
 73
4
 74
0
 40
0
 40
0
 40
0
 40
0
 40
1
 40
1
 40
1
 40
1
 10
549.345350
 20
365.873330
 30
0.0
 10
549.774347
 20
365.444333
 30
0.0
 10
550.419524
 20
365.315999
 30
0.0
 10
550.980035
 20
365.548171
 30
0.0
  0
SPLINE
  5
31b
100
AcDbEntity
  8
0
 62
7
100
AcDbSpline
 70
8
 71
3
 72
8
 73
4
 74
0
 40
0
 40
0
 40
0
 40
0
 40
1
 40
1
 40
1
 40
1
 10
550.980035
 20
365.548171
 30
0.0
 10
551.540547
 20
365.780342
 30
0.0
 10
551.906010
 20
366.327297
 30
0.0
 10
551.906010
 20
366.933990
 30
0.0
  0
SPLINE
  5
31c
100
AcDbEntity
  8
0
 62
7
100
AcDbSpline
 70
8
 71
3
 72
8
 73
4
 74
0
 40
0
 40
0
 40
0
 40
0
 40
1
 40
1
 40
1
 40
1
 10
551.906010
 20
366.933990
 30
0.0
 10
551.906010
 20
367.331815
 30
0.0
 10
551.747975
 20
367.713346
 30
0.0
 10
551.466670
 20
367.994650
 30
0.0
  0
SPLINE
  5
31d
100
AcDbEntity
  8
0
 62
7
100
AcDbSpline
 70
8
 71
3
 72
8
 73
4
 74
0
 40
0
 40
0
 40
0
 40
0
 40
1
 40
1
 40
1
 40
1
 10
551.466670
 20
367.994650
 30
0.0
 10
551.185366
 20
368.275955
 30
0.0
 10
550.803835
 20
368.433990
 30
0.0
 10
550.406010
 20
368.433990
 30
0.0
  0
LINE
  5
31e
100
AcDbEntity
  8
0
 62
7
100
AcDbLine
 10
550.406010
 20
368.433990
 30
0.0
 11
550.406010
 21
368.433990
 31
0.0
  0
SPLINE
  5
31f
100
AcDbEntity
  8
0
 62
7
100
AcDbSpline
 70
8
 71
3
 72
8
 73
4
 74
0
 40
0
 40
0
 40
0
 40
0
 40
1
 40
1
 40
1
 40
1
 10
379.406010
 20
368.433990
 30
0.0
 10
378.799317
 20
368.433990
 30
0.0
 10
378.252362
 20
368.068527
 30
0.0
 10
378.020191
 20
367.508015
 30
0.0
  0
SPLINE
  5
320
100
AcDbEntity
  8
0
 62
7
100
AcDbSpline
 70
8
 71
3
 72
8
 73
4
 74
0
 40
0
 40
0
 40
0
 40
0
 40
1
 40
1
 40
1
 40
1
 10
378.020191
 20
367.508015
 30
0.0
 10
377.788019
 20
366.947504
 30
0.0
 10
377.916353
 20
366.302327
 30
0.0
 10
378.345350
 20
365.873330
 30
0.0
  0
SPLINE
  5
321
100
AcDbEntity
  8
0
 62
7
100
AcDbSpline
 70
8
 71
3
 72
8
 73
4
 74
0
 40
0
 40
0
 40
0
 40
0
 40
1
 40
1
 40
1
 40
1
 10
378.345350
 20
365.873330
 30
0.0
 10
378.774347
 20
365.444333
 30
0.0
 10
379.419524
 20
365.315999
 30
0.0
 10
379.980035
 20
365.548171
 30
0.0
  0
SPLINE
  5
322
100
AcDbEntity
  8
0
 62
7
100
AcDbSpline
 70
8
 71
3
 72
8
 73
4
 74
0
 40
0
 40
0
 40
0
 40
0
 40
1
 40
1
 40
1
 40
1
 10
379.980035
 20
365.548171
 30
0.0
 10
380.540547
 20
365.780342
 30
0.0
 10
380.906010
 20
366.327297
 30
0.0
 10
380.906010
 20
366.933990
 30
0.0
  0
SPLINE
  5
323
100
AcDbEntity
  8
0
 62
7
100
AcDbSpline
 70
8
 71
3
 72
8
 73
4
 74
0
 40
0
 40
0
 40
0
 40
0
 40
1
 40
1
 40
1
 40
1
 10
380.906010
 20
366.933990
 30
0.0
 10
380.906010
 20
367.331815
 30
0.0
 10
380.747975
 20
367.713346
 30
0.0
 10
380.466670
 20
367.994650
 30
0.0
  0
SPLINE
  5
324
100
AcDbEntity
  8
0
 62
7
100
AcDbSpline
 70
8
 71
3
 72
8
 73
4
 74
0
 40
0
 40
0
 40
0
 40
0
 40
1
 40
1
 40
1
 40
1
 10
380.466670
 20
367.994650
 30
0.0
 10
380.185366
 20
368.275955
 30
0.0
 10
379.803835
 20
368.433990
 30
0.0
 10
379.406010
 20
368.433990
 30
0.0
  0
LINE
  5
325
100
AcDbEntity
  8
0
 62
7
100
AcDbLine
 10
379.406010
 20
368.433990
 30
0.0
 11
379.406010
 21
368.433990
 31
0.0
  0
LINE
  5
326
100
AcDbEntity
  8
0
 62
7
100
AcDbLine
 10
328.460360
 20
532.644344
 30
0.0
 11
344.319653
 21
532.644344
 31
0.0
  0
LINE
  5
327
100
AcDbEntity
  8
0
 62
7
100
AcDbLine
 10
344.319653
 20
532.644344
 30
0.0
 11
344.319653
 21
520.608651
 31
0.0
  0
LINE
  5
328
100
AcDbEntity
  8
0
 62
7
100
AcDbLine
 10
344.319653
 20
520.608651
 30
0.0
 11
328.460360
 21
520.608651
 31
0.0
  0
LINE
  5
329
100
AcDbEntity
  8
0
 62
7
100
AcDbLine
 10
328.460360
 20
520.608651
 30
0.0
 11
328.460360
 21
532.644344
 31
0.0
  0
SPLINE
  5
32a
100
AcDbEntity
  8
0
 62
7
100
AcDbSpline
 70
8
 71
3
 72
8
 73
4
 74
0
 40
0
 40
0
 40
0
 40
0
 40
1
 40
1
 40
1
 40
1
 10
321.890010
 20
528.376498
 30
0.0
 10
321.182201
 20
528.376498
 30
0.0
 10
320.544088
 20
527.950124
 30
0.0
 10
320.273221
 20
527.296194
 30
0.0
  0
SPLINE
  5
32b
100
AcDbEntity
  8
0
 62
7
100
AcDbSpline
 70
8
 71
3
 72
8
 73
4
 74
0
 40
0
 40
0
 40
0
 40
0
 40
1
 40
1
 40
1
 40
1
 10
320.273221
 20
527.296194
 30
0.0
 10
320.002354
 20
526.642264
 30
0.0
 10
320.152077
 20
525.889558
 30
0.0
 10
320.652573
 20
525.389061
 30
0.0
  0
SPLINE
  5
32c
100
AcDbEntity
  8
0
 62
7
100
AcDbSpline
 70
8
 71
3
 72
8
 73
4
 74
0
 40
0
 40
0
 40
0
 40
0
 40
1
 40
1
 40
1
 40
1
 10
320.652573
 20
525.389061
 30
0.0
 10
321.153070
 20
524.888565
 30
0.0
 10
321.905776
 20
524.738842
 30
0.0
 10
322.559706
 20
525.009709
 30
0.0
  0
SPLINE
  5
32d
100
AcDbEntity
  8
0
 62
7
100
AcDbSpline
 70
8
 71
3
 72
8
 73
4
 74
0
 40
0
 40
0
 40
0
 40
0
 40
1
 40
1
 40
1
 40
1
 10
322.559706
 20
525.009709
 30
0.0
 10
323.213636
 20
525.280576
 30
0.0
 10
323.640010
 20
525.918689
 30
0.0
 10
323.640010
 20
526.626498
 30
0.0
  0
SPLINE
  5
32e
100
AcDbEntity
  8
0
 62
7
100
AcDbSpline
 70
8
 71
3
 72
8
 73
4
 74
0
 40
0
 40
0
 40
0
 40
0
 40
1
 40
1
 40
1
 40
1
 10
323.640010
 20
526.626498
 30
0.0
 10
323.640010
 20
527.592996
 30
0.0
 10
322.856508
 20
528.376498
 30
0.0
 10
321.890010
 20
528.376498
 30
0.0
  0
LINE
  5
32f
100
AcDbEntity
  8
0
 62
7
100
AcDbLine
 10
321.890010
 20
528.376498
 30
0.0
 11
321.890010
 21
528.376498
 31
0.0
  0
SPLINE
  5
330
100
AcDbEntity
  8
0
 62
7
100
AcDbSpline
 70
8
 71
3
 72
8
 73
4
 74
0
 40
0
 40
0
 40
0
 40
0
 40
1
 40
1
 40
1
 40
1
 10
350.890010
 20
528.376498
 30
0.0
 10
350.182201
 20
528.376498
 30
0.0
 10
349.544088
 20
527.950124
 30
0.0
 10
349.273221
 20
527.296194
 30
0.0
  0
SPLINE
  5
331
100
AcDbEntity
  8
0
 62
7
100
AcDbSpline
 70
8
 71
3
 72
8
 73
4
 74
0
 40
0
 40
0
 40
0
 40
0
 40
1
 40
1
 40
1
 40
1
 10
349.273221
 20
527.296194
 30
0.0
 10
349.002354
 20
526.642264
 30
0.0
 10
349.152077
 20
525.889558
 30
0.0
 10
349.652573
 20
525.389061
 30
0.0
  0
SPLINE
  5
332
100
AcDbEntity
  8
0
 62
7
100
AcDbSpline
 70
8
 71
3
 72
8
 73
4
 74
0
 40
0
 40
0
 40
0
 40
0
 40
1
 40
1
 40
1
 40
1
 10
349.652573
 20
525.389061
 30
0.0
 10
350.153070
 20
524.888565
 30
0.0
 10
350.905776
 20
524.738842
 30
0.0
 10
351.559706
 20
525.009709
 30
0.0
  0
SPLINE
  5
333
100
AcDbEntity
  8
0
 62
7
100
AcDbSpline
 70
8
 71
3
 72
8
 73
4
 74
0
 40
0
 40
0
 40
0
 40
0
 40
1
 40
1
 40
1
 40
1
 10
351.559706
 20
525.009709
 30
0.0
 10
352.213636
 20
525.280576
 30
0.0
 10
352.640010
 20
525.918689
 30
0.0
 10
352.640010
 20
526.626498
 30
0.0
  0
SPLINE
  5
334
100
AcDbEntity
  8
0
 62
7
100
AcDbSpline
 70
8
 71
3
 72
8
 73
4
 74
0
 40
0
 40
0
 40
0
 40
0
 40
1
 40
1
 40
1
 40
1
 10
352.640010
 20
526.626498
 30
0.0
 10
352.640010
 20
527.090627
 30
0.0
 10
352.455636
 20
527.535746
 30
0.0
 10
352.127447
 20
527.863935
 30
0.0
  0
SPLINE
  5
335
100
AcDbEntity
  8
0
 62
7
100
AcDbSpline
 70
8
 71
3
 72
8
 73
4
 74
0
 40
0
 40
0
 40
0
 40
0
 40
1
 40
1
 40
1
 40
1
 10
352.127447
 20
527.863935
 30
0.0
 10
351.799258
 20
528.192124
 30
0.0
 10
351.354139
 20
528.376498
 30
0.0
 10
350.890010
 20
528.376498
 30
0.0
  0
LINE
  5
336
100
AcDbEntity
  8
0
 62
7
100
AcDbLine
 10
350.890010
 20
528.376498
 30
0.0
 11
350.890010
 21
528.376498
 31
0.0
  0
LINE
  5
337
100
AcDbEntity
  8
0
 62
1
100
AcDbLine
 10
255.977231
 20
532.619464
 30
0.0
 11
596.386789
 21
532.619464
 31
0.0
  0
SPLINE
  5
338
100
AcDbEntity
  8
0
 62
1
100
AcDbSpline
 70
8
 71
3
 72
8
 73
4
 74
0
 40
0
 40
0
 40
0
 40
0
 40
1
 40
1
 40
1
 40
1
 10
596.386789
 20
532.619464
 30
0.0
 10
598.375908
 20
532.619464
 30
0.0
 10
600.283557
 20
531.941895
 30
0.0
 10
601.690076
 20
530.735816
 30
0.0
  0
SPLINE
  5
339
100
AcDbEntity
  8
0
 62
1
100
AcDbSpline
 70
8
 71
3
 72
8
 73
4
 74
0
 40
0
 40
0
 40
0
 40
0
 40
1
 40
1
 40
1
 40
1
 10
601.690076
 20
530.735816
 30
0.0
 10
603.096596
 20
529.529736
 30
0.0
 10
603.886770
 20
527.893941
 30
0.0
 10
603.886770
 20
526.188286
 30
0.0
  0
LINE
  5
33a
100
AcDbEntity
  8
0
 62
1
100
AcDbLine
 10
603.886770
 20
526.188286
 30
0.0
 11
603.886770
 21
429.064712
 31
0.0
  0
SPLINE
  5
33b
100
AcDbEntity
  8
0
 62
1
100
AcDbSpline
 70
8
 71
3
 72
8
 73
4
 74
0
 40
0
 40
0
 40
0
 40
0
 40
1
 40
1
 40
1
 40
1
 10
603.886770
 20
429.064712
 30
0.0
 10
603.886770
 20
427.359057
 30
0.0
 10
603.096596
 20
425.723262
 30
0.0
 10
601.690076
 20
424.517182
 30
0.0
  0
SPLINE
  5
33c
100
AcDbEntity
  8
0
 62
1
100
AcDbSpline
 70
8
 71
3
 72
8
 73
4
 74
0
 40
0
 40
0
 40
0
 40
0
 40
1
 40
1
 40
1
 40
1
 10
601.690076
 20
424.517182
 30
0.0
 10
600.283557
 20
423.311103
 30
0.0
 10
598.375908
 20
422.633534
 30
0.0
 10
596.386789
 20
422.633534
 30
0.0
  0
LINE
  5
33d
100
AcDbEntity
  8
0
 62
1
100
AcDbLine
 10
596.386789
 20
422.633534
 30
0.0
 11
255.977231
 21
422.633534
 31
0.0
  0
SPLINE
  5
33e
100
AcDbEntity
  8
0
 62
1
100
AcDbSpline
 70
8
 71
3
 72
8
 73
4
 74
0
 40
0
 40
0
 40
0
 40
0
 40
1
 40
1
 40
1
 40
1
 10
255.977231
 20
422.633534
 30
0.0
 10
253.988112
 20
422.633534
 30
0.0
 10
252.080463
 20
423.311103
 30
0.0
 10
250.673944
 20
424.517182
 30
0.0
  0
SPLINE
  5
33f
100
AcDbEntity
  8
0
 62
1
100
AcDbSpline
 70
8
 71
3
 72
8
 73
4
 74
0
 40
0
 40
0
 40
0
 40
0
 40
1
 40
1
 40
1
 40
1
 10
250.673944
 20
424.517182
 30
0.0
 10
249.267424
 20
425.723262
 30
0.0
 10
248.477250
 20
427.359057
 30
0.0
 10
248.477250
 20
429.064712
 30
0.0
  0
LINE
  5
340
100
AcDbEntity
  8
0
 62
1
100
AcDbLine
 10
248.477250
 20
429.064712
 30
0.0
 11
248.477250
 21
526.188286
 31
0.0
  0
SPLINE
  5
341
100
AcDbEntity
  8
0
 62
1
100
AcDbSpline
 70
8
 71
3
 72
8
 73
4
 74
0
 40
0
 40
0
 40
0
 40
0
 40
1
 40
1
 40
1
 40
1
 10
248.477250
 20
526.188286
 30
0.0
 10
248.477250
 20
527.893941
 30
0.0
 10
249.267424
 20
529.529736
 30
0.0
 10
250.673944
 20
530.735816
 30
0.0
  0
SPLINE
  5
342
100
AcDbEntity
  8
0
 62
1
100
AcDbSpline
 70
8
 71
3
 72
8
 73
4
 74
0
 40
0
 40
0
 40
0
 40
0
 40
1
 40
1
 40
1
 40
1
 10
250.673944
 20
530.735816
 30
0.0
 10
252.080463
 20
531.941895
 30
0.0
 10
253.988112
 20
532.619464
 30
0.0
 10
255.977231
 20
532.619464
 30
0.0
  0
LINE
  5
343
100
AcDbEntity
  8
0
 62
1
100
AcDbLine
 10
255.977231
 20
532.619464
 30
0.0
 11
255.977231
 21
532.619464
 31
0.0
  0
ENDSEC
  0
SECTION
  2
OBJECTS
  0
DICTIONARY
  5
C
330
0
100
AcDbDictionary
  3
ACAD_GROUP
350
D
  3
ACAD_MLINESTYLE
350
17
  0
DICTIONARY
  5
D
330
C
100
AcDbDictionary
  0
DICTIONARY
  5
1A
330
C
100
AcDbDictionary
  0
DICTIONARY
  5
17
330
C
100
AcDbDictionary
  3
STANDARD
350
18
  0
DICTIONARY
  5
19
330
C
100
AcDbDictionary
  0
ENDSEC
  0
EOF
