<?xml version="1.0" encoding="UTF-8" standalone="no"?>
<svg
   xmlns:dc="http://purl.org/dc/elements/1.1/"
   xmlns:cc="http://creativecommons.org/ns#"
   xmlns:rdf="http://www.w3.org/1999/02/22-rdf-syntax-ns#"
   xmlns:svg="http://www.w3.org/2000/svg"
   xmlns="http://www.w3.org/2000/svg"
   xmlns:sodipodi="http://sodipodi.sourceforge.net/DTD/sodipodi-0.dtd"
   xmlns:inkscape="http://www.inkscape.org/namespaces/inkscape"
   xml:space="preserve"
   width="838.2mm"
   height="584.2mm"
   style="shape-rendering:geometricPrecision; text-rendering:geometricPrecision; image-rendering:optimizeQuality; fill-rule:evenodd; clip-rule:evenodd"
   viewBox="0 0 838.2 584.2"
   version="1.1"
   id="svg1187"
   sodipodi:docname="stus_car_acrylic_platform.svg"
   inkscape:version="1.0.2 (e86c870879, 2021-01-15)"><metadata
   id="metadata1191"><rdf:RDF><cc:Work
       rdf:about=""><dc:format>image/svg+xml</dc:format><dc:type
         rdf:resource="http://purl.org/dc/dcmitype/StillImage" /><dc:title></dc:title></cc:Work></rdf:RDF></metadata><sodipodi:namedview
   pagecolor="#ffffff"
   bordercolor="#666666"
   borderopacity="1"
   objecttolerance="10"
   gridtolerance="10"
   guidetolerance="10"
   inkscape:pageopacity="0"
   inkscape:pageshadow="2"
   inkscape:window-width="1920"
   inkscape:window-height="1016"
   id="namedview1189"
   showgrid="false"
   units="in"
   inkscape:zoom="0.37589779"
   inkscape:cx="808.58108"
   inkscape:cy="1033.5169"
   inkscape:window-x="0"
   inkscape:window-y="27"
   inkscape:window-maximized="1"
   inkscape:current-layer="svg1187" />
 <defs
   id="defs1033">
  <style
   type="text/css"
   id="style1031">
   <![CDATA[
    .str3 {stroke:#00923F;stroke-width:0.1764}
    .str2 {stroke:#0093DD;stroke-width:0.1764}
    .str0 {stroke:#1F1A17;stroke-width:0.1764}
    .str1 {stroke:#DA251D;stroke-width:0.1764}
    .fil0 {fill:none}
    .fil1 {fill:none;fill-rule:nonzero}
   ]]>
  </style>
 
  
  
  
  
  
  
  
  
  
  
  
  
  
  
  
  
  
  
  
  
  
  
  
  
  
  
  
  
  
  
  
  
  
  
 </defs>
 <g
   id="_142194224">
   <rect
   id="_142206432"
   class="fil0 str0"
   x="414.68201"
   y="51.573502"
   width="23"
   height="13" />
   <g
   id="g1041">
    <circle
   id="_142206264"
   class="fil0 str0"
   cx="412.03201"
   cy="57.532299"
   r="1.5" />
    <circle
   id="_142215896"
   class="fil0 str0"
   cx="440.332"
   cy="57.532299"
   r="1.5" />
   </g>
  </g><circle
   class="fil0 str1"
   cx="313.457"
   cy="63.773499"
   r="2.5"
   id="circle1044" /><circle
   class="fil0 str1"
   cx="538.90698"
   cy="63.773499"
   r="2.5"
   id="circle1046" /><circle
   class="fil0 str1"
   cx="313.457"
   cy="149.37399"
   r="2.5"
   id="circle1048" /><circle
   class="fil0 str1"
   cx="538.90698"
   cy="149.37399"
   r="2.5"
   id="circle1050" /><rect
   class="fil0 str2"
   x="535.90698"
   y="60.773499"
   width="6"
   height="6"
   id="rect1052" /><rect
   class="fil0 str2"
   x="535.90698"
   y="146.373"
   width="6"
   height="6"
   id="rect1054" /><rect
   class="fil0 str2"
   x="310.457"
   y="146.373"
   width="6"
   height="6"
   id="rect1056" /><rect
   class="fil0 str2"
   x="310.457"
   y="60.773499"
   width="6"
   height="6"
   id="rect1058" /><rect
   class="fil0 str0"
   x="506.92801"
   y="56.823502"
   width="13.9"
   height="13.9"
   id="rect1060" /><g
   id="_142165048">
   <circle
   id="_142154800"
   class="fil0 str0"
   cx="385.58499"
   cy="67.573502"
   r="1.5" />
   <rect
   id="_142154968"
   class="fil0 str3"
   x="333.08499"
   y="64.073502"
   width="56"
   height="85" />
   <circle
   id="_142203352"
   class="fil0 str0"
   cx="336.58499"
   cy="67.573502"
   r="1.5" />
   <circle
   id="_142203744"
   class="fil0 str0"
   cx="336.58499"
   cy="125.573"
   r="1.5" />
   <circle
   id="_142165216"
   class="fil0 str0"
   cx="385.58499"
   cy="125.574"
   r="1.5" />
  </g><g
   id="_145200872">
   <g
   id="g1076">
    <path
   id="_142164152"
   class="fil0 str0"
   d="m 275.226,171.907 h 39.3596 c 0.3523,0 0.6404,0.45 0.6404,1 v 39 h -40 z" />
    <rect
   id="_142165104"
   class="fil0 str0"
   x="275.22601"
   y="191.907"
   width="10"
   height="20" />
    <rect
   id="_142164656"
   class="fil0 str0"
   x="305.22601"
   y="201.907"
   width="10"
   height="10" />
    <rect
   id="_142164600"
   class="fil0 str0"
   x="275.22601"
   y="171.907"
   width="10"
   height="10" />
    <circle
   id="_142164208"
   class="fil0 str2"
   transform="matrix(0,-0.421941,0.421941,0,300.226,207.907)"
   r="3.5550001"
   cx="0"
   cy="0" />
    <rect
   id="_142164096"
   class="fil0 str0"
   x="275.22601"
   y="201.907"
   width="20"
   height="10" />
    <path
   id="_142163200"
   class="fil1 str0"
   d="m 320.226,206.907 -40,-40 h 40 z m -20,-20 m 0,-20 m 20,20" />
    <circle
   id="_142162864"
   class="fil0 str2"
   transform="matrix(0,-0.421941,0.421941,0,279.226,186.907)"
   r="3.5550001"
   cx="0"
   cy="0" />
   </g>
   <g
   id="g1086">
    <path
   id="_145180432"
   class="fil0 str0"
   d="m 325.008,171.907 h 39.3596 c 0.3523,0 0.6404,0.45 0.6404,1 v 39 h -40 z" />
    <rect
   id="_145180208"
   class="fil0 str0"
   x="325.008"
   y="191.907"
   width="10"
   height="20" />
    <rect
   id="_145180040"
   class="fil0 str0"
   x="355.008"
   y="201.907"
   width="10"
   height="10" />
    <rect
   id="_145179816"
   class="fil0 str0"
   x="325.008"
   y="171.907"
   width="10"
   height="10" />
    <circle
   id="_145179648"
   class="fil0 str2"
   transform="matrix(0,-0.421941,0.421941,0,350.009,207.907)"
   r="3.5550001"
   cx="0"
   cy="0" />
    <rect
   id="_145179312"
   class="fil0 str0"
   x="325.008"
   y="201.907"
   width="20"
   height="10" />
    <path
   id="_145179144"
   class="fil1 str0"
   d="m 370.008,206.907 -40,-40 h 40 z m -20,-20 m 0,-20 m 20,20" />
    <circle
   id="_145179088"
   class="fil0 str2"
   transform="matrix(0,-0.421941,0.421941,0,329.009,186.907)"
   r="3.5550001"
   cx="0"
   cy="0" />
   </g>
   <g
   id="g1096">
    <path
   id="_145178528"
   class="fil0 str0"
   d="m 273.782,220.288 h 39.3596 c 0.3523,0 0.6404,0.45 0.6404,1 v 39 h -40 z" />
    <rect
   id="_145178360"
   class="fil0 str0"
   x="273.78201"
   y="240.28799"
   width="10"
   height="20" />
    <rect
   id="_145178136"
   class="fil0 str0"
   x="303.78201"
   y="250.28799"
   width="10"
   height="10" />
    <rect
   id="_145162792"
   class="fil0 str0"
   x="273.78201"
   y="220.28799"
   width="10"
   height="10" />
    <circle
   id="_145203616"
   class="fil0 str2"
   transform="matrix(0,-0.421941,0.421941,0,298.782,256.288)"
   r="3.5550001"
   cx="0"
   cy="0" />
    <rect
   id="_145203448"
   class="fil0 str0"
   x="273.78201"
   y="250.28799"
   width="20"
   height="10" />
    <path
   id="_145203224"
   class="fil1 str0"
   d="m 318.782,255.288 -40,-40 h 40 z m -20,-20 m 0,-20 m 20,20" />
    <circle
   id="_145203000"
   class="fil0 str2"
   transform="matrix(0,-0.421941,0.421941,0,277.782,235.288)"
   r="3.5550001"
   cx="0"
   cy="0" />
   </g>
   <g
   id="g1106">
    <path
   id="_145202552"
   class="fil0 str0"
   d="m 323.564,220.288 h 39.3596 c 0.3523,0 0.6404,0.45 0.6404,1 v 39 h -40 z" />
    <rect
   id="_145202440"
   class="fil0 str0"
   x="323.564"
   y="240.28799"
   width="10"
   height="20" />
    <rect
   id="_145202216"
   class="fil0 str0"
   x="353.564"
   y="250.28799"
   width="10"
   height="10" />
    <rect
   id="_145202104"
   class="fil0 str0"
   x="323.564"
   y="220.28799"
   width="10"
   height="10" />
    <circle
   id="_145201712"
   class="fil0 str2"
   transform="matrix(0,-0.421941,0.421941,0,348.564,256.288)"
   r="3.5550001"
   cx="0"
   cy="0" />
    <rect
   id="_145201544"
   class="fil0 str0"
   x="323.564"
   y="250.28799"
   width="20"
   height="10" />
    <path
   id="_145201320"
   class="fil1 str0"
   d="m 368.564,255.288 -40,-40 h 40 z m -20,-20 m 0,-20 m 20,20" />
    <circle
   id="_145201096"
   class="fil0 str2"
   transform="matrix(0,-0.421941,0.421941,0,327.564,235.288)"
   r="3.5550001"
   cx="0"
   cy="0" />
   </g>
  </g><g
   id="_145198632">
   <rect
   id="_145200704"
   class="fil0 str0"
   x="273.78201"
   y="266.71899"
   width="110"
   height="40"
   rx="2.3585999"
   ry="2.3585999" />
   <rect
   id="_145200480"
   class="fil0 str0"
   x="273.78201"
   y="296.71899"
   width="40"
   height="10" />
   <circle
   id="_145200368"
   class="fil0 str0"
   cx="320.28101"
   cy="302.71899"
   r="1.5" />
   <rect
   id="_145200200"
   class="fil0 str0"
   x="343.78201"
   y="296.71899"
   width="40"
   height="10" />
   <circle
   id="_145200032"
   class="fil0 str0"
   cx="337.28101"
   cy="302.71899"
   r="1.5" />
   <g
   id="g1116">
    <circle
   id="_145199864"
   class="fil0 str0"
   cx="281.28101"
   cy="286.71899"
   r="2.5" />
    <circle
   id="_145199640"
   class="fil0 str0"
   cx="281.28101"
   cy="276.71899"
   r="2.5" />
   </g>
   <g
   id="g1120">
    <circle
   id="_145199416"
   class="fil0 str0"
   cx="376.28101"
   cy="286.71899"
   r="2.5" />
    <circle
   id="_145199248"
   class="fil0 str0"
   cx="376.28101"
   cy="276.71899"
   r="2.5" />
   </g>
   <rect
   id="_145198968"
   class="fil0 str0"
   x="295.78101"
   y="276.71899"
   width="3"
   height="10" />
   <rect
   id="_145198800"
   class="fil0 str0"
   x="358.78101"
   y="276.71899"
   width="3"
   height="10" />
  </g><g
   id="_145157136"
   transform="translate(25.31223)">
   <rect
   id="_145198464"
   class="fil0 str0"
   x="570.58197"
   y="91.573502"
   width="3"
   height="30" />
   <rect
   id="_145157416"
   class="fil0 str0"
   x="550.58197"
   y="136.57401"
   width="10"
   height="3" />
   <rect
   id="_145157248"
   class="fil0 str0"
   x="550.58197"
   y="73.573502"
   width="10"
   height="3" />
  </g><g
   id="_145156464"
   transform="translate(-25.311813)">
   <rect
   id="_145156912"
   class="fil0 str0"
   x="278.78201"
   y="91.573502"
   width="3"
   height="30" />
   <rect
   id="_145156744"
   class="fil0 str0"
   x="291.78201"
   y="73.573502"
   width="10"
   height="3" />
   <rect
   id="_145156576"
   class="fil0 str0"
   x="291.78201"
   y="136.57401"
   width="10"
   height="3" />
  </g><rect
   class="fil0 str0"
   x="273.78201"
   y="309.811"
   width="110"
   height="50"
   rx="2.3585999"
   ry="2.3585999"
   id="rect1133" /><g
   id="_145155624">
   <rect
   id="_145156016"
   class="fil0 str0"
   x="273.78201"
   y="349.811"
   width="40"
   height="10" />
   <circle
   id="_145155792"
   class="fil0 str0"
   cx="320.28101"
   cy="355.81"
   r="1.5" />
   <rect
   id="_145155848"
   class="fil0 str0"
   x="343.78201"
   y="349.811"
   width="40"
   height="10" />
   <circle
   id="_145155736"
   class="fil0 str0"
   cx="337.28101"
   cy="355.81"
   r="1.5" />
  </g><g
   id="_145183624">
   <circle
   id="_145155400"
   class="fil0 str0"
   cx="283.78101"
   cy="334.811"
   r="2.5" />
   <circle
   id="_145155176"
   class="fil0 str0"
   cx="283.78101"
   cy="324.81"
   r="5" />
  </g><g
   id="_145178024">
   <rect
   id="_145183568"
   class="fil0 str0"
   x="295.78101"
   y="329.81"
   width="3"
   height="10" />
   <rect
   id="_145183400"
   class="fil0 str0"
   x="358.78101"
   y="329.81"
   width="3"
   height="10" />
  </g><g
   id="_143612520">
   <circle
   id="_145177912"
   class="fil0 str0"
   cx="373.78101"
   cy="334.811"
   r="2.5" />
   <circle
   id="_145177632"
   class="fil0 str0"
   cx="373.78101"
   cy="324.81"
   r="5" />
  </g><rect
   class="fil0 str0"
   x="318.78201"
   y="346.81"
   width="20"
   height="3"
   rx="0.32390001"
   ry="0.32390001"
   id="rect1149" /><rect
   class="fil0 str0"
   transform="rotate(-90)"
   width="19.999931"
   height="2.9999986"
   rx="0.3760058"
   ry="0.15000458"
   id="rect1151"
   x="-337.31"
   y="302.28101" /><rect
   class="fil0 str0"
   transform="rotate(-90)"
   width="19.999931"
   height="2.9999986"
   rx="0.3760058"
   ry="0.15000458"
   id="rect1153"
   x="-337.31"
   y="352.28101" /><g
   id="_143610784">
   <rect
   id="_143611848"
   class="fil0 str3"
   transform="matrix(0,0.470916,-0.44948,0,340.713,313.877)"
   width="53.088001"
   height="53.088001"
   x="0"
   y="0" />
   <circle
   id="_143611680"
   class="fil0 str2"
   transform="matrix(0,0.309423,-0.309423,0,318.851,336.877)"
   r="3.5550001"
   cx="0"
   cy="0" />
   <circle
   id="_143611344"
   class="fil0 str2"
   transform="matrix(0,0.309423,-0.309423,0,331.351,336.877)"
   r="3.5550001"
   cx="0"
   cy="0" />
   <circle
   id="_143611232"
   class="fil0 str2"
   transform="matrix(0,0.309423,-0.309423,0,331.351,315.877)"
   r="3.5550001"
   cx="0"
   cy="0" />
   <circle
   id="_143611064"
   class="fil0 str2"
   transform="matrix(0,0.309423,-0.309423,0,318.851,315.877)"
   r="3.5550001"
   cx="0"
   cy="0" />
  </g><g
   id="_143609608">
   <rect
   id="_143610616"
   class="fil0 str3"
   x="316.28201"
   y="311.034"
   width="25"
   height="23.862" />
   <circle
   id="_143610392"
   class="fil0 str2"
   cx="339.28201"
   cy="332.89499"
   r="1.1" />
   <circle
   id="_143610224"
   class="fil0 str2"
   cx="339.28201"
   cy="320.39499"
   r="1.1" />
   <circle
   id="_143609776"
   class="fil0 str2"
   cx="318.28201"
   cy="320.39499"
   r="1.1" />
   <circle
   id="_143609720"
   class="fil0 str2"
   cx="318.28201"
   cy="332.89499"
   r="1.1" />
  </g><g
   id="g1471"
   transform="translate(17.991672)"><circle
     class="fil0 str0"
     cx="394.30499"
     cy="84.073196"
     r="1.5"
     id="circle1167" /><circle
     class="fil0 str0"
     cx="565.30499"
     cy="84.073196"
     r="1.5"
     id="circle1169" /><circle
     class="fil0 str0"
     cx="565.30499"
     cy="129.073"
     r="1.5"
     id="circle1171" /><circle
     class="fil0 str0"
     cx="394.30499"
     cy="129.073"
     r="1.5"
     id="circle1173" /></g><g
   id="_143608040">
   <rect
   id="_143608768"
   class="fil0 str0"
   x="374.905"
   y="167.767"
   width="180"
   height="54"
   rx="4.9485002"
   ry="4.9485002" />
   <circle
   id="_143608600"
   class="fil0 str0"
   cx="379.40601"
   cy="172.26601"
   r="1.5" />
   <circle
   id="_143608488"
   class="fil0 str0"
   cx="550.40601"
   cy="172.26601"
   r="1.5" />
   <circle
   id="_143608320"
   class="fil0 str0"
   cx="550.40601"
   cy="217.26601"
   r="1.5" />
   <circle
   id="_143607928"
   class="fil0 str0"
   cx="379.40601"
   cy="217.26601"
   r="1.5" />
  </g><rect
   class="fil0 str0"
   x="328.46036"
   y="51.555656"
   width="15.859293"
   height="12.035693"
   id="rect1181" /><g
   id="_143607368">
   <circle
   id="_143607592"
   class="fil0 str0"
   cx="321.89001"
   cy="57.573502"
   r="1.75" />
   <circle
   id="_143607480"
   class="fil0 str0"
   cx="350.89001"
   cy="57.573502"
   r="1.75" />
  </g>
<rect
   class="fil0 str0"
   x="248.47725"
   y="51.580536"
   width="355.40952"
   height="109.98593"
   rx="7.4999809"
   ry="6.4311776"
   id="rect1036-3"
   style="clip-rule:evenodd;fill:none;fill-rule:evenodd;stroke:#1f1a17;stroke-width:0.190471;image-rendering:optimizeQuality;shape-rendering:geometricPrecision;text-rendering:geometricPrecision" /></svg>
