<?xml version="1.0" encoding="UTF-8"?>
<!DOCTYPE svg PUBLIC "-//W3C//DTD SVG 1.1//EN" "http://www.w3.org/Graphics/SVG/1.1/DTD/svg11.dtd">
<!-- Creator: CorelDRAW -->
<svg xmlns="http://www.w3.org/2000/svg" xml:space="preserve" width="838.2mm" height="584.2mm" style="shape-rendering:geometricPrecision; text-rendering:geometricPrecision; image-rendering:optimizeQuality; fill-rule:evenodd; clip-rule:evenodd"
viewBox="0 0 838.2 584.2"
 xmlns:xlink="http://www.w3.org/1999/xlink">
 <defs>
  <style type="text/css">
   <![CDATA[
    .str3 {stroke:#00923F;stroke-width:0.1764}
    .str2 {stroke:#0093DD;stroke-width:0.1764}
    .str0 {stroke:#1F1A17;stroke-width:0.1764}
    .str1 {stroke:#DA251D;stroke-width:0.1764}
    .fil0 {fill:none}
    .fil1 {fill:none;fill-rule:nonzero}
   ]]>
  </style>
 </defs>
 <g id="Layer_x0020_1">
  <metadata id="CorelCorpID_0Corel-Layer"/>
  <rect class="fil0 str0" x="273.782" y="51.5735" width="304.8" height="110" rx="6.432" ry="6.432"/>
  <g id="_142194224">
   <rect id="_142206432" class="fil0 str0" x="414.682" y="51.5735" width="23" height="13"/>
   <g>
    <circle id="_142206264" class="fil0 str0" cx="412.032" cy="57.5323" r="1.5"/>
    <circle id="_142215896" class="fil0 str0" cx="440.332" cy="57.5323" r="1.5"/>
   </g>
  </g>
  <circle class="fil0 str1" cx="313.457" cy="63.7735" r="2.5"/>
  <circle class="fil0 str1" cx="538.907" cy="63.7735" r="2.5"/>
  <circle class="fil0 str1" cx="313.457" cy="149.374" r="2.5"/>
  <circle class="fil0 str1" cx="538.907" cy="149.374" r="2.5"/>
  <rect class="fil0 str2" x="535.907" y="60.7735" width="6" height="6"/>
  <rect class="fil0 str2" x="535.907" y="146.373" width="6" height="6"/>
  <rect class="fil0 str2" x="310.457" y="146.373" width="6" height="6"/>
  <rect class="fil0 str2" x="310.457" y="60.7735" width="6" height="6"/>
  <rect class="fil0 str0" x="506.928" y="56.8235" width="13.9" height="13.9"/>
  <g id="_142165048">
   <circle id="_142154800" class="fil0 str0" cx="385.585" cy="67.5735" r="1.5"/>
   <rect id="_142154968" class="fil0 str3" x="333.085" y="64.0735" width="56" height="85"/>
   <circle id="_142203352" class="fil0 str0" cx="336.585" cy="67.5735" r="1.5"/>
   <circle id="_142203744" class="fil0 str0" cx="336.585" cy="125.573" r="1.5"/>
   <circle id="_142165216" class="fil0 str0" cx="385.585" cy="125.574" r="1.5"/>
  </g>
  <g id="_145200872">
   <g>
    <path id="_142164152" class="fil0 str0" d="M275.226 171.907l39.3596 0c0.3523,0 0.6404,0.45 0.6404,1l0 39 -40 0 0 -40z"/>
    <rect id="_142165104" class="fil0 str0" x="275.226" y="191.907" width="10" height="20"/>
    <rect id="_142164656" class="fil0 str0" x="305.226" y="201.907" width="10" height="10"/>
    <rect id="_142164600" class="fil0 str0" x="275.226" y="171.907" width="10" height="10"/>
    <circle id="_142164208" class="fil0 str2" transform="matrix(1.11749E-014 -0.421941 0.421941 1.11749E-014 300.226 207.907)" r="3.555"/>
    <rect id="_142164096" class="fil0 str0" x="275.226" y="201.907" width="20" height="10"/>
    <path id="_142163200" class="fil1 str0" d="M320.226 206.907l-40 -40 40 0 0 40zm-20 -20m0 -20m20 20"/>
    <circle id="_142162864" class="fil0 str2" transform="matrix(1.11749E-014 -0.421941 0.421941 1.11749E-014 279.226 186.907)" r="3.555"/>
   </g>
   <g>
    <path id="_145180432" class="fil0 str0" d="M325.008 171.907l39.3596 0c0.3523,0 0.6404,0.45 0.6404,1l0 39 -40 0 0 -40z"/>
    <rect id="_145180208" class="fil0 str0" x="325.008" y="191.907" width="10" height="20"/>
    <rect id="_145180040" class="fil0 str0" x="355.008" y="201.907" width="10" height="10"/>
    <rect id="_145179816" class="fil0 str0" x="325.008" y="171.907" width="10" height="10"/>
    <circle id="_145179648" class="fil0 str2" transform="matrix(1.11749E-014 -0.421941 0.421941 1.11749E-014 350.009 207.907)" r="3.555"/>
    <rect id="_145179312" class="fil0 str0" x="325.008" y="201.907" width="20" height="10"/>
    <path id="_145179144" class="fil1 str0" d="M370.008 206.907l-40 -40 40 0 0 40zm-20 -20m0 -20m20 20"/>
    <circle id="_145179088" class="fil0 str2" transform="matrix(1.11749E-014 -0.421941 0.421941 1.11749E-014 329.009 186.907)" r="3.555"/>
   </g>
   <g>
    <path id="_145178528" class="fil0 str0" d="M273.782 220.288l39.3596 0c0.3523,0 0.6404,0.45 0.6404,1l0 39 -40 0 0 -40z"/>
    <rect id="_145178360" class="fil0 str0" x="273.782" y="240.288" width="10" height="20"/>
    <rect id="_145178136" class="fil0 str0" x="303.782" y="250.288" width="10" height="10"/>
    <rect id="_145162792" class="fil0 str0" x="273.782" y="220.288" width="10" height="10"/>
    <circle id="_145203616" class="fil0 str2" transform="matrix(1.11749E-014 -0.421941 0.421941 1.11749E-014 298.782 256.288)" r="3.555"/>
    <rect id="_145203448" class="fil0 str0" x="273.782" y="250.288" width="20" height="10"/>
    <path id="_145203224" class="fil1 str0" d="M318.782 255.288l-40 -40 40 0 0 40zm-20 -20m0 -20m20 20"/>
    <circle id="_145203000" class="fil0 str2" transform="matrix(1.11749E-014 -0.421941 0.421941 1.11749E-014 277.782 235.288)" r="3.555"/>
   </g>
   <g>
    <path id="_145202552" class="fil0 str0" d="M323.564 220.288l39.3596 0c0.3523,0 0.6404,0.45 0.6404,1l0 39 -40 0 0 -40z"/>
    <rect id="_145202440" class="fil0 str0" x="323.564" y="240.288" width="10" height="20"/>
    <rect id="_145202216" class="fil0 str0" x="353.564" y="250.288" width="10" height="10"/>
    <rect id="_145202104" class="fil0 str0" x="323.564" y="220.288" width="10" height="10"/>
    <circle id="_145201712" class="fil0 str2" transform="matrix(1.11749E-014 -0.421941 0.421941 1.11749E-014 348.564 256.288)" r="3.555"/>
    <rect id="_145201544" class="fil0 str0" x="323.564" y="250.288" width="20" height="10"/>
    <path id="_145201320" class="fil1 str0" d="M368.564 255.288l-40 -40 40 0 0 40zm-20 -20m0 -20m20 20"/>
    <circle id="_145201096" class="fil0 str2" transform="matrix(1.11749E-014 -0.421941 0.421941 1.11749E-014 327.564 235.288)" r="3.555"/>
   </g>
  </g>
  <g id="_145198632">
   <rect id="_145200704" class="fil0 str0" x="273.782" y="266.719" width="110" height="40" rx="2.3586" ry="2.3586"/>
   <rect id="_145200480" class="fil0 str0" x="273.782" y="296.719" width="40" height="10"/>
   <circle id="_145200368" class="fil0 str0" cx="320.281" cy="302.719" r="1.5"/>
   <rect id="_145200200" class="fil0 str0" x="343.782" y="296.719" width="40" height="10"/>
   <circle id="_145200032" class="fil0 str0" cx="337.281" cy="302.719" r="1.5"/>
   <g>
    <circle id="_145199864" class="fil0 str0" cx="281.281" cy="286.719" r="2.5"/>
    <circle id="_145199640" class="fil0 str0" cx="281.281" cy="276.719" r="2.5"/>
   </g>
   <g>
    <circle id="_145199416" class="fil0 str0" cx="376.281" cy="286.719" r="2.5"/>
    <circle id="_145199248" class="fil0 str0" cx="376.281" cy="276.719" r="2.5"/>
   </g>
   <rect id="_145198968" class="fil0 str0" x="295.781" y="276.719" width="3" height="10"/>
   <rect id="_145198800" class="fil0 str0" x="358.781" y="276.719" width="3" height="10"/>
  </g>
  <g id="_145157136">
   <rect id="_145198464" class="fil0 str0" x="570.582" y="91.5735" width="3" height="30"/>
   <rect id="_145157416" class="fil0 str0" x="550.582" y="136.574" width="10" height="3"/>
   <rect id="_145157248" class="fil0 str0" x="550.582" y="73.5735" width="10" height="3"/>
  </g>
  <g id="_145156464">
   <rect id="_145156912" class="fil0 str0" x="278.782" y="91.5735" width="3" height="30"/>
   <rect id="_145156744" class="fil0 str0" x="291.782" y="73.5735" width="10" height="3"/>
   <rect id="_145156576" class="fil0 str0" x="291.782" y="136.574" width="10" height="3"/>
  </g>
  <rect class="fil0 str0" x="273.782" y="309.811" width="110" height="50" rx="2.3586" ry="2.3586"/>
  <g id="_145155624">
   <rect id="_145156016" class="fil0 str0" x="273.782" y="349.811" width="40" height="10"/>
   <circle id="_145155792" class="fil0 str0" cx="320.281" cy="355.81" r="1.5"/>
   <rect id="_145155848" class="fil0 str0" x="343.782" y="349.811" width="40" height="10"/>
   <circle id="_145155736" class="fil0 str0" cx="337.281" cy="355.81" r="1.5"/>
  </g>
  <g id="_145183624">
   <circle id="_145155400" class="fil0 str0" cx="283.781" cy="334.811" r="2.5"/>
   <circle id="_145155176" class="fil0 str0" cx="283.781" cy="324.81" r="5"/>
  </g>
  <g id="_145178024">
   <rect id="_145183568" class="fil0 str0" x="295.781" y="329.81" width="3" height="10"/>
   <rect id="_145183400" class="fil0 str0" x="358.781" y="329.81" width="3" height="10"/>
  </g>
  <g id="_143612520">
   <circle id="_145177912" class="fil0 str0" cx="373.781" cy="334.811" r="2.5"/>
   <circle id="_145177632" class="fil0 str0" cx="373.781" cy="324.81" r="5"/>
  </g>
  <rect class="fil0 str0" x="318.782" y="346.81" width="20" height="3" rx="0.3239" ry="0.3239"/>
  <rect class="fil0 str0" transform="matrix(3.07452E-014 -1.16087 0.46312 1.22655E-014 302.281 337.31)" width="17.2284" height="6.4778" rx="0.3239" ry="0.3239"/>
  <rect class="fil0 str0" transform="matrix(3.07452E-014 -1.16087 0.46312 1.22655E-014 352.281 337.31)" width="17.2284" height="6.4778" rx="0.3239" ry="0.3239"/>
  <g id="_143610784">
   <rect id="_143611848" class="fil0 str3" transform="matrix(-3.63064E-014 0.470916 -0.44948 -3.68753E-014 340.713 313.877)" width="53.088" height="53.088"/>
   <circle id="_143611680" class="fil0 str2" transform="matrix(-2.45848E-014 0.309423 -0.309423 -2.45848E-014 318.851 336.877)" r="3.555"/>
   <circle id="_143611344" class="fil0 str2" transform="matrix(-2.45848E-014 0.309423 -0.309423 -2.45848E-014 331.351 336.877)" r="3.555"/>
   <circle id="_143611232" class="fil0 str2" transform="matrix(-2.45848E-014 0.309423 -0.309423 -2.45848E-014 331.351 315.877)" r="3.555"/>
   <circle id="_143611064" class="fil0 str2" transform="matrix(-2.45848E-014 0.309423 -0.309423 -2.45848E-014 318.851 315.877)" r="3.555"/>
  </g>
  <g id="_143609608">
   <rect id="_143610616" class="fil0 str3" x="316.282" y="311.034" width="25" height="23.862"/>
   <circle id="_143610392" class="fil0 str2" cx="339.282" cy="332.895" r="1.1"/>
   <circle id="_143610224" class="fil0 str2" cx="339.282" cy="320.395" r="1.1"/>
   <circle id="_143609776" class="fil0 str2" cx="318.282" cy="320.395" r="1.1"/>
   <circle id="_143609720" class="fil0 str2" cx="318.282" cy="332.895" r="1.1"/>
  </g>
  <circle class="fil0 str0" cx="394.305" cy="84.0732" r="1.5"/>
  <circle class="fil0 str0" cx="565.305" cy="84.0732" r="1.5"/>
  <circle class="fil0 str0" cx="565.305" cy="129.073" r="1.5"/>
  <circle class="fil0 str0" cx="394.305" cy="129.073" r="1.5"/>
  <g id="_143608040">
   <rect id="_143608768" class="fil0 str0" x="374.905" y="167.767" width="180" height="54" rx="4.9485" ry="4.9485"/>
   <circle id="_143608600" class="fil0 str0" cx="379.406" cy="172.266" r="1.5"/>
   <circle id="_143608488" class="fil0 str0" cx="550.406" cy="172.266" r="1.5"/>
   <circle id="_143608320" class="fil0 str0" cx="550.406" cy="217.266" r="1.5"/>
   <circle id="_143607928" class="fil0 str0" cx="379.406" cy="217.266" r="1.5"/>
  </g>
  <rect class="fil0 str0" x="323.89" y="51.5735" width="25" height="12"/>
  <g id="_143607368">
   <circle id="_143607592" class="fil0 str0" cx="321.89" cy="57.5735" r="1.75"/>
   <circle id="_143607480" class="fil0 str0" cx="350.89" cy="57.5735" r="1.75"/>
  </g>
 </g>
</svg>
